<svg version="1.1" id="Layer_1" xmlns="http://www.w3.org/2000/svg" xmlns:xlink="http://www.w3.org/1999/xlink" x="0px" y="0px"
	 width="100%" viewBox="0 0 569 278" enable-background="new 0 0 569 278" xml:space="preserve">
<path fill="#FDFEFE" opacity="1.000000" stroke="none" 
	d="
M424.000000,279.000000 
	C282.666718,279.000000 141.833420,279.000000 1.000094,279.000000 
	C1.000063,186.333405 1.000063,93.666809 1.000031,1.000157 
	C190.666550,1.000104 380.333099,1.000104 569.999756,1.000052 
	C569.999817,93.666512 569.999817,186.333023 569.999878,278.999756 
	C521.500000,279.000000 473.000000,279.000000 424.000000,279.000000 
M371.479248,38.269722 
	C371.334167,39.509388 371.189087,40.749058 370.895966,42.825005 
	C371.478058,48.508926 375.178802,45.137295 377.717041,45.568047 
	C377.717041,42.950302 377.717041,40.734283 377.717041,38.344425 
	C375.629150,38.344425 373.855377,38.344425 371.479248,38.269722 
M126.776680,48.290489 
	C125.484558,38.376984 124.192436,28.463476 122.831238,18.019962 
	C117.701813,18.019962 112.080719,17.840652 106.490173,18.173838 
	C105.394485,18.239136 103.629868,20.207920 103.504913,21.434408 
	C101.999474,36.210594 112.330605,48.171928 127.162430,49.680756 
	C132.427856,63.412518 143.634995,70.687576 158.194077,69.548088 
	C159.480057,69.447449 161.637802,67.827934 161.697815,66.813736 
	C162.037979,61.063351 161.862427,55.282463 161.862427,49.033859 
	C149.827286,49.033859 138.403595,49.033859 126.776680,48.290489 
M127.190247,121.705025 
	C133.188690,137.351730 145.965759,143.902649 164.924316,140.927734 
	C164.924316,134.392136 164.924316,127.830040 164.924316,121.158401 
	C152.033188,121.158401 139.438614,121.158401 126.677505,120.397240 
	C125.827553,114.346291 124.453583,108.313675 124.240974,102.240417 
	C123.845764,90.951057 124.127686,79.638008 124.127701,68.334816 
	C124.127708,65.399437 124.127701,62.464062 124.127701,59.311928 
	C116.091454,59.311928 108.697617,59.311928 102.589935,59.311928 
	C102.940048,70.868523 103.521095,82.244804 103.572906,93.623497 
	C103.646881,109.873871 110.982124,118.695839 127.190247,121.705025 
M38.156792,85.299805 
	C46.224941,90.481544 53.984882,96.247643 62.435234,100.704750 
	C74.385040,107.007607 86.844749,112.343719 99.038139,118.070351 
	C98.842461,118.669792 99.052094,118.228638 99.128067,117.765564 
	C101.131905,105.551010 95.724838,96.483543 85.998428,90.226372 
	C77.079941,84.488937 67.352547,80.018547 58.054028,74.859299 
	C50.154556,70.476318 42.358406,65.907104 34.283890,61.287182 
	C31.490623,69.122185 31.642796,77.264343 38.156792,85.299805 
M507.801178,197.500031 
	C507.801178,135.760086 507.801178,74.020134 507.801178,11.914294 
	C505.884491,11.999291 504.511444,12.060181 503.113220,12.122187 
	C503.113220,97.233612 503.113220,181.938278 503.113220,266.975342 
	C504.732910,266.893646 506.106018,266.824371 507.801147,266.738861 
	C507.801147,243.744476 507.801147,221.122253 507.801178,197.500031 
M88.379585,120.804817 
	C70.811050,120.804817 53.242519,120.804817 35.396618,120.804817 
	C35.396618,127.856659 35.396618,134.390503 35.396618,140.906342 
	C49.429359,140.906342 63.226154,141.648224 76.899490,140.667999 
	C87.544533,139.904877 97.017929,129.856842 97.775734,120.804756 
	C94.949028,120.804756 92.139824,120.804756 88.379585,120.804817 
M41.223522,49.743576 
	C39.269863,52.520618 37.316204,55.297665 34.911350,58.716064 
	C57.349270,58.716064 78.614464,58.716064 100.022675,58.716064 
	C92.465805,38.662781 61.753986,28.271437 41.223522,49.743576 
M297.086243,176.473282 
	C297.256836,170.453949 298.280518,169.433762 304.096436,169.735672 
	C305.751770,169.821625 307.390839,170.309448 309.042175,170.338425 
	C309.665955,170.349365 310.690521,169.681183 310.824921,169.145218 
	C310.957794,168.615265 310.362854,167.608749 309.804535,167.244293 
	C302.914032,162.746353 293.900726,167.266647 293.456970,175.371536 
	C293.397125,176.464584 293.140961,177.546890 292.932068,178.921310 
	C290.990967,178.921310 289.344849,178.963882 287.701965,178.909088 
	C286.123047,178.856445 284.547455,178.702988 283.090698,178.602142 
	C281.894226,169.092651 280.310181,166.758774 275.033356,166.251053 
	C270.383362,165.803635 266.568756,167.970352 265.749451,171.987381 
	C263.673615,182.165146 271.616516,182.112854 278.304474,184.039444 
	C275.175110,185.145920 272.343384,185.060104 269.522675,185.198730 
	C268.686554,185.239822 267.705872,185.752991 267.143738,186.370514 
	C266.899811,186.638535 267.329468,188.018646 267.825958,188.376602 
	C270.156311,190.056808 280.193054,188.451279 281.247742,185.766403 
	C282.676910,182.128189 285.224213,182.401489 288.056793,182.403198 
	C310.722076,182.416916 333.387390,182.410828 356.052673,182.410812 
	C357.830750,182.410797 359.608856,182.410812 361.736023,182.410812 
	C361.736023,175.084702 361.813477,168.436172 361.645569,161.793823 
	C361.622589,160.884827 360.377167,160.006729 359.697723,159.114304 
	C359.153748,160.128937 358.169250,161.130829 358.139435,162.160355 
	C357.982300,167.593582 358.065765,173.033783 358.065765,178.612701 
	C354.490326,178.612701 351.586121,178.612701 348.215820,178.612701 
	C348.215820,175.524719 348.409973,172.716888 348.131592,169.956726 
	C347.998138,168.633698 346.970306,167.400909 346.347595,166.127243 
	C345.775635,167.470093 344.840393,168.778366 344.708588,170.163116 
	C344.447968,172.901642 344.631683,175.682465 344.631683,178.495239 
	C341.347015,178.495239 338.812195,178.495239 335.962585,178.495239 
	C335.962585,175.586899 336.115295,173.085190 335.880035,170.620468 
	C335.797363,169.754517 334.763000,168.979370 334.163208,168.162766 
	C333.576569,168.989792 332.560425,169.779221 332.484100,170.650909 
	C332.258209,173.231598 332.403290,175.844757 332.403290,178.569977 
	C329.125824,178.569977 326.566223,178.569977 323.637939,178.569977 
	C323.637939,175.571625 323.753998,172.912216 323.563507,170.274933 
	C323.510010,169.534210 322.555573,168.858551 322.014404,168.153046 
	C321.351807,168.886017 320.185516,169.575500 320.117767,170.359848 
	C319.881958,173.091141 320.026611,175.855301 320.026611,178.884888 
	C312.595978,178.884888 305.951447,178.932327 299.309723,178.817978 
	C298.573608,178.805298 297.853394,177.869293 297.086243,176.473282 
M359.304199,61.500347 
	C359.304199,53.857475 359.304199,46.214600 359.304199,38.528465 
	C356.649323,38.528465 354.442749,38.528465 351.755249,38.528465 
	C351.755249,42.166904 351.755249,45.412598 351.755249,49.054771 
	C347.622223,49.054771 343.959473,48.815823 340.338684,49.104134 
	C332.615662,49.719078 328.976959,53.974312 328.141235,62.904942 
	C327.051819,74.546242 330.265656,81.674858 337.541382,83.729012 
	C338.180786,83.909531 338.843811,84.118576 339.496765,84.121536 
	C345.939972,84.150764 352.383392,84.139206 359.303833,84.139206 
	C359.303833,76.749619 359.303833,69.624924 359.304199,61.500347 
M461.280060,113.502548 
	C461.280060,107.540276 461.280060,101.578003 461.280060,95.483612 
	C458.643524,95.483612 456.451569,95.483612 453.786377,95.483612 
	C453.786377,99.106033 453.786377,102.348740 453.786377,106.061279 
	C449.682739,106.061279 446.038147,105.828629 442.433350,106.108559 
	C434.328552,106.737946 430.579468,111.272675 430.027161,120.689240 
	C429.303772,133.022690 432.523865,139.880859 440.624786,140.879150 
	C447.265076,141.697433 454.086487,141.045868 461.279572,141.045868 
	C461.279572,132.049515 461.279572,123.275558 461.280060,113.502548 
M316.108368,126.287544 
	C315.088257,121.008965 315.397888,114.906273 312.751190,110.635818 
	C308.247375,103.368805 299.444824,106.937866 291.958130,105.493111 
	C291.958130,101.958008 291.958130,98.591248 291.958130,95.365379 
	C289.362213,95.365379 287.423218,95.365379 285.325623,95.365379 
	C285.325623,110.774765 285.325623,125.923683 285.325623,141.471146 
	C290.490356,141.471146 295.286133,141.510147 300.081024,141.463196 
	C310.733765,141.358902 314.714325,137.787781 316.108368,126.287544 
M255.637405,118.985909 
	C253.977997,119.050018 252.290222,118.942162 250.664520,119.210518 
	C245.811325,120.011650 243.065262,123.583916 242.770569,129.239960 
	C242.441467,135.556427 244.833618,140.475006 249.727310,140.872650 
	C257.573273,141.510208 265.509003,141.043503 273.659698,141.043503 
	C273.659698,132.070175 273.849609,123.433990 273.587708,114.811531 
	C273.433319,109.728111 270.398956,106.409271 265.615143,106.156044 
	C259.032654,105.807617 252.417892,106.068771 245.555283,106.068771 
	C245.555283,108.255737 245.555283,109.985245 245.555283,112.254868 
	C250.954300,112.254868 256.074280,112.345390 261.189484,112.227943 
	C265.776215,112.122635 267.053864,114.322113 265.966675,118.985512 
	C262.829651,118.985512 259.707672,118.985512 255.637405,118.985909 
M402.231049,141.301117 
	C408.033325,141.301117 413.835571,141.301117 419.835052,141.301117 
	C419.835052,139.245071 419.835052,137.478943 419.835052,135.125031 
	C414.657410,135.125031 409.692627,135.246429 404.736298,135.093246 
	C398.979248,134.915314 397.279205,132.776550 397.943390,126.240326 
	C406.069794,126.240326 414.280243,126.240326 422.838013,126.240326 
	C422.652405,122.727142 423.206635,119.625229 422.187286,117.179039 
	C420.737579,113.700188 418.863739,109.433983 415.892761,107.719948 
	C402.975952,100.267838 390.121063,108.011978 390.088135,122.736572 
	C390.084045,124.569588 390.023285,126.408508 390.142181,128.234711 
	C390.657440,136.147476 393.574249,139.474976 402.231049,141.301117 
M246.581909,67.271538 
	C246.260452,69.725098 245.618240,72.186958 245.681519,74.630547 
	C245.832626,80.465866 248.283737,83.874481 253.176041,84.124069 
	C260.754120,84.510681 268.366486,84.226082 276.508942,84.226082 
	C276.508942,76.241714 276.521667,68.638268 276.497986,61.034927 
	C276.493347,59.542690 276.471252,58.031761 276.243439,56.562599 
	C275.648560,52.726322 273.450806,49.655636 269.648376,49.395458 
	C262.612244,48.914013 255.519623,49.257694 248.407959,49.257694 
	C248.407959,51.335339 248.407959,52.922760 248.407959,55.086315 
	C253.629669,55.086315 258.573273,55.041561 263.515656,55.098362 
	C268.917053,55.160442 269.687378,56.205132 268.501160,61.995853 
	C264.266693,61.995853 259.961060,62.020443 255.655853,61.988430 
	C251.907944,61.960567 248.778351,63.051994 246.581909,67.271538 
M353.922058,109.423866 
	C349.445953,115.035393 348.054596,129.465256 351.993927,135.425537 
	C353.499847,137.704025 356.357208,140.123093 358.887726,140.491196 
	C365.690247,141.480743 372.648621,141.398712 379.587585,141.744247 
	C379.587585,139.073074 379.587585,137.342850 379.587585,135.126038 
	C374.286072,135.126038 369.320526,135.258789 364.365173,135.090744 
	C358.802429,134.902130 357.106567,132.695038 357.637024,126.219276 
	C365.786621,126.219276 373.999817,126.219276 382.252747,126.219276 
	C382.252747,123.152946 382.399750,120.657501 382.222260,118.185341 
	C381.849731,112.996887 379.752563,108.647865 374.544006,106.985565 
	C367.686127,104.796883 360.801178,104.533188 353.922058,109.423866 
M222.521667,48.933258 
	C220.523972,48.935692 218.525803,48.911301 216.528656,48.945499 
	C210.105560,49.055485 206.922394,51.211872 206.068527,55.998814 
	C205.008774,61.939857 207.540421,66.126068 213.746140,68.154381 
	C217.691086,69.443787 221.849976,70.117287 225.719788,71.578468 
	C227.217896,72.144135 228.183212,74.120842 229.391235,75.454727 
	C227.878983,76.354500 226.402618,77.950356 224.848099,78.030525 
	C218.915680,78.336456 212.958099,78.154053 206.700867,78.154053 
	C206.700867,80.404190 206.700867,82.132233 206.700867,84.418182 
	C213.707642,84.418182 220.489166,84.482506 227.268860,84.398682 
	C233.131073,84.326187 235.998932,82.241608 236.873337,77.688309 
	C238.027481,71.678299 236.154068,68.185448 230.180511,66.108620 
	C225.948257,64.637184 221.453171,63.888268 217.292053,62.262341 
	C215.662491,61.625603 214.624527,59.474827 213.317123,58.013607 
	C214.962631,57.042789 216.559937,55.348293 218.262558,55.234882 
	C223.682785,54.873825 229.142181,55.101143 234.736725,55.101143 
	C234.736725,52.789658 234.736725,51.079292 234.736725,49.489246 
	C234.091034,49.249187 233.790237,49.043583 233.486206,49.038723 
	C230.158951,48.985500 226.831177,48.963623 222.521667,48.933258 
M287.286621,71.186478 
	C287.609528,79.610619 290.176453,83.624687 296.707184,84.104294 
	C303.626373,84.612442 310.611816,84.218414 317.778137,84.218414 
	C317.778137,72.418686 317.778137,60.883488 317.778137,49.338844 
	C315.403137,49.338844 313.363190,49.338844 310.666412,49.338844 
	C310.666412,59.106262 310.666412,68.479301 310.666412,78.149933 
	C307.854095,78.149933 305.704803,78.154030 303.555481,78.149200 
	C295.498322,78.131104 294.737091,77.380684 294.711487,69.280952 
	C294.690613,62.667118 294.707245,56.053158 294.707245,49.192375 
	C292.042145,49.192375 289.961060,49.192375 287.285980,49.192375 
	C287.285980,56.365074 287.285980,63.310215 287.286621,71.186478 
M224.539200,135.140732 
	C222.378067,135.104782 220.027954,135.582687 218.112610,134.878357 
	C216.430054,134.259644 214.127029,132.400162 214.016998,130.943710 
	C213.558273,124.871140 213.823914,118.743851 213.823914,112.112381 
	C219.927597,112.112381 225.494110,112.112381 231.088837,112.112381 
	C231.088837,109.809494 231.088837,108.048477 231.088837,105.770706 
	C225.211075,105.770706 219.634888,105.770706 213.582657,105.770706 
	C213.582657,101.992592 213.582657,98.731781 213.582657,95.353775 
	C211.005386,95.353775 208.928802,95.353775 206.659927,95.353775 
	C206.659927,108.060600 206.527054,120.496361 206.736740,132.926346 
	C206.804153,136.922073 209.188461,140.374146 213.215530,140.733948 
	C219.702957,141.313553 226.280029,140.889603 233.133698,140.889603 
	C233.043442,138.967331 232.962234,137.237381 232.863815,135.140854 
	C230.092316,135.140854 227.790665,135.140854 224.539200,135.140732 
M453.444092,178.947540 
	C450.670990,178.947540 447.897888,178.947540 444.672821,178.947540 
	C444.672821,175.202713 444.791107,172.066086 444.599213,168.948532 
	C444.543182,168.038193 443.603210,167.182266 443.068329,166.301392 
	C442.396973,167.197601 441.217010,168.055771 441.146637,168.996933 
	C440.905701,172.219070 441.054230,175.470337 441.054230,178.581390 
	C436.314728,178.581390 432.410065,178.581390 428.076263,178.581390 
	C428.076263,175.262848 428.221954,172.289520 427.997955,169.344315 
	C427.918640,168.301926 426.937866,167.328094 426.368683,166.322952 
	C425.762146,167.287750 424.690826,168.225220 424.632263,169.222198 
	C424.418030,172.868134 424.913452,176.589279 424.380707,180.168869 
	C424.113495,181.964249 422.230713,183.533875 421.028076,185.168427 
	C420.509583,185.873123 419.863129,186.483643 419.274811,187.136948 
	C420.155670,187.636810 421.243988,188.739731 421.877838,188.521652 
	C423.667084,187.906067 426.214081,187.120377 426.761353,185.731476 
	C428.159943,182.181824 430.671936,182.360870 433.548370,182.381866 
	C442.644226,182.448334 451.740906,182.406403 461.333893,182.406403 
	C461.333893,177.598083 461.452332,173.311996 461.241669,169.042175 
	C461.195190,168.100403 459.982391,167.216187 459.306702,166.305450 
	C458.785034,167.181808 457.899902,168.023788 457.813171,168.941254 
	C457.595001,171.248825 458.105438,173.676743 457.588226,175.884064 
	C457.306702,177.085602 455.525757,177.935806 453.444092,178.947540 
M326.126953,137.179077 
	C326.465088,142.129929 327.271759,142.519638 333.654236,140.531937 
	C333.654236,133.497833 333.621887,126.349144 333.666260,119.200935 
	C333.693329,114.843666 335.678284,112.279137 340.318451,112.278915 
	C341.443817,112.278862 342.569183,112.122147 343.741486,112.033936 
	C343.741486,109.873047 343.741486,108.026245 343.741486,106.219666 
	C330.241791,105.246185 326.146484,108.956497 326.127441,121.751694 
	C326.120239,126.583916 326.126495,131.416153 326.126953,137.179077 
M236.806870,166.281555 
	C236.143692,170.350479 235.480515,174.419418 234.801163,178.587601 
	C231.027374,178.587601 227.297119,178.587601 223.037094,178.587601 
	C223.037094,174.194626 223.037094,170.123825 223.037094,165.780228 
	C219.529663,165.780228 216.538727,165.580231 213.584732,165.825363 
	C208.698776,166.230835 206.082062,169.251251 206.065491,174.076096 
	C206.049866,178.625351 208.542603,181.957306 213.166885,182.143356 
	C221.612930,182.483170 230.082428,182.240005 239.673080,182.240005 
	C238.961884,176.645615 238.302505,171.458817 236.806870,166.281555 
M385.784454,166.905777 
	C385.371948,167.783859 384.959442,168.661957 384.546967,169.540054 
	C385.397552,169.740921 386.268036,170.176224 387.095673,170.106140 
	C394.757843,169.457184 395.763245,170.540359 394.394409,178.923584 
	C391.073853,178.923584 387.629578,178.834198 384.197266,178.997223 
	C383.490997,179.030762 382.829529,180.006790 382.147430,180.548401 
	C382.734863,181.163223 383.316620,182.307724 383.910583,182.314087 
	C394.141113,182.423645 404.373169,182.392883 414.875671,182.392883 
	C414.875671,177.407059 414.966187,173.097961 414.800507,168.798737 
	C414.766724,167.922318 413.769836,167.082993 413.216888,166.226562 
	C412.529633,167.113007 411.320770,167.959717 411.249725,168.893082 
	C411.004181,172.118011 411.155121,175.373123 411.155121,178.622528 
	C406.604370,178.622528 402.851501,178.622528 399.146576,178.622528 
	C397.245728,166.341583 395.620941,164.835083 385.784454,166.905777 
M378.036743,57.556499 
	C378.036743,54.794296 378.036743,52.032093 378.036743,49.223434 
	C375.337433,49.223434 373.409943,49.223434 371.266266,49.223434 
	C371.266266,61.028320 371.266266,72.541908 371.266266,84.428551 
	C373.729492,84.319763 375.770477,84.229622 378.036774,84.129532 
	C378.036774,75.187920 378.036774,66.865692 378.036743,57.556499 
M260.289612,172.406982 
	C258.615936,166.617874 253.277695,164.197296 247.975815,166.929184 
	C247.265686,167.295090 246.882294,168.295090 246.347610,169.001480 
	C247.269135,169.376404 248.213181,170.122391 249.108643,170.068039 
	C256.833649,169.599121 258.188873,171.171310 256.128174,178.929642 
	C253.102448,178.929642 249.968597,178.813614 246.853226,179.002441 
	C245.952881,179.057022 245.105621,179.987442 244.234009,180.516327 
	C245.001511,181.142166 245.749634,182.279449 246.539749,182.309418 
	C251.100403,182.482422 255.670975,182.393814 260.387299,182.393814 
	C260.387299,178.842377 260.387299,176.034500 260.289612,172.406982 
M365.975769,174.405884 
	C365.976837,176.236893 365.796692,178.093994 366.054810,179.888000 
	C366.185608,180.796921 367.107605,181.591995 367.671906,182.438553 
	C368.377808,181.573608 369.668518,180.726273 369.695190,179.840881 
	C369.875427,173.853928 369.873108,167.856461 369.700531,161.869003 
	C369.673157,160.918518 368.489624,160.001373 367.840607,159.068832 
	C367.219391,160.028351 366.116852,160.961319 366.062164,161.952087 
	C365.851562,165.768967 365.976135,169.604355 365.975769,174.405884 
M230.205154,185.625778 
	C229.333832,186.133133 228.462494,186.640488 227.591156,187.147842 
	C228.256683,187.692017 228.894318,188.659103 229.592712,188.705200 
	C232.234558,188.879517 234.908432,188.889587 237.541656,188.648315 
	C238.203979,188.587616 238.759689,187.363251 240.284241,185.624680 
	C236.225937,185.624680 233.620636,185.624680 230.205154,185.625778 
M411.169983,185.622665 
	C408.512543,185.725357 405.855072,185.828049 403.197632,185.930740 
	C403.223816,186.881744 403.250031,187.832733 403.276215,188.783737 
	C406.372833,188.783737 409.474030,188.874954 412.562897,188.720367 
	C413.346619,188.681152 414.091248,187.859634 414.853821,187.397568 
	C413.904480,186.806000 412.955109,186.214417 411.169983,185.622665 
M221.114304,159.170441 
	C217.708344,159.279755 214.302368,159.389084 210.896408,159.498398 
	C210.951187,160.258759 211.005981,161.019119 211.060760,161.779480 
	C214.495834,161.779480 217.932205,161.814850 221.362671,161.689056 
	C221.562439,161.681732 221.714340,160.368851 221.114304,159.170441 
M450.153595,159.641830 
	C451.338013,162.711334 457.524017,163.177139 461.215515,159.151855 
	C457.786438,159.151855 454.357391,159.151855 450.153595,159.641830 
z"/>
<path fill="#262E95" opacity="1.000000" stroke="none" 
	d="
M37.923527,85.024376 
	C31.642796,77.264343 31.490623,69.122185 34.283890,61.287182 
	C42.358406,65.907104 50.154556,70.476318 58.054028,74.859299 
	C67.352547,80.018547 77.079941,84.488937 85.998428,90.226372 
	C95.724838,96.483543 101.131905,105.551010 99.128067,117.765564 
	C99.052094,118.228638 98.842461,118.669792 99.038139,118.070351 
	C86.844749,112.343719 74.385040,107.007607 62.435234,100.704750 
	C53.984882,96.247643 46.224941,90.481544 37.923527,85.024376 
z"/>
<path fill="#2F3799" opacity="1.000000" stroke="none" 
	d="
M507.801147,198.000031 
	C507.801147,221.122253 507.801147,243.744476 507.801147,266.738861 
	C506.106018,266.824371 504.732910,266.893646 503.113220,266.975342 
	C503.113220,181.938278 503.113220,97.233612 503.113220,12.122187 
	C504.511444,12.060181 505.884491,11.999291 507.801178,11.914294 
	C507.801178,74.020134 507.801178,135.760086 507.801147,198.000031 
z"/>
<path fill="#262E95" opacity="1.000000" stroke="none" 
	d="
M88.855103,120.804787 
	C92.139824,120.804756 94.949028,120.804756 97.775734,120.804756 
	C97.017929,129.856842 87.544533,139.904877 76.899490,140.667999 
	C63.226154,141.648224 49.429359,140.906342 35.396618,140.906342 
	C35.396618,134.390503 35.396618,127.856659 35.396618,120.804817 
	C53.242519,120.804817 70.811050,120.804817 88.855103,120.804787 
z"/>
<path fill="#252D94" opacity="1.000000" stroke="none" 
	d="
M126.946327,121.044945 
	C110.982124,118.695839 103.646881,109.873871 103.572906,93.623497 
	C103.521095,82.244804 102.940048,70.868523 102.589935,59.311928 
	C108.697617,59.311928 116.091454,59.311928 124.127701,59.311928 
	C124.127701,62.464062 124.127708,65.399437 124.127701,68.334816 
	C124.127686,79.638008 123.845764,90.951057 124.240974,102.240417 
	C124.453583,108.313675 125.827553,114.346291 126.787918,120.750877 
	C126.898331,121.104515 126.946327,121.044945 126.946327,121.044945 
z"/>
<path fill="#252D94" opacity="1.000000" stroke="none" 
	d="
M41.465538,49.482613 
	C61.753986,28.271437 92.465805,38.662781 100.022675,58.716064 
	C78.614464,58.716064 57.349270,58.716064 34.911350,58.716064 
	C37.316204,55.297665 39.269863,52.520618 41.465538,49.482613 
z"/>
<path fill="#3A419E" opacity="1.000000" stroke="none" 
	d="
M297.106018,176.917389 
	C297.853394,177.869293 298.573608,178.805298 299.309723,178.817978 
	C305.951447,178.932327 312.595978,178.884888 320.026611,178.884888 
	C320.026611,175.855301 319.881958,173.091141 320.117767,170.359848 
	C320.185516,169.575500 321.351807,168.886017 322.014404,168.153046 
	C322.555573,168.858551 323.510010,169.534210 323.563507,170.274933 
	C323.753998,172.912216 323.637939,175.571625 323.637939,178.569977 
	C326.566223,178.569977 329.125824,178.569977 332.403290,178.569977 
	C332.403290,175.844757 332.258209,173.231598 332.484100,170.650909 
	C332.560425,169.779221 333.576569,168.989792 334.163208,168.162750 
	C334.763000,168.979370 335.797363,169.754517 335.880035,170.620468 
	C336.115295,173.085190 335.962585,175.586899 335.962585,178.495239 
	C338.812195,178.495239 341.347015,178.495239 344.631683,178.495239 
	C344.631683,175.682465 344.447968,172.901642 344.708588,170.163116 
	C344.840393,168.778366 345.775635,167.470093 346.347595,166.127243 
	C346.970306,167.400909 347.998138,168.633698 348.131592,169.956726 
	C348.409973,172.716888 348.215820,175.524719 348.215820,178.612701 
	C351.586121,178.612701 354.490326,178.612701 358.065765,178.612701 
	C358.065765,173.033783 357.982300,167.593582 358.139435,162.160355 
	C358.169250,161.130829 359.153748,160.128937 359.697754,159.114319 
	C360.377167,160.006729 361.622589,160.884827 361.645569,161.793823 
	C361.813477,168.436172 361.736023,175.084702 361.736023,182.410812 
	C359.608856,182.410812 357.830750,182.410797 356.052673,182.410812 
	C333.387390,182.410828 310.722076,182.416916 288.056793,182.403198 
	C285.224213,182.401489 282.676910,182.128189 281.247742,185.766403 
	C280.193054,188.451279 270.156311,190.056808 267.825958,188.376602 
	C267.329468,188.018646 266.899811,186.638535 267.143738,186.370514 
	C267.705872,185.752991 268.686554,185.239822 269.522675,185.198730 
	C272.343384,185.060104 275.175110,185.145920 278.304474,184.039444 
	C271.616516,182.112854 263.673615,182.165146 265.749451,171.987381 
	C266.568756,167.970352 270.383362,165.803635 275.033356,166.251053 
	C280.310181,166.758774 281.894226,169.092651 283.090698,178.602142 
	C284.547455,178.702988 286.123047,178.856445 287.701965,178.909088 
	C289.344849,178.963882 290.990967,178.921310 292.932068,178.921310 
	C293.140961,177.546890 293.397125,176.464584 293.456970,175.371536 
	C293.900726,167.266647 302.914032,162.746353 309.804535,167.244293 
	C310.362854,167.608749 310.957794,168.615265 310.824921,169.145218 
	C310.690521,169.681183 309.665955,170.349365 309.042175,170.338425 
	C307.390839,170.309448 305.751770,169.821625 304.096436,169.735672 
	C298.280518,169.433762 297.256836,170.453949 297.106018,176.917389 
M270.650909,178.048248 
	C273.306213,178.408264 275.961517,178.768280 278.616852,179.128296 
	C279.043091,178.661362 279.469330,178.194443 279.895569,177.727509 
	C278.790619,175.257812 278.167999,172.308136 276.383362,170.514877 
	C275.449341,169.576355 271.468628,169.929413 270.665680,171.022614 
	C269.554535,172.535400 270.141449,175.295410 270.650909,178.048248 
z"/>
<path fill="#2D3498" opacity="1.000000" stroke="none" 
	d="
M359.304016,62.000290 
	C359.303833,69.624924 359.303833,76.749619 359.303833,84.139206 
	C352.383392,84.139206 345.939972,84.150764 339.496765,84.121536 
	C338.843811,84.118576 338.180786,83.909531 337.541382,83.729012 
	C330.265656,81.674858 327.051819,74.546242 328.141235,62.904942 
	C328.976959,53.974312 332.615662,49.719078 340.338684,49.104134 
	C343.959473,48.815823 347.622223,49.054771 351.755249,49.054771 
	C351.755249,45.412598 351.755249,42.166904 351.755249,38.528465 
	C354.442749,38.528465 356.649323,38.528465 359.304199,38.528465 
	C359.304199,46.214600 359.304199,53.857475 359.304016,62.000290 
M350.313721,78.154762 
	C350.855896,77.653786 351.862732,77.159622 351.870209,76.650795 
	C351.973785,69.596596 351.940277,62.540382 351.940277,55.153645 
	C349.010559,55.153645 346.714630,55.105324 344.421356,55.163090 
	C338.524963,55.311626 336.342255,57.324276 335.726837,63.093887 
	C334.354950,75.954582 336.385010,78.201637 350.313721,78.154762 
z"/>
<path fill="#2E3698" opacity="1.000000" stroke="none" 
	d="
M461.279816,114.002075 
	C461.279572,123.275558 461.279572,132.049515 461.279572,141.045868 
	C454.086487,141.045868 447.265076,141.697433 440.624786,140.879150 
	C432.523865,139.880859 429.303772,133.022690 430.027161,120.689240 
	C430.579468,111.272675 434.328552,106.737946 442.433350,106.108559 
	C446.038147,105.828629 449.682739,106.061279 453.786377,106.061279 
	C453.786377,102.348740 453.786377,99.106033 453.786377,95.483612 
	C456.451569,95.483612 458.643524,95.483612 461.280060,95.483612 
	C461.280060,101.578003 461.280060,107.540276 461.279816,114.002075 
M448.574127,112.173820 
	C444.569122,112.190559 439.962463,111.682487 438.450592,116.499863 
	C436.694458,122.095421 435.668793,128.491364 439.760193,133.179779 
	C443.345001,137.287659 448.952759,134.798828 453.678925,134.989395 
	C453.678925,127.092377 453.678925,119.863083 453.678925,112.409187 
	C452.071503,112.319298 450.771790,112.246620 448.574127,112.173820 
z"/>
<path fill="#2C3397" opacity="1.000000" stroke="none" 
	d="
M316.087219,126.744614 
	C314.714325,137.787781 310.733765,141.358902 300.081024,141.463196 
	C295.286133,141.510147 290.490356,141.471146 285.325623,141.471146 
	C285.325623,125.923683 285.325623,110.774765 285.325623,95.365379 
	C287.423218,95.365379 289.362213,95.365379 291.958130,95.365379 
	C291.958130,98.591248 291.958130,101.958008 291.958130,105.493111 
	C299.444824,106.937866 308.247375,103.368805 312.751190,110.635818 
	C315.397888,114.906273 315.088257,121.008965 316.087219,126.744614 
M308.803894,122.697983 
	C308.133850,112.733864 303.029968,109.730675 292.416809,113.017220 
	C292.416809,120.259583 292.416809,127.485474 292.416809,135.181320 
	C295.612305,135.181320 298.551178,135.142197 301.488617,135.190659 
	C305.730499,135.260635 307.913879,133.045044 308.415649,129.001556 
	C308.638977,127.201767 308.681488,125.379524 308.803894,122.697983 
z"/>
<path fill="#303899" opacity="1.000000" stroke="none" 
	d="
M256.111542,118.985710 
	C259.707672,118.985512 262.829651,118.985512 265.966675,118.985512 
	C267.053864,114.322113 265.776215,112.122635 261.189484,112.227943 
	C256.074280,112.345390 250.954300,112.254868 245.555283,112.254868 
	C245.555283,109.985245 245.555283,108.255737 245.555283,106.068771 
	C252.417892,106.068771 259.032654,105.807617 265.615143,106.156044 
	C270.398956,106.409271 273.433319,109.728111 273.587708,114.811531 
	C273.849609,123.433990 273.659698,132.070175 273.659698,141.043503 
	C265.509003,141.043503 257.573273,141.510208 249.727310,140.872650 
	C244.833618,140.475006 242.441467,135.556427 242.770569,129.239960 
	C243.065262,123.583916 245.811325,120.011650 250.664520,119.210518 
	C252.290222,118.942162 253.977997,119.050018 256.111542,118.985710 
M262.222473,125.148865 
	C259.411346,125.158852 256.598938,125.118690 253.789490,125.192055 
	C250.577957,125.275925 249.597641,127.311378 249.614258,130.166733 
	C249.630463,132.948410 250.373093,135.143494 253.700027,135.172546 
	C257.800262,135.208344 261.901062,135.181091 266.610443,135.181091 
	C266.610443,132.652100 266.491730,130.537430 266.640289,128.441711 
	C266.828796,125.782829 265.641022,124.822365 262.222473,125.148865 
z"/>
<path fill="#2F3799" opacity="1.000000" stroke="none" 
	d="
M401.810547,141.241547 
	C393.574249,139.474976 390.657440,136.147476 390.142181,128.234711 
	C390.023285,126.408508 390.084045,124.569588 390.088135,122.736572 
	C390.121063,108.011978 402.975952,100.267838 415.892761,107.719948 
	C418.863739,109.433983 420.737579,113.700188 422.187286,117.179039 
	C423.206635,119.625229 422.652405,122.727142 422.838013,126.240326 
	C414.280243,126.240326 406.069794,126.240326 397.943390,126.240326 
	C397.279205,132.776550 398.979248,134.915314 404.736298,135.093246 
	C409.692627,135.246429 414.657410,135.125031 419.835052,135.125031 
	C419.835052,137.478943 419.835052,139.245071 419.835052,141.301117 
	C413.835571,141.301117 408.033325,141.301117 401.810547,141.241547 
M402.702393,120.149223 
	C406.758240,120.149223 410.814087,120.149223 414.895264,120.149223 
	C414.517303,113.680328 412.488922,111.864113 406.344177,111.817513 
	C400.044128,111.769730 397.851837,113.688629 397.394196,119.945213 
	C398.857727,120.013474 400.313934,120.081398 402.702393,120.149223 
z"/>
<path fill="#2E3598" opacity="1.000000" stroke="none" 
	d="
M246.740799,66.919693 
	C248.778351,63.051994 251.907944,61.960567 255.655853,61.988430 
	C259.961060,62.020443 264.266693,61.995853 268.501160,61.995853 
	C269.687378,56.205132 268.917053,55.160442 263.515656,55.098362 
	C258.573273,55.041561 253.629669,55.086315 248.407959,55.086315 
	C248.407959,52.922760 248.407959,51.335339 248.407959,49.257694 
	C255.519623,49.257694 262.612244,48.914013 269.648376,49.395458 
	C273.450806,49.655636 275.648560,52.726322 276.243439,56.562599 
	C276.471252,58.031761 276.493347,59.542690 276.497986,61.034927 
	C276.521667,68.638268 276.508942,76.241714 276.508942,84.226082 
	C268.366486,84.226082 260.754120,84.510681 253.176041,84.124069 
	C248.283737,83.874481 245.832626,80.465866 245.681519,74.630547 
	C245.618240,72.186958 246.260452,69.725098 246.740799,66.919693 
M261.603302,68.161438 
	C259.776611,68.175797 257.578583,67.561676 256.218231,68.365379 
	C254.559769,69.345207 252.630508,71.511459 252.621216,73.174629 
	C252.611984,74.832306 254.643784,77.706078 256.113403,77.937958 
	C260.265808,78.593102 264.588776,78.167114 268.889526,78.167114 
	C268.889526,74.502419 268.889526,71.489655 268.889526,68.161461 
	C266.485168,68.161461 264.510834,68.161461 261.603302,68.161438 
z"/>
<path fill="#2D3498" opacity="1.000000" stroke="none" 
	d="
M354.200073,109.175476 
	C360.801178,104.533188 367.686127,104.796883 374.544006,106.985565 
	C379.752563,108.647865 381.849731,112.996887 382.222260,118.185341 
	C382.399750,120.657501 382.252747,123.152946 382.252747,126.219276 
	C373.999817,126.219276 365.786621,126.219276 357.637024,126.219276 
	C357.106567,132.695038 358.802429,134.902130 364.365173,135.090744 
	C369.320526,135.258789 374.286072,135.126038 379.587585,135.126038 
	C379.587585,137.342850 379.587585,139.073074 379.587585,141.744247 
	C372.648621,141.398712 365.690247,141.480743 358.887726,140.491196 
	C356.357208,140.123093 353.499847,137.704025 351.993927,135.425537 
	C348.054596,129.465256 349.445953,115.035393 354.200073,109.175476 
M374.925415,118.783249 
	C373.777832,112.932610 370.882324,111.100182 363.999908,111.868950 
	C359.105927,112.415619 357.398743,114.460632 357.415588,120.372902 
	C363.179810,120.120209 368.936432,119.867844 374.925415,118.783249 
z"/>
<path fill="#303899" opacity="1.000000" stroke="none" 
	d="
M223.012604,48.933243 
	C226.831177,48.963623 230.158951,48.985500 233.486206,49.038723 
	C233.790237,49.043583 234.091034,49.249187 234.736725,49.489246 
	C234.736725,51.079292 234.736725,52.789658 234.736725,55.101143 
	C229.142181,55.101143 223.682785,54.873825 218.262558,55.234882 
	C216.559937,55.348293 214.962631,57.042789 213.317123,58.013603 
	C214.624527,59.474827 215.662491,61.625603 217.292053,62.262341 
	C221.453171,63.888268 225.948257,64.637184 230.180511,66.108620 
	C236.154068,68.185448 238.027481,71.678299 236.873337,77.688309 
	C235.998932,82.241608 233.131073,84.326187 227.268860,84.398682 
	C220.489166,84.482506 213.707642,84.418182 206.700867,84.418182 
	C206.700867,82.132233 206.700867,80.404190 206.700867,78.154053 
	C212.958099,78.154053 218.915680,78.336456 224.848099,78.030525 
	C226.402618,77.950356 227.878983,76.354500 229.391235,75.454727 
	C228.183212,74.120842 227.217896,72.144135 225.719788,71.578468 
	C221.849976,70.117287 217.691086,69.443787 213.746140,68.154381 
	C207.540421,66.126068 205.008774,61.939857 206.068527,55.998814 
	C206.922394,51.211872 210.105560,49.055485 216.528656,48.945499 
	C218.525803,48.911301 220.523972,48.935692 223.012604,48.933243 
z"/>
<path fill="#252D94" opacity="1.000000" stroke="none" 
	d="
M126.871185,121.131454 
	C139.438614,121.158401 152.033188,121.158401 164.924316,121.158401 
	C164.924316,127.830040 164.924316,134.392136 164.924316,140.927734 
	C145.965759,143.902649 133.188690,137.351730 127.068283,121.374985 
	C126.946327,121.044945 126.898331,121.104515 126.871185,121.131454 
z"/>
<path fill="#32399A" opacity="1.000000" stroke="none" 
	d="
M287.286316,70.720917 
	C287.285980,63.310215 287.285980,56.365074 287.285980,49.192375 
	C289.961060,49.192375 292.042145,49.192375 294.707245,49.192375 
	C294.707245,56.053158 294.690613,62.667118 294.711487,69.280952 
	C294.737091,77.380684 295.498322,78.131104 303.555481,78.149200 
	C305.704803,78.154030 307.854095,78.149933 310.666412,78.149933 
	C310.666412,68.479301 310.666412,59.106262 310.666412,49.338844 
	C313.363190,49.338844 315.403137,49.338844 317.778137,49.338844 
	C317.778137,60.883488 317.778137,72.418686 317.778137,84.218414 
	C310.611816,84.218414 303.626373,84.612442 296.707184,84.104294 
	C290.176453,83.624687 287.609528,79.610619 287.286316,70.720917 
z"/>
<path fill="#363D9C" opacity="1.000000" stroke="none" 
	d="
M225.014099,135.140793 
	C227.790665,135.140854 230.092316,135.140854 232.863815,135.140854 
	C232.962234,137.237381 233.043442,138.967331 233.133698,140.889603 
	C226.280029,140.889603 219.702957,141.313553 213.215530,140.733948 
	C209.188461,140.374146 206.804153,136.922073 206.736740,132.926346 
	C206.527054,120.496361 206.659927,108.060600 206.659927,95.353775 
	C208.928802,95.353775 211.005386,95.353775 213.582657,95.353775 
	C213.582657,98.731781 213.582657,101.992592 213.582657,105.770706 
	C219.634888,105.770706 225.211075,105.770706 231.088837,105.770706 
	C231.088837,108.048477 231.088837,109.809494 231.088837,112.112381 
	C225.494110,112.112381 219.927597,112.112381 213.823914,112.112381 
	C213.823914,118.743851 213.558273,124.871140 214.016998,130.943710 
	C214.127029,132.400162 216.430054,134.259644 218.112610,134.878357 
	C220.027954,135.582687 222.378067,135.104782 225.014099,135.140793 
z"/>
<path fill="#49D9C8" opacity="1.000000" stroke="none" 
	d="
M126.979919,49.033859 
	C138.403595,49.033859 149.827286,49.033859 161.862427,49.033859 
	C161.862427,55.282463 162.037979,61.063351 161.697815,66.813736 
	C161.637802,67.827934 159.480057,69.447449 158.194077,69.548088 
	C143.634995,70.687576 132.427856,63.412518 127.084579,49.339622 
	C127.006737,48.998489 126.979919,49.033859 126.979919,49.033859 
z"/>
<path fill="#49D9C8" opacity="1.000000" stroke="none" 
	d="
M127.023689,48.984009 
	C112.330605,48.171928 101.999474,36.210594 103.504913,21.434408 
	C103.629868,20.207920 105.394485,18.239136 106.490173,18.173838 
	C112.080719,17.840652 117.701813,18.019962 122.831238,18.019962 
	C124.192436,28.463476 125.484558,38.376984 126.878296,48.662174 
	C126.979919,49.033859 127.006737,48.998489 127.023689,48.984009 
z"/>
<path fill="#39409E" opacity="1.000000" stroke="none" 
	d="
M453.932587,178.946014 
	C455.525757,177.935806 457.306702,177.085602 457.588226,175.884064 
	C458.105438,173.676743 457.595001,171.248825 457.813171,168.941254 
	C457.899902,168.023788 458.785034,167.181808 459.306702,166.305450 
	C459.982391,167.216187 461.195190,168.100403 461.241669,169.042175 
	C461.452332,173.311996 461.333893,177.598083 461.333893,182.406403 
	C451.740906,182.406403 442.644226,182.448334 433.548370,182.381866 
	C430.671936,182.360870 428.159943,182.181824 426.761353,185.731476 
	C426.214081,187.120377 423.667084,187.906067 421.877838,188.521652 
	C421.243988,188.739731 420.155670,187.636810 419.274811,187.136948 
	C419.863129,186.483643 420.509583,185.873123 421.028076,185.168427 
	C422.230713,183.533875 424.113495,181.964249 424.380707,180.168869 
	C424.913452,176.589279 424.418030,172.868134 424.632263,169.222198 
	C424.690826,168.225220 425.762146,167.287750 426.368683,166.322952 
	C426.937866,167.328094 427.918640,168.301926 427.997955,169.344315 
	C428.221954,172.289520 428.076263,175.262848 428.076263,178.581390 
	C432.410065,178.581390 436.314728,178.581390 441.054230,178.581390 
	C441.054230,175.470337 440.905701,172.219070 441.146637,168.996933 
	C441.217010,168.055771 442.396973,167.197601 443.068359,166.301392 
	C443.603210,167.182266 444.543182,168.038193 444.599213,168.948532 
	C444.791107,172.066086 444.672821,175.202713 444.672821,178.947540 
	C447.897888,178.947540 450.670990,178.947540 453.932587,178.946014 
z"/>
<path fill="#363D9C" opacity="1.000000" stroke="none" 
	d="
M326.126770,136.713730 
	C326.126495,131.416153 326.120239,126.583916 326.127441,121.751694 
	C326.146484,108.956497 330.241791,105.246185 343.741486,106.219666 
	C343.741486,108.026245 343.741486,109.873047 343.741486,112.033936 
	C342.569183,112.122147 341.443817,112.278862 340.318451,112.278915 
	C335.678284,112.279137 333.693329,114.843666 333.666260,119.200935 
	C333.621887,126.349144 333.654236,133.497833 333.654236,140.531937 
	C327.271759,142.519638 326.465088,142.129929 326.126770,136.713730 
z"/>
<path fill="#39409E" opacity="1.000000" stroke="none" 
	d="
M237.224991,166.276779 
	C238.302505,171.458817 238.961884,176.645615 239.673080,182.240005 
	C230.082428,182.240005 221.612930,182.483170 213.166885,182.143356 
	C208.542603,181.957306 206.049866,178.625351 206.065491,174.076096 
	C206.082062,169.251251 208.698776,166.230835 213.584732,165.825363 
	C216.538727,165.580231 219.529663,165.780228 223.037094,165.780228 
	C223.037094,170.123825 223.037094,174.194626 223.037094,178.587601 
	C227.297119,178.587601 231.027374,178.587601 234.801163,178.587601 
	C235.480515,174.419418 236.143692,170.350479 237.224991,166.276779 
M219.674637,176.107605 
	C219.674637,173.812912 219.674637,171.518234 219.674637,169.066849 
	C215.730804,168.730469 211.731720,167.461624 210.214844,171.800781 
	C209.602051,173.553787 210.630585,177.176025 212.063980,178.042709 
	C214.170135,179.316208 217.634949,180.795822 219.674637,176.107605 
z"/>
<path fill="#3F46A0" opacity="1.000000" stroke="none" 
	d="
M386.158905,166.795212 
	C395.620941,164.835083 397.245728,166.341583 399.146576,178.622528 
	C402.851501,178.622528 406.604370,178.622528 411.155121,178.622528 
	C411.155121,175.373123 411.004181,172.118011 411.249725,168.893082 
	C411.320770,167.959717 412.529633,167.113007 413.216888,166.226562 
	C413.769836,167.082993 414.766724,167.922318 414.800507,168.798737 
	C414.966187,173.097961 414.875671,177.407059 414.875671,182.392883 
	C404.373169,182.392883 394.141113,182.423645 383.910583,182.314087 
	C383.316620,182.307724 382.734863,181.163223 382.147430,180.548401 
	C382.829529,180.006790 383.490997,179.030762 384.197266,178.997223 
	C387.629578,178.834198 391.073853,178.923584 394.394409,178.923584 
	C395.763245,170.540359 394.757843,169.457184 387.095673,170.106140 
	C386.268036,170.176224 385.397552,169.740921 384.546936,169.540054 
	C384.959442,168.661957 385.371948,167.783859 386.158905,166.795212 
z"/>
<path fill="#303899" opacity="1.000000" stroke="none" 
	d="
M378.036743,58.049980 
	C378.036774,66.865692 378.036774,75.187920 378.036774,84.129532 
	C375.770477,84.229622 373.729492,84.319763 371.266266,84.428551 
	C371.266266,72.541908 371.266266,61.028320 371.266266,49.223434 
	C373.409943,49.223434 375.337433,49.223434 378.036743,49.223434 
	C378.036743,52.032093 378.036743,54.794296 378.036743,58.049980 
z"/>
<path fill="#39409E" opacity="1.000000" stroke="none" 
	d="
M260.338440,172.816803 
	C260.387299,176.034500 260.387299,178.842377 260.387299,182.393814 
	C255.670975,182.393814 251.100403,182.482422 246.539749,182.309418 
	C245.749634,182.279449 245.001511,181.142166 244.234009,180.516327 
	C245.105621,179.987442 245.952881,179.057022 246.853226,179.002441 
	C249.968597,178.813614 253.102448,178.929642 256.128174,178.929642 
	C258.188873,171.171310 256.833649,169.599121 249.108643,170.068039 
	C248.213181,170.122391 247.269135,169.376404 246.347595,169.001465 
	C246.882294,168.295090 247.265686,167.295090 247.975815,166.929184 
	C253.277695,164.197296 258.615936,166.617874 260.338440,172.816803 
z"/>
<path fill="#4F56A9" opacity="1.000000" stroke="none" 
	d="
M365.975769,173.919357 
	C365.976135,169.604355 365.851562,165.768967 366.062164,161.952087 
	C366.116852,160.961319 367.219391,160.028351 367.840607,159.068817 
	C368.489624,160.001373 369.673157,160.918518 369.700531,161.869003 
	C369.873108,167.856461 369.875427,173.853928 369.695190,179.840881 
	C369.668518,180.726273 368.377808,181.573608 367.671936,182.438538 
	C367.107605,181.591995 366.185608,180.796921 366.054810,179.888000 
	C365.796692,178.093994 365.976837,176.236893 365.975769,173.919357 
z"/>
<path fill="#252D94" opacity="1.000000" stroke="none" 
	d="
M372.081573,38.344425 
	C373.855377,38.344425 375.629150,38.344425 377.717041,38.344425 
	C377.717041,40.734283 377.717041,42.950302 377.717041,45.568047 
	C375.178802,45.137295 371.478058,48.508926 371.228149,42.204441 
	C371.734070,40.504059 371.907806,39.424240 372.081573,38.344425 
z"/>
<path fill="#4F56A9" opacity="1.000000" stroke="none" 
	d="
M230.610245,185.625229 
	C233.620636,185.624680 236.225937,185.624680 240.284241,185.624680 
	C238.759689,187.363251 238.203979,188.587616 237.541656,188.648315 
	C234.908432,188.889587 232.234558,188.879517 229.592712,188.705200 
	C228.894318,188.659103 228.256683,187.692017 227.591156,187.147858 
	C228.462494,186.640488 229.333832,186.133133 230.610245,185.625229 
z"/>
<path fill="#4F56A9" opacity="1.000000" stroke="none" 
	d="
M411.587860,185.622742 
	C412.955109,186.214417 413.904480,186.806000 414.853821,187.397583 
	C414.091248,187.859634 413.346619,188.681152 412.562897,188.720367 
	C409.474030,188.874954 406.372833,188.783737 403.276215,188.783737 
	C403.250031,187.832733 403.223816,186.881744 403.197632,185.930740 
	C405.855072,185.828049 408.512543,185.725357 411.587860,185.622742 
z"/>
<path fill="#3F46A0" opacity="1.000000" stroke="none" 
	d="
M221.501404,159.416992 
	C221.714340,160.368851 221.562439,161.681732 221.362671,161.689056 
	C217.932205,161.814850 214.495834,161.779480 211.060760,161.779480 
	C211.005981,161.019119 210.951187,160.258759 210.896408,159.498398 
	C214.302368,159.389084 217.708344,159.279755 221.501404,159.416992 
z"/>
<path fill="#3F46A0" opacity="1.000000" stroke="none" 
	d="
M450.540955,159.396851 
	C454.357391,159.151855 457.786438,159.151855 461.215515,159.151855 
	C457.524017,163.177139 451.338013,162.711334 450.540955,159.396851 
z"/>
<path fill="#4F56A9" opacity="1.000000" stroke="none" 
	d="
M371.780396,38.307076 
	C371.907806,39.424240 371.734070,40.504059 371.302185,41.786301 
	C371.189087,40.749058 371.334167,39.509388 371.780396,38.307076 
z"/>
<path fill="#EFF0F7" opacity="1.000000" stroke="none" 
	d="
M270.326050,177.784790 
	C270.141449,175.295410 269.554535,172.535400 270.665680,171.022614 
	C271.468628,169.929413 275.449341,169.576355 276.383362,170.514877 
	C278.167999,172.308136 278.790619,175.257812 279.895569,177.727509 
	C279.469330,178.194443 279.043091,178.661362 278.616852,179.128296 
	C275.961517,178.768280 273.306213,178.408264 270.326050,177.784790 
z"/>
<path fill="#F8F9FC" opacity="1.000000" stroke="none" 
	d="
M349.839600,78.172668 
	C336.385010,78.201637 334.354950,75.954582 335.726837,63.093887 
	C336.342255,57.324276 338.524963,55.311626 344.421356,55.163090 
	C346.714630,55.105324 349.010559,55.153645 351.940277,55.153645 
	C351.940277,62.540382 351.973785,69.596596 351.870209,76.650795 
	C351.862732,77.159622 350.855896,77.653786 349.839600,78.172668 
z"/>
<path fill="#F6F6FA" opacity="1.000000" stroke="none" 
	d="
M449.023132,112.173882 
	C450.771790,112.246620 452.071503,112.319298 453.678925,112.409187 
	C453.678925,119.863083 453.678925,127.092377 453.678925,134.989395 
	C448.952759,134.798828 443.345001,137.287659 439.760193,133.179779 
	C435.668793,128.491364 436.694458,122.095421 438.450592,116.499863 
	C439.962463,111.682487 444.569122,112.190559 449.023132,112.173882 
z"/>
<path fill="#F4F4FA" opacity="1.000000" stroke="none" 
	d="
M308.804993,123.132729 
	C308.681488,125.379524 308.638977,127.201767 308.415649,129.001556 
	C307.913879,133.045044 305.730499,135.260635 301.488617,135.190659 
	C298.551178,135.142197 295.612305,135.181320 292.416809,135.181320 
	C292.416809,127.485474 292.416809,120.259583 292.416809,113.017220 
	C303.029968,109.730675 308.133850,112.733864 308.804993,123.132729 
z"/>
<path fill="#EFF0F7" opacity="1.000000" stroke="none" 
	d="
M262.678589,125.149055 
	C265.641022,124.822365 266.828796,125.782829 266.640289,128.441711 
	C266.491730,130.537430 266.610443,132.652100 266.610443,135.181091 
	C261.901062,135.181091 257.800262,135.208344 253.700027,135.172546 
	C250.373093,135.143494 249.630463,132.948410 249.614258,130.166733 
	C249.597641,127.311378 250.577957,125.275925 253.789490,125.192055 
	C256.598938,125.118690 259.411346,125.158852 262.678589,125.149055 
z"/>
<path fill="#F4F4FA" opacity="1.000000" stroke="none" 
	d="
M402.236267,120.149269 
	C400.313934,120.081398 398.857727,120.013474 397.394196,119.945213 
	C397.851837,113.688629 400.044128,111.769730 406.344177,111.817513 
	C412.488922,111.864113 414.517303,113.680328 414.895264,120.149223 
	C410.814087,120.149223 406.758240,120.149223 402.236267,120.149269 
z"/>
<path fill="#F1F2F8" opacity="1.000000" stroke="none" 
	d="
M262.069885,68.161453 
	C264.510834,68.161461 266.485168,68.161461 268.889526,68.161461 
	C268.889526,71.489655 268.889526,74.502419 268.889526,78.167114 
	C264.588776,78.167114 260.265808,78.593102 256.113403,77.937958 
	C254.643784,77.706078 252.611984,74.832306 252.621216,73.174629 
	C252.630508,71.511459 254.559769,69.345207 256.218231,68.365379 
	C257.578583,67.561676 259.776611,68.175797 262.069885,68.161453 
z"/>
<path fill="#F1F2F8" opacity="1.000000" stroke="none" 
	d="
M374.809235,119.199364 
	C368.936432,119.867844 363.179810,120.120209 357.415588,120.372902 
	C357.398743,114.460632 359.105927,112.415619 363.999908,111.868950 
	C370.882324,111.100182 373.777832,112.932610 374.809235,119.199364 
z"/>
<path fill="#EFF0F7" opacity="1.000000" stroke="none" 
	d="
M219.654984,176.544556 
	C217.634949,180.795822 214.170135,179.316208 212.063980,178.042709 
	C210.630585,177.176025 209.602051,173.553787 210.214844,171.800781 
	C211.731720,167.461624 215.730804,168.730469 219.674637,169.066849 
	C219.674637,171.518234 219.674637,173.812912 219.654984,176.544556 
z"/>
</svg>