<?xml version="1.0" standalone="no"?>
<!DOCTYPE svg PUBLIC "-//W3C//DTD SVG 20010904//EN"
 "http://www.w3.org/TR/2001/REC-SVG-20010904/DTD/svg10.dtd">
<svg version="1.0" xmlns="http://www.w3.org/2000/svg"
 width="1024.000000pt" height="380.000000pt" viewBox="0 0 1024.000000 380.000000"
 preserveAspectRatio="xMidYMid meet">

<g transform="translate(0.000000,380.000000) scale(0.100000,-0.100000)"
fill="#000000" stroke="none">
<path d="M7186 3204 c-16 -5 -18 -13 -12 -77 3 -40 8 -128 11 -196 2 -69 9
-127 14 -130 5 -3 12 -40 15 -81 7 -80 16 -99 36 -75 16 20 27 19 52 -5 30
-28 44 -13 16 17 -16 18 -19 27 -10 30 6 3 12 11 12 18 0 14 21 25 49 25 28 0
54 -36 49 -65 -4 -16 -1 -25 8 -25 19 0 28 -20 15 -33 -22 -22 -13 -47 17 -46
26 0 26 1 5 9 -23 9 -22 42 0 37 7 -1 11 7 9 18 -2 16 -1 17 7 5 6 -8 8 -24 5
-35 -5 -18 -4 -18 11 3 9 12 22 22 28 22 7 0 6 -4 -3 -10 -8 -5 -10 -10 -5
-10 6 0 3 -5 -5 -11 -12 -9 -11 -10 8 -6 23 5 31 -8 10 -16 -8 -3 -6 -6 4 -6
10 -1 22 -10 28 -21 6 -11 18 -19 28 -19 16 1 16 2 0 6 -10 2 -18 8 -18 13 0
20 13 40 27 40 10 0 12 6 8 20 -7 21 8 25 53 14 25 -7 30 -24 7 -24 -8 0 -15
-5 -15 -11 0 -8 -5 -8 -15 1 -18 15 -19 3 -3 -32 7 -15 23 -29 35 -31 12 -2
20 -1 18 4 -8 12 6 39 20 39 7 0 16 7 19 16 5 12 13 14 33 9 24 -6 25 -5 12
11 -9 11 -9 15 -1 10 8 -5 12 1 12 19 0 21 4 26 16 21 9 -3 22 -6 30 -6 8 0
14 -5 14 -11 0 -5 -4 -8 -9 -5 -13 9 -41 -4 -41 -19 0 -6 9 -20 20 -30 11 -10
20 -25 20 -34 0 -12 -3 -12 -12 -3 -16 16 -25 15 -32 -3 -3 -8 -2 -14 2 -14
21 3 31 -3 26 -16 -4 -8 -10 -13 -14 -10 -5 3 -10 2 -12 -3 -1 -4 -16 -18 -33
-31 -16 -13 -22 -21 -12 -18 11 4 17 1 17 -8 0 -7 7 -21 16 -29 8 -9 18 -41
21 -71 6 -57 11 -61 63 -56 10 1 6 -5 -8 -17 -17 -13 -22 -26 -19 -43 4 -23 4
-23 6 4 1 24 5 27 35 27 39 0 59 -19 54 -52 -4 -29 -46 -41 -70 -20 -29 25
-20 1 10 -28 22 -21 27 -32 21 -48 -11 -28 1 -34 35 -16 36 18 60 18 76 -1 11
-13 14 -13 26 2 13 17 14 17 7 -1 -5 -15 -3 -18 10 -13 19 7 67 -13 67 -29 0
-6 9 -19 19 -28 15 -13 20 -14 24 -4 4 10 6 10 6 1 1 -7 10 -13 21 -13 13 0
20 -7 20 -20 0 -13 7 -20 20 -20 13 0 20 -7 20 -20 0 -13 7 -20 20 -20 17 0
20 -7 20 -41 0 -40 1 -41 27 -34 23 5 25 4 14 -9 -12 -14 -10 -15 18 -10 25 5
35 1 58 -23 16 -17 43 -38 61 -47 25 -13 32 -23 32 -47 0 -22 -5 -32 -20 -36
-11 -3 -17 -9 -14 -14 5 -9 -8 -13 -38 -10 -9 1 -19 -2 -22 -8 -3 -5 2 -7 11
-5 10 3 30 -6 44 -20 15 -14 30 -22 33 -19 3 4 6 1 6 -5 0 -7 -7 -12 -15 -12
-19 0 -19 -11 1 -36 9 -12 14 -13 11 -4 -2 8 8 25 21 37 26 24 37 30 28 14 -3
-5 1 -14 9 -21 34 -28 2 -65 -33 -39 -15 13 -16 12 -3 -3 7 -10 22 -18 32 -18
24 0 59 -68 59 -115 0 -29 4 -35 21 -35 19 0 21 -5 17 -62 -3 -55 0 -65 19
-81 12 -9 24 -34 28 -57 4 -25 12 -40 21 -40 8 0 14 -10 15 -22 0 -13 1 -57 2
-98 2 -69 4 -75 24 -78 16 -2 20 -8 15 -20 -3 -9 6 -4 22 13 l27 29 30 -32
c17 -18 34 -32 40 -32 5 0 9 -4 9 -10 0 -5 -6 -10 -14 -10 -8 0 -16 -10 -20
-23 -3 -14 -13 -24 -23 -24 -23 0 -44 27 -37 47 4 11 2 12 -6 4 -8 -8 -6 -20
9 -45 12 -19 24 -34 28 -35 5 0 26 -5 48 -12 22 -6 90 -15 150 -18 77 -5 101
-10 80 -15 l-30 -7 32 -1 c17 0 35 4 38 9 8 13 55 13 55 0 0 -5 12 -10 26 -10
23 0 25 2 14 15 -11 13 -10 14 4 9 9 -3 16 -10 16 -15 0 -5 85 -9 190 -9 l190
0 1 378 c3 682 -1 824 -19 846 -16 18 -16 19 2 13 16 -6 18 -3 12 25 -3 18
-10 80 -15 138 -6 58 -13 133 -17 166 l-7 62 -48 6 c-33 5 -49 11 -49 21 0 8
-4 15 -10 15 -5 0 -10 9 -10 20 0 17 -7 20 -40 20 -22 0 -40 4 -40 8 0 5 -13
9 -29 9 -20 0 -27 -4 -24 -13 13 -35 -62 -59 -87 -29 -10 12 -10 15 0 15 13 0
39 28 40 43 0 4 -9 7 -20 7 -11 0 -20 -6 -20 -14 0 -8 -4 -18 -10 -21 -17 -10
-11 11 9 36 17 21 21 22 46 11 l28 -13 -27 -27 c-32 -34 -33 -44 -4 -40 33 4
40 54 14 90 -16 22 -17 30 -6 43 10 13 9 15 -9 15 -14 0 -21 6 -21 19 0 10 -9
21 -20 24 -15 4 -20 14 -20 37 0 23 -5 33 -20 37 -13 3 -20 14 -20 29 0 17 -6
24 -20 24 -11 0 -20 7 -20 15 0 8 -9 15 -20 15 -12 0 -20 -7 -20 -17 0 -13 -7
-9 -29 15 -17 17 -35 32 -41 32 -21 0 -22 -31 -1 -54 35 -37 24 -50 -14 -15
-19 19 -35 36 -35 39 0 4 10 17 21 29 16 17 29 22 50 17 27 -5 27 -4 17 24 -6
19 -17 30 -29 30 -14 0 -19 7 -19 30 0 23 -4 30 -20 30 -13 0 -20 7 -20 20 0
13 -7 20 -20 20 -13 0 -20 7 -20 20 0 13 -7 20 -20 20 -13 0 -20 7 -20 20 0
13 -7 20 -20 20 -18 0 -20 7 -21 58 -1 31 -1 61 0 66 1 4 -13 6 -31 2 -18 -3
-48 -2 -66 3 -21 6 -30 6 -26 0 3 -6 -10 -4 -29 4 l-34 15 -1 -29 c-1 -40 -9
-49 -40 -48 -21 1 -23 2 -7 6 25 6 35 21 35 51 0 18 -6 22 -29 22 -16 0 -37
-7 -45 -16 -15 -14 -16 -14 -16 5 0 12 -7 20 -17 20 -428 5 -1373 9 -1387 5z
m1434 -75 c0 -6 -4 -7 -10 -4 -5 3 -10 11 -10 16 0 6 5 7 10 4 6 -3 10 -11 10
-16z m-490 -30 c0 -11 -27 -12 -34 0 -3 4 -3 11 0 14 8 8 34 -3 34 -14z m-462
-108 c225 -77 207 -70 194 -83 -9 -9 -24 -6 -63 12 -28 13 -59 23 -70 23 -10
-1 -19 3 -19 8 0 6 -4 8 -9 4 -5 -3 -12 -1 -15 4 -4 5 -36 20 -73 32 -81 26
-153 58 -153 66 0 3 8 3 18 -1 9 -3 95 -32 190 -65z m520 51 c2 -7 -6 -12 -17
-12 -21 0 -27 11 -14 24 9 9 26 2 31 -12z m501 -49 c-4 -32 -7 -76 -7 -98 1
-36 2 -37 5 -7 2 17 9 32 15 32 7 0 8 -24 4 -72 -8 -92 -27 -178 -38 -178 -4
0 -8 -7 -8 -15 0 -8 -4 -15 -9 -15 -6 0 -3 -12 5 -27 12 -25 12 -28 -1 -31
-15 -3 -21 -22 -7 -22 4 0 18 -3 32 -6 21 -6 23 -4 13 7 -18 18 -16 39 3 39 8
0 12 -4 9 -10 -4 -6 1 -7 11 -3 14 5 16 1 10 -29 -5 -30 -3 -36 19 -46 22 -10
25 -9 25 7 0 11 -6 22 -12 24 -7 3 -4 6 7 6 11 0 27 -4 35 -9 13 -9 13 -12 -2
-24 -21 -16 -24 -30 -4 -23 7 3 20 -3 29 -14 12 -13 13 -19 4 -19 -8 0 -8 -3
2 -9 8 -5 20 -7 27 -4 11 4 11 8 -1 20 -19 18 -19 32 0 39 11 5 12 10 4 26
-13 24 -7 32 20 23 16 -5 20 -14 19 -48 0 -23 -5 -48 -10 -54 -8 -10 -6 -13 6
-13 18 0 20 -13 6 -40 -11 -21 6 -61 25 -58 5 1 20 -2 33 -6 20 -7 26 -19 25
-53 -1 -7 5 -13 12 -13 7 0 16 -6 18 -12 4 -10 6 -10 6 -1 1 6 -3 15 -9 18
-20 13 -9 23 25 23 19 0 33 -4 30 -9 -3 -4 0 -17 7 -29 10 -16 10 -24 0 -40
-7 -12 -8 -20 -2 -20 14 0 13 -37 -1 -46 -6 -3 -9 -17 -6 -30 6 -32 -10 -41
-28 -18 -19 25 -18 34 0 34 20 0 19 6 -5 40 -15 21 -25 26 -45 22 -27 -5 -31
-12 -14 -29 7 -7 9 -19 5 -29 -6 -15 -9 -15 -31 6 -28 26 -33 50 -10 50 21 0
19 12 -6 39 -30 32 -44 22 -40 -29 2 -38 1 -42 -16 -36 -14 6 -13 3 5 -14 31
-29 26 -66 -8 -62 l-25 3 23 -16 c16 -12 22 -26 22 -52 0 -31 -3 -35 -21 -30
-19 5 -20 4 -5 -12 18 -20 22 -71 5 -71 -6 0 -24 8 -40 17 -23 14 -29 24 -29
51 0 29 3 33 21 27 21 -7 21 -7 -2 24 -28 38 -39 32 -39 -23 0 -23 -3 -45 -6
-49 -4 -3 -24 3 -45 14 -42 21 -50 49 -28 91 13 25 11 27 -32 32 -33 4 -33 3
-11 -11 45 -31 17 -70 -35 -48 -36 15 -43 43 -18 68 12 13 12 17 -5 32 -23 21
-39 12 -24 -13 7 -11 8 -26 3 -40 -7 -19 -14 -22 -31 -16 -22 6 -23 6 -5 -13
12 -15 16 -29 11 -47 -7 -30 -14 -32 -54 -11 -23 12 -30 22 -30 45 0 16 5 32
10 35 8 5 7 11 -1 21 -6 8 -9 27 -5 44 3 17 1 30 -4 30 -6 0 -10 -9 -10 -19 0
-27 -10 -30 -47 -15 -32 14 -49 44 -38 66 3 7 -2 3 -11 -9 -20 -28 -39 -29
-81 -3 -36 21 -46 66 -18 76 17 7 19 22 7 42 -6 9 -15 10 -33 3 -13 -5 -18
-10 -11 -10 13 -1 16 -29 6 -55 -8 -20 -27 -20 -63 -1 -47 24 -51 67 -8 79 20
5 21 7 5 22 -13 13 -14 21 -6 40 6 13 17 24 25 24 10 0 11 5 4 19 -16 29 9 56
44 47 l27 -7 -27 23 c-27 23 -27 54 0 60 9 2 10 10 3 28 -7 19 -11 21 -18 10
-7 -11 -14 -12 -34 -2 -14 6 -28 7 -31 3 -2 -5 6 -12 20 -15 26 -7 31 -21 15
-46 -8 -13 -13 -13 -37 2 -29 17 -53 71 -28 61 9 -3 15 6 17 29 2 28 7 33 26
31 12 -2 36 -13 52 -25 22 -16 33 -19 41 -11 15 15 1 36 -18 29 -35 -14 -92
42 -67 67 9 9 74 -25 74 -39 0 -7 8 -10 20 -7 13 3 20 14 20 29 0 25 9 28 48
18 24 -7 32 -53 10 -55 -10 0 -10 -2 0 -6 6 -2 12 -12 13 -21 0 -13 2 -13 8 3
5 11 6 26 4 33 -5 12 11 16 52 13 18 -1 19 -1 3 9 -20 12 -24 40 -7 40 20 0
38 -27 32 -50 -4 -13 0 -25 8 -31 22 -14 42 -11 36 5 -8 21 22 76 41 76 14 0
14 2 3 9 -11 7 -6 29 25 120 45 128 73 156 37 37 -3 -12 -1 -16 6 -12 5 4 13
23 17 42 4 20 10 32 15 27 4 -4 -3 -55 -17 -112 -13 -57 -22 -106 -20 -108 5
-6 66 253 66 281 0 13 3 26 6 29 15 15 20 -6 13 -60z m-521 15 c-7 -19 -38
-22 -38 -4 0 10 9 16 21 16 12 0 19 -5 17 -12z m72 -34 c0 -9 -5 -14 -12 -12
-18 6 -21 28 -4 28 9 0 16 -7 16 -16z m-15 -33 c3 -6 -4 -15 -16 -21 -15 -8
-19 -9 -15 -1 4 6 2 11 -3 11 -6 0 -11 5 -11 10 0 13 37 13 45 1z m-509 -32
c16 -7 49 -20 74 -29 25 -9 43 -21 40 -26 -7 -13 -37 -7 -94 20 -28 13 -60 27
-71 30 -16 6 -17 9 -5 16 8 5 17 7 21 5 3 -3 19 -10 35 -16z m1020 -71 c-1
-55 -5 -83 -13 -86 -15 -4 -16 16 -7 107 4 33 10 61 14 61 4 0 7 -37 6 -82z
m-546 62 c8 -5 11 -12 8 -16 -10 -9 -38 3 -38 16 0 12 10 13 30 0z m116 -1 c3
-6 1 -14 -5 -18 -6 -4 -9 -15 -5 -24 4 -13 1 -17 -15 -17 -12 0 -21 6 -21 15
0 8 5 15 10 15 6 0 10 9 10 20 0 22 15 27 26 9z m-361 -11 c27 -12 33 -28 11
-28 -25 0 -46 12 -46 26 0 17 2 17 35 2z m-449 -24 c-20 -19 -20 -23 1 -46 22
-24 54 -23 60 2 7 28 31 25 39 -5 7 -29 -10 -55 -35 -54 -11 0 -10 3 7 11 23
12 27 24 13 47 -7 11 -10 9 -16 -8 -9 -31 -59 -29 -80 3 -13 19 -14 29 -5 45
6 12 15 21 21 21 6 0 3 -7 -5 -16z m55 -1 c13 -17 13 -17 -6 -3 -11 8 -22 16
-24 17 -2 2 0 3 6 3 6 0 17 -8 24 -17z m509 -29 c0 -17 -14 -18 -42 -3 -15 8
-17 13 -8 19 17 11 50 0 50 -16z m-153 4 c43 -16 43 -36 0 -35 -24 1 -36 7
-44 24 -13 27 -6 29 44 11z m1166 -5 c-7 -2 -19 -2 -25 0 -7 3 -2 5 12 5 14 0
19 -2 13 -5z m-693 -18 c7 -9 10 -18 7 -21 -10 -10 -47 7 -47 22 0 19 24 18
40 -1z m-341 -57 c-5 -10 -14 -18 -20 -18 -6 0 -7 5 -4 10 3 6 -1 10 -9 10
-20 0 -48 29 -40 41 3 6 12 8 20 5 8 -3 14 -1 14 4 0 4 11 -1 24 -13 19 -16
22 -26 15 -39z m231 47 c7 -9 10 -18 6 -22 -9 -9 -57 18 -50 29 8 13 30 9 44
-7z m-793 -25 c18 -16 28 -30 21 -30 -13 1 -68 44 -68 55 0 11 14 4 47 -25z
m681 12 c3 -9 -2 -13 -14 -10 -9 1 -19 9 -22 16 -3 9 2 13 14 10 9 -1 19 -9
22 -16z m-745 -16 c-4 -18 3 -32 22 -51 16 -14 25 -28 21 -32 -6 -7 -66 52
-66 64 0 7 20 43 24 43 2 0 1 -11 -1 -24z m485 -9 c11 -9 10 -12 -2 -19 -18
-10 -69 19 -60 34 6 10 42 2 62 -15z m463 3 c10 -6 19 -18 19 -26 0 -13 -6
-15 -27 -9 -34 8 -47 20 -39 34 9 14 22 14 47 1z m-211 -46 c0 -22 -18 -25
-54 -8 -29 14 -33 20 -25 35 9 17 11 18 44 2 19 -9 35 -22 35 -29z m-140 -10
c0 -18 -32 -32 -38 -16 -2 7 -10 12 -18 12 -11 0 -12 -4 -3 -18 9 -14 9 -23 0
-38 -12 -18 -12 -18 -7 0 9 28 -21 68 -47 64 -17 -2 -22 -9 -20 -31 1 -15 -2
-25 -8 -22 -13 9 -11 39 3 53 13 13 54 16 61 5 2 -5 2 -2 0 6 -2 8 1 18 8 21
15 10 69 -18 69 -36z m238 27 c3 -8 -1 -12 -9 -9 -7 2 -15 10 -17 17 -3 8 1
12 9 9 7 -2 15 -10 17 -17z m487 -11 c3 -5 4 -14 0 -20 -8 -13 -35 -1 -35 16
0 16 26 19 35 4z m287 -17 c22 -20 23 -43 3 -69 -16 -21 -21 -8 -6 15 12 19
-15 61 -39 61 -31 0 -35 -38 -8 -68 49 -55 50 -65 1 -18 l-50 50 20 23 c24 27
53 30 79 6z m-924 -23 c35 -21 35 -33 0 -51 -12 -6 -18 -7 -14 -1 3 5 -5 13
-19 16 -18 5 -25 13 -25 31 0 30 14 31 58 5z m630 -13 c2 -10 -3 -17 -12 -17
-9 0 -16 -4 -16 -10 0 -5 6 -10 14 -10 17 0 29 -27 16 -35 -5 -3 -18 0 -29 6
-16 10 -17 17 -9 38 5 14 9 27 9 29 -1 1 -1 7 -1 13 0 17 25 4 28 -14z m-1195
-32 c-1 -5 -11 -12 -22 -17 -17 -6 -21 -3 -21 13 0 15 5 20 23 17 12 -2 21 -7
20 -13z m400 -34 c19 -24 21 -37 8 -46 -11 -6 -61 15 -61 25 0 9 25 31 31 27
2 -1 -5 6 -16 16 -20 18 -20 18 0 8 11 -5 28 -19 38 -30z m160 6 c4 3 7 -1 7
-11 0 -9 -4 -15 -9 -12 -5 4 -11 0 -14 -6 -5 -17 -57 9 -57 28 0 18 32 23 51
7 9 -7 19 -10 22 -6z m-526 -39 c-3 -8 -6 -5 -6 6 -1 11 2 17 5 13 3 -3 4 -12
1 -19z m491 -46 c-2 -10 -14 -18 -31 -20 -19 -2 -27 1 -25 10 2 7 -3 12 -9 11
-16 -4 -16 2 -3 28 10 18 13 18 41 3 19 -9 29 -21 27 -32z m997 29 c3 -5 1
-12 -5 -16 -7 -4 -7 -12 0 -25 14 -26 13 -30 -9 -30 -15 0 -19 7 -18 40 1 38
17 54 32 31z m130 -1 c3 -5 -1 -10 -9 -10 -9 0 -16 5 -16 10 0 6 4 10 9 10 6
0 13 -4 16 -10z m-206 -21 c-8 -17 -8 -23 1 -29 8 -5 10 -15 5 -26 -4 -11 -8
-30 -9 -43 -1 -34 -20 -37 -35 -5 -10 23 -10 26 4 20 14 -5 14 -2 -1 25 -14
29 -14 32 3 45 11 8 13 13 6 14 -25 0 -13 20 12 20 23 0 25 -2 14 -21z m-1084
-1 c29 -13 31 -25 11 -62 -10 -20 -15 -23 -19 -12 -3 8 -1 17 6 20 7 3 3 4 -8
3 -11 -1 -29 5 -39 15 -16 14 -17 20 -6 33 15 18 21 18 55 3z m250 -15 c37
-17 39 -21 29 -47 -7 -19 -24 -20 -59 -4 -24 11 -34 45 -18 61 9 9 7 9 48 -10z
m985 -14 c0 -5 -4 -9 -10 -9 -5 0 -10 7 -10 16 0 8 5 12 10 9 6 -3 10 -10 10
-16z m-1107 -22 c9 8 9 -20 1 -41 -8 -22 -26 -20 -53 5 -21 20 -21 22 -5 40
15 17 19 18 34 4 9 -8 20 -12 23 -8z m-163 -32 c10 -12 9 -16 -5 -21 -19 -8
-40 9 -31 25 10 15 21 14 36 -4z m1198 -8 c2 -10 -3 -17 -11 -17 -16 0 -30 24
-19 34 10 10 27 1 30 -17z m-927 -7 c22 -13 24 -20 6 -44 -13 -17 -15 -17 -45
-2 -30 16 -40 35 -25 49 10 10 42 8 64 -3z m-316 -20 c3 -5 -1 -10 -10 -10 -9
0 -13 5 -10 10 3 6 8 10 10 10 2 0 7 -4 10 -10z m160 -25 c0 -10 -5 -20 -11
-22 -13 -4 -27 24 -18 38 9 15 29 4 29 -16z m1284 -10 c13 -14 22 -28 19 -30
-2 -3 -17 9 -33 25 -16 17 -25 30 -19 30 5 0 20 -12 33 -25z m-291 -14 c3 -8
-1 -12 -9 -9 -7 2 -15 10 -17 17 -3 8 1 12 9 9 7 -2 15 -10 17 -17z m-870 -7
c45 -31 17 -71 -35 -49 -34 14 -38 21 -27 49 8 20 33 20 62 0z m1089 10 c-3
-3 -12 -4 -19 -1 -8 3 -5 6 6 6 11 1 17 -2 13 -5z m40 -46 c-3 -7 -5 -2 -5 12
0 14 2 19 5 13 2 -7 2 -19 0 -25z m-170 7 c3 -9 3 -19 -1 -22 -8 -9 -37 18
-30 28 8 14 24 11 31 -6z m-1116 -11 c21 -19 14 -44 -11 -44 -28 0 -45 27 -30
45 16 19 19 19 41 -1z m1197 -26 c20 -20 13 -38 -15 -39 -25 0 -25 -1 -8 -8
11 -5 28 -4 39 1 16 9 18 7 13 -6 -4 -10 -1 -16 9 -16 12 0 13 -4 4 -21 -16
-29 -38 -34 -59 -14 -15 13 -20 14 -24 3 -2 -7 -2 -3 0 10 5 32 -7 73 -20 65
-6 -3 -7 -1 -3 6 6 9 11 9 24 -1 13 -11 15 -11 10 4 -11 27 9 37 30 16z
m-1077 -14 c26 -13 30 -19 24 -42 -9 -37 -11 -38 -50 -19 -34 16 -41 30 -29
61 8 20 17 20 55 0z m1167 -36 c7 -7 12 -23 12 -37 l0 -25 -30 29 c-29 27 -31
45 -6 45 6 0 17 -5 24 -12z m-1040 -18 c27 -17 32 -25 26 -43 -10 -34 -18 -38
-52 -26 -37 13 -53 37 -45 67 7 27 28 28 71 2z m1037 -46 c20 -26 24 -39 16
-47 -15 -15 -66 40 -52 57 6 7 8 16 4 19 -3 4 -4 7 -1 7 3 0 18 -16 33 -36z
m82 14 c29 -27 29 -38 -1 -38 -14 0 -26 7 -30 18 -3 9 -9 23 -12 30 -9 20 18
14 43 -10z m-1266 -14 c22 -20 25 -47 5 -63 -18 -15 -58 -23 -50 -10 3 6 -1 9
-9 7 -9 -2 -16 -1 -17 2 -1 3 -5 24 -9 47 l-8 41 34 -3 c19 -2 43 -11 54 -21z
m269 -12 c18 -14 21 -25 16 -45 -7 -29 -23 -31 -63 -9 -22 12 -31 50 -16 65
12 12 40 7 63 -11z m870 -17 c9 -10 9 -15 1 -15 -6 0 -11 5 -11 10 0 6 -5 10
-10 10 -7 0 -7 -6 0 -19 16 -30 -7 -37 -36 -10 -13 12 -24 26 -24 31 0 14 67
9 80 -7z m190 5 c11 -6 24 -19 30 -30 18 -34 -22 -24 -42 10 -19 33 -17 35 12
20z m-1220 -25 c30 -16 40 -48 19 -60 -6 -4 -8 -13 -5 -21 3 -8 2 -14 -2 -15
-4 0 -14 -2 -23 -4 -9 -1 -16 3 -16 10 0 7 7 11 16 8 9 -3 1 4 -16 16 -22 14
-33 29 -33 44 0 41 14 46 60 22z m1164 -1 c20 -19 20 -40 1 -48 -15 -6 -35 21
-35 48 0 20 14 20 34 0z m-903 -14 c23 -13 26 -60 4 -60 -16 0 -55 34 -55 48
0 23 21 27 51 12z m553 -16 c20 -19 21 -54 2 -54 -13 0 -56 49 -56 64 0 12 39
5 54 -10z m270 -3 c10 -11 15 -25 11 -30 -10 -17 -45 6 -45 29 0 25 12 25 34
1z m240 -10 c12 -13 14 -21 6 -26 -13 -8 -52 24 -44 36 8 14 19 11 38 -10z
m-80 -20 c12 -13 14 -21 6 -26 -13 -8 -40 12 -40 31 0 20 14 17 34 -5z m-1126
-35 c-10 -7 -16 -16 -13 -19 3 -4 2 -5 -2 -2 -10 8 -14 37 -7 54 4 12 8 12 22
-3 16 -16 16 -18 0 -30z m786 18 c18 -7 22 -44 5 -44 -12 0 -38 29 -39 43 0 9
13 9 34 1z m503 -19 c3 -9 3 -19 -1 -22 -7 -7 -36 16 -36 28 0 15 30 10 37 -6z
m-1165 -12 c19 -17 24 -48 8 -58 -17 -11 -50 15 -50 39 0 38 14 45 42 19z
m566 -3 c24 -22 27 -35 13 -44 -15 -10 -38 4 -49 29 -18 38 2 47 36 15z m-321
-12 c6 -7 12 -25 15 -40 4 -21 2 -25 -11 -21 -27 10 -51 35 -51 55 0 21 32 25
47 6z m511 -10 c16 -16 15 -38 -1 -38 -14 0 -39 35 -30 44 9 9 18 7 31 -6z
m-634 -17 c-2 -2 2 -11 9 -19 6 -8 12 -30 12 -47 0 -30 -2 -32 -26 -25 -50 15
-99 1 -99 -28 0 -14 1 -14 13 0 20 27 50 26 74 -3 22 -25 22 -69 1 -69 -6 0
-8 -6 -5 -13 4 -10 -2 -13 -19 -9 -13 2 -24 9 -24 14 0 5 -4 6 -10 3 -5 -3 -7
0 -5 7 6 14 -44 65 -58 60 -4 -1 -17 2 -27 8 -21 11 -27 54 -10 65 15 9 50
-18 50 -40 0 -18 1 -18 16 3 8 12 24 22 35 22 17 0 18 3 9 20 -16 30 3 57 39
56 16 -1 27 -3 25 -5z m230 -22 c33 -26 36 -69 4 -69 -31 0 -58 29 -58 62 0
34 17 36 54 7z m310 5 c9 -8 16 -22 16 -30 0 -21 -28 -17 -40 5 -21 40 -6 55
24 25z m-103 -24 c22 -13 26 -60 5 -60 -16 0 -46 37 -46 57 0 16 15 17 41 3z
m297 -14 c3 -13 -1 -17 -14 -14 -11 2 -20 11 -22 22 -3 13 1 17 14 14 11 -2
20 -11 22 -22z m-623 -26 c30 -33 -2 -69 -33 -38 -16 16 -15 58 1 58 8 0 22
-9 32 -20z m228 6 c22 -17 24 -76 2 -76 -23 0 -65 46 -65 70 0 24 35 27 63 6z
m307 -7 c7 -11 9 -28 5 -37 -6 -15 -9 -14 -26 7 -10 13 -19 29 -19 37 0 21 28
17 40 -7z m-102 -45 c-10 -10 -28 6 -28 24 0 15 1 15 17 -1 9 -9 14 -19 11
-23z m184 -1 c19 -17 25 -53 9 -53 -12 0 -41 40 -41 57 0 17 10 16 32 -4z
m-512 -14 c13 -24 8 -34 -15 -26 -16 7 -21 47 -5 47 5 0 14 -9 20 -21z m221
11 c19 -11 27 -64 11 -74 -15 -9 -49 22 -54 48 -7 37 6 45 43 26z m203 -36 c4
-9 4 -19 1 -22 -7 -8 -35 19 -29 29 8 14 21 11 28 -7z m-292 -36 c6 -18 -2
-48 -14 -48 -5 0 -6 -6 -2 -12 4 -7 -2 -5 -13 5 -11 9 -23 14 -27 10 -4 -5 -7
-3 -5 2 1 6 -1 22 -5 37 -11 40 0 51 34 33 15 -8 30 -20 32 -27z m-262 17 c18
-21 8 -50 -18 -51 -12 -1 -20 1 -18 4 3 2 1 13 -5 24 -18 34 16 54 41 23z
m738 -5 c19 -31 3 -47 -19 -19 -10 13 -19 27 -19 32 0 15 26 6 38 -13z m-280
-28 c2 -15 -2 -22 -12 -22 -9 0 -16 4 -16 9 0 5 -3 17 -6 26 -5 13 -2 16 12
13 11 -2 20 -13 22 -26z m192 -12 c0 -11 -4 -20 -10 -20 -5 0 -10 2 -10 4 0 2
-3 11 -6 20 -4 11 -1 16 10 16 9 0 16 -8 16 -20z m-305 -2 c21 -9 25 -18 25
-51 0 -32 -3 -38 -16 -33 -9 3 -19 6 -24 6 -4 0 -17 15 -27 33 -14 23 -17 36
-9 44 14 15 20 15 51 1z m485 -23 c0 -8 -7 -15 -15 -15 -8 0 -15 7 -15 15 0 8
7 15 15 15 8 0 15 -7 15 -15z m-653 -37 c-3 -7 -5 -2 -5 12 0 14 2 19 5 13 2
-7 2 -19 0 -25z m569 -15 c-7 -16 -9 -16 -21 7 -16 30 -8 48 13 27 9 -10 12
-23 8 -34z m-772 11 c18 -18 18 -17 10 -38 -9 -23 -29 -20 -43 8 -21 39 3 61
33 30z m261 -22 c3 -17 -1 -22 -16 -22 -12 0 -19 -7 -19 -18 0 -10 -6 -27 -14
-37 -12 -16 -17 -17 -44 -6 -47 20 -52 74 -8 91 44 16 61 -13 26 -45 -23 -21
-26 -35 -7 -35 24 0 36 16 41 53 8 62 30 73 41 19z m213 22 c25 -18 31 -74 8
-74 -19 0 -56 47 -56 71 0 23 18 24 48 3z m-538 -34 c0 -5 -4 -10 -10 -10 -5
0 -10 5 -10 10 0 6 5 10 10 10 6 0 10 -4 10 -10z m440 -27 c24 -31 23 -56 -3
-61 -27 -5 -57 27 -57 60 0 37 31 38 60 1z m488 4 c2 -10 -3 -17 -12 -17 -10
0 -16 9 -16 21 0 24 23 21 28 -4z m-703 -95 c-8 -8 -95 84 -95 101 0 7 23 -12
51 -41 29 -29 49 -56 44 -60z m322 36 c27 -26 31 -75 6 -85 -23 -9 -63 40 -63
78 0 36 23 39 57 7z m-397 -9 c0 -5 -6 -9 -13 -9 -25 0 -36 -21 -25 -46 13
-28 24 -30 45 -8 13 12 13 18 4 24 -10 5 -9 9 2 13 37 14 35 -24 -3 -65 -16
-17 -30 -25 -30 -18 0 7 -8 10 -20 7 -15 -4 -20 0 -20 15 0 10 -4 28 -10 38
-8 15 -4 23 21 44 29 25 49 27 49 5z m868 4 c-4 -22 -22 -20 -26 1 -2 10 3 16
13 16 10 0 15 -7 13 -17z m-587 -74 c7 -15 8 -24 0 -32 -14 -14 -41 9 -41 34
0 26 27 24 41 -2z m222 -12 c15 -46 -7 -57 -32 -17 -11 19 -18 38 -15 42 11
17 37 3 47 -25z m-109 -39 c21 -29 20 -57 -1 -65 -21 -8 -53 30 -53 63 0 31
33 32 54 2z m109 -78 c14 -23 15 -34 7 -50 -15 -28 -27 -25 -50 13 -23 37 -26
63 -7 70 19 7 32 -1 50 -33z m-113 -71 c0 -34 -24 -39 -40 -8 -8 15 -8 24 0
34 17 21 40 6 40 -26z m100 -41 c11 -12 20 -34 20 -49 0 -15 5 -31 10 -34 16
-10 12 -25 -5 -19 -8 4 -12 10 -9 15 3 5 -4 9 -15 9 -11 0 -22 9 -26 20 -3 11
-11 20 -16 20 -14 0 7 -37 29 -50 16 -10 16 -11 -1 -8 -24 4 -57 59 -39 65 6
3 12 13 12 22 0 16 8 31 16 31 2 0 12 -10 24 -22z m-79 -88 c10 -6 19 -16 19
-23 0 -8 -3 -9 -8 -1 -13 19 -40 24 -46 8 -9 -25 -7 -33 15 -55 11 -11 18 -23
15 -27 -4 -3 -20 9 -36 27 -29 32 -38 47 -21 37 4 -3 13 6 19 19 13 28 16 29
43 15z m176 -2 c17 -21 24 -66 12 -74 -19 -11 -62 40 -54 65 7 23 27 28 42 9z
m-97 -48 c5 -8 10 -23 10 -33 0 -29 -32 -16 -46 19 -12 29 -11 31 7 30 11 -1
24 -8 29 -16z m40 4 c0 -14 -3 -14 -15 -4 -8 7 -15 14 -15 16 0 2 7 4 15 4 8
0 15 -7 15 -16z m-166 -45 c22 -27 15 -61 -18 -79 -26 -14 -26 -14 -68 36 -17
19 -17 21 2 42 26 28 60 28 84 1z m-264 -34 c0 -24 -5 -35 -15 -35 -10 0 -15
11 -15 35 0 24 5 35 15 35 10 0 15 -11 15 -35z m483 -50 c3 -38 -19 -43 -37
-8 -10 21 -11 34 -4 47 9 16 12 16 24 4 8 -8 16 -27 17 -43z m-308 -5 c16 -16
26 -32 23 -35 -3 -4 -15 5 -26 19 -22 29 -50 34 -59 10 -3 -9 5 -27 22 -44 16
-17 25 -33 21 -37 -3 -4 -23 10 -44 31 -24 25 -33 40 -24 43 6 3 12 11 12 18
0 13 14 23 36 24 5 1 23 -12 39 -29z m365 -147 c0 -25 -10 -29 -28 -11 -13 13
-16 51 -5 62 11 10 33 -24 33 -51z"/>
<path d="M8592 2845 c0 -16 2 -22 5 -12 2 9 2 23 0 30 -3 6 -5 -1 -5 -18z"/>
<path d="M8580 2800 c-7 -18 -5 -49 3 -41 5 5 7 17 4 27 -3 11 -6 17 -7 14z"/>
<path d="M8556 2693 c-8 -19 4 -43 20 -43 9 0 14 11 14 28 0 30 -25 41 -34 15z"/>
<path d="M8535 2630 c3 -5 13 -10 21 -10 8 0 14 -5 14 -12 0 -6 2 -9 5 -6 11
11 -8 38 -27 38 -10 0 -16 -4 -13 -10z"/>
<path d="M8450 2612 c0 -5 7 -13 16 -16 10 -4 14 -1 12 6 -5 15 -28 23 -28 10z"/>
<path d="M8333 2588 c2 -7 10 -13 17 -13 7 0 15 6 18 13 2 7 -5 12 -18 12 -13
0 -20 -5 -17 -12z"/>
<path d="M8550 2561 c0 -5 5 -13 10 -16 6 -3 10 -2 10 4 0 5 -4 13 -10 16 -5
3 -10 2 -10 -4z"/>
<path d="M8435 2540 c3 -5 11 -10 16 -10 6 0 7 5 4 10 -3 6 -11 10 -16 10 -6
0 -7 -4 -4 -10z"/>
<path d="M8307 2520 c6 -24 10 -24 28 -6 16 16 10 26 -16 26 -12 0 -16 -6 -12
-20z"/>
<path d="M8284 2465 c8 -8 16 -20 19 -27 7 -20 20 -2 13 19 -3 10 -15 19 -26
20 -17 2 -18 0 -6 -12z"/>
<path d="M8420 2470 c0 -5 5 -10 10 -10 6 0 10 5 10 10 0 6 -4 10 -10 10 -5 0
-10 -4 -10 -10z"/>
<path d="M8726 2466 c3 -9 11 -16 16 -16 13 0 5 23 -10 28 -7 2 -10 -2 -6 -12z"/>
<path d="M8810 2421 c0 -11 26 -22 34 -14 3 3 3 10 0 14 -7 12 -34 11 -34 0z"/>
<path d="M8402 2411 c2 -7 7 -12 11 -12 12 1 9 15 -3 20 -7 2 -11 -2 -8 -8z"/>
<path d="M8726 2402 c-3 -6 -1 -14 5 -17 14 -9 20 -2 10 14 -6 8 -11 9 -15 3z"/>
<path d="M8262 2381 c16 -25 41 -28 36 -3 -2 9 -14 18 -26 20 -21 3 -22 2 -10
-17z"/>
<path d="M8810 2354 c0 -8 5 -12 10 -9 6 3 10 10 10 16 0 5 -4 9 -10 9 -5 0
-10 -7 -10 -16z"/>
<path d="M8380 2335 c0 -9 9 -15 21 -15 18 0 19 2 9 15 -7 8 -16 15 -21 15 -5
0 -9 -7 -9 -15z"/>
<path d="M8832 2334 c-7 -8 -8 -14 -3 -14 10 0 25 19 20 25 -2 1 -10 -3 -17
-11z"/>
<path d="M8712 2331 c2 -7 7 -12 11 -12 12 1 9 15 -3 20 -7 2 -11 -2 -8 -8z"/>
<path d="M8890 2313 c1 -20 22 -38 44 -38 23 -1 23 0 9 22 -14 21 -53 33 -53
16z"/>
<path d="M8492 2281 c2 -7 7 -12 11 -12 12 1 9 15 -3 20 -7 2 -11 -2 -8 -8z"/>
<path d="M8800 2284 c0 -12 26 -30 38 -26 10 3 10 7 1 18 -11 14 -39 20 -39 8z"/>
<path d="M8367 2263 c-13 -13 -7 -31 13 -36 11 -3 20 -2 20 1 -1 14 -27 41
-33 35z"/>
<path d="M8700 2256 c0 -9 7 -16 16 -16 17 0 14 22 -4 28 -7 2 -12 -3 -12 -12z"/>
<path d="M8590 2235 c0 -8 7 -15 15 -15 8 0 15 4 15 9 0 5 -7 11 -15 15 -9 3
-15 0 -15 -9z"/>
<path d="M9000 2229 c0 -5 11 -9 25 -9 33 0 33 15 0 16 -14 1 -25 -2 -25 -7z"/>
<path d="M8800 2206 c0 -7 9 -16 21 -19 15 -4 19 -2 15 10 -3 8 -6 17 -6 19 0
2 -7 4 -15 4 -8 0 -15 -6 -15 -14z"/>
<path d="M8685 2180 c3 -5 13 -10 21 -10 8 0 14 5 14 10 0 6 -9 10 -21 10 -11
0 -17 -4 -14 -10z"/>
<path d="M8790 2125 c0 -15 26 -32 36 -23 2 3 2 13 -2 22 -8 20 -34 21 -34 1z"/>
<path d="M8720 1633 l0 -26 25 23 c14 13 25 25 25 27 0 2 -11 3 -25 3 -20 0
-25 -5 -25 -27z"/>
<path d="M8955 1059 c-4 -13 0 -27 11 -40 22 -25 41 -24 54 2 9 16 8 25 -6 40
-23 25 -51 24 -59 -2z"/>
<path d="M7348 2713 c-22 -5 -23 -22 -3 -50 18 -25 55 -20 55 7 0 15 -26 53
-33 49 -1 -1 -10 -3 -19 -6z"/>
<path d="M7265 2615 c-15 -12 -16 -15 -4 -12 10 3 27 -5 40 -19 14 -15 18 -24
9 -24 -7 0 -11 -3 -7 -6 3 -3 12 -2 21 3 12 7 10 13 -12 41 -26 31 -28 32 -47
17z"/>
<path d="M7346 2596 c4 -11 54 -41 54 -33 0 2 -13 13 -30 25 -17 13 -27 17
-24 8z"/>
<path d="M7713 2535 c-3 -9 -3 -18 0 -21 9 -9 27 6 27 22 0 19 -19 18 -27 -1z"/>
<path d="M9338 2536 c-10 -7 -13 -17 -9 -25 6 -9 11 -10 15 -2 4 6 4 11 -1 11
-4 0 -1 4 7 10 8 5 12 11 10 14 -3 2 -13 -1 -22 -8z"/>
<path d="M7746 2514 c-3 -9 -6 -23 -6 -31 0 -13 3 -13 15 -3 17 14 20 36 6 44
-5 3 -12 -1 -15 -10z"/>
<path d="M9361 2497 c-8 -10 -7 -14 4 -14 8 0 15 6 15 14 0 7 -2 13 -4 13 -2
0 -9 -6 -15 -13z"/>
<path d="M6500 2452 c-13 -10 -31 -44 -40 -75 -21 -67 -21 -67 86 -67 72 0 74
1 74 25 0 23 -4 25 -44 25 -46 0 -57 10 -48 43 4 15 12 18 43 15 34 -3 39 -1
39 18 0 38 -71 48 -110 16z"/>
<path d="M3880 2043 c0 -153 -4 -284 -9 -291 -12 -19 -79 -32 -126 -23 l-40 6
-3 158 -3 157 -54 0 -55 0 0 -138 c0 -106 -3 -142 -15 -159 -18 -26 -84 -39
-114 -23 -20 10 -21 19 -21 165 l0 155 -54 0 -53 0 -5 -150 c-3 -83 -9 -155
-15 -161 -5 -5 -36 -11 -69 -12 l-59 -2 -3 157 -3 157 -29 6 c-17 4 -43 4 -60
0 l-29 -6 1 -150 c0 -82 -3 -153 -7 -157 -8 -8 -195 -16 -195 -8 0 3 18 33 40
67 22 34 45 80 51 101 30 113 -87 203 -261 201 -182 -3 -286 -88 -250 -205 13
-46 76 -148 91 -148 5 0 9 -3 9 -8 0 -4 -43 -9 -95 -10 l-95 -3 0 85 c0 159
-30 229 -115 267 -80 37 -215 18 -279 -39 -37 -33 -66 -112 -66 -182 1 -148
80 -220 244 -220 94 0 104 -7 85 -57 -21 -56 -65 -76 -154 -69 -38 2 -80 8
-92 11 -22 7 -23 5 -23 -48 l0 -56 46 -7 c25 -3 82 -5 127 -2 136 7 195 53
222 172 l11 51 530 5 c291 3 553 2 583 -1 29 -3 79 -1 110 3 31 5 61 9 66 9 6
-1 56 -4 113 -7 119 -8 166 3 209 48 l28 29 3 305 3 304 -61 0 -60 0 0 -277z
m-1073 -68 c28 -12 33 -19 33 -48 0 -59 -102 -187 -149 -187 -36 0 -151 147
-151 193 0 20 43 47 93 57 51 11 128 4 174 -15z m-625 4 c32 -17 48 -71 48
-163 l0 -84 -30 -7 c-38 -8 -107 3 -142 23 -34 20 -48 51 -48 107 0 88 37 135
108 135 24 0 52 -5 64 -11z"/>
<path d="M4106 2293 c-2 -16 -5 -171 -5 -345 l0 -318 59 0 60 0 0 345 0 345
-54 0 c-51 0 -55 -2 -60 -27z"/>
<path d="M5093 2203 c-120 -128 -133 -147 -133 -190 0 -47 14 -53 128 -53 101
0 104 -1 133 -29 25 -26 29 -37 29 -86 0 -104 -54 -130 -250 -123 l-85 3 -6
110 c-6 116 -17 155 -52 194 -82 89 -285 78 -360 -20 -37 -49 -49 -86 -49
-155 -1 -106 50 -182 141 -213 19 -6 66 -11 105 -11 92 0 102 -6 86 -55 -19
-59 -59 -77 -150 -71 -41 3 -85 8 -97 12 -22 6 -23 4 -23 -45 0 -47 2 -52 28
-62 15 -6 70 -9 127 -7 154 6 211 47 239 171 l11 52 430 5 c470 6 469 6 527
67 37 39 48 73 48 155 0 85 -24 143 -76 187 -89 73 -261 68 -330 -10 -30 -34
-42 -80 -50 -194 -4 -55 -12 -103 -18 -107 -6 -4 -28 -8 -50 -8 l-39 0 9 43
c14 72 6 135 -23 188 -30 56 -67 83 -138 100 -98 23 -99 13 18 142 59 64 107
119 107 122 0 3 -29 5 -64 5 l-64 0 -109 -117z m-346 -228 c29 -20 43 -73 43
-161 0 -90 -9 -99 -86 -90 -103 12 -134 44 -134 137 0 86 36 128 110 129 25 0
55 -7 67 -15z m1014 -6 c50 -35 62 -135 23 -194 -19 -30 -55 -44 -126 -52 -72
-7 -78 -1 -77 77 0 92 14 152 39 172 31 25 104 24 141 -3z"/>
<path d="M6010 1976 l0 -344 56 -4 c31 -1 58 0 60 3 2 3 2 158 1 345 l-2 339
-57 3 -58 3 0 -345z"/>
<path d="M730 2270 c-28 -28 -25 -64 7 -89 30 -24 58 -20 86 11 23 27 22 44
-8 73 -29 30 -58 32 -85 5z"/>
<path d="M882 2267 c-27 -28 -28 -58 -4 -80 22 -20 73 -22 90 -5 21 21 15 75
-10 92 -31 22 -51 20 -76 -7z"/>
<path d="M6480 1940 l0 -310 39 0 c22 0 46 -3 55 -6 14 -6 16 26 16 310 l0
316 -55 0 -55 0 0 -310z"/>
<path d="M747 2077 c-95 -30 -151 -112 -150 -219 1 -85 15 -126 56 -166 57
-55 94 -62 341 -62 243 0 268 5 310 63 19 26 21 45 24 213 l3 184 -60 0 -61 0
0 -162 c0 -90 -4 -169 -8 -176 -10 -15 -66 -32 -109 -32 -25 0 -33 5 -34 18
-7 241 -24 292 -114 333 -46 21 -139 24 -198 6z m150 -103 c29 -18 43 -71 43
-161 0 -87 -13 -99 -93 -89 -97 13 -127 46 -127 137 0 76 25 112 90 132 20 7
60 -2 87 -19z"/>
<path d="M1486 2074 c-3 -9 -6 -28 -6 -44 0 -27 1 -28 78 -35 91 -8 106 -15
128 -57 22 -43 25 -195 4 -208 -8 -5 -81 -10 -162 -10 l-148 0 0 -44 0 -45
218 -3 c136 -2 220 1 225 7 15 19 0 277 -18 323 -22 54 -83 107 -140 121 -68
17 -172 14 -179 -5z"/>
<path d="M7838 2063 c7 -3 16 -2 19 1 4 3 -2 6 -13 5 -11 0 -14 -3 -6 -6z"/>
<path d="M6277 2043 c-4 -3 -7 -105 -7 -225 0 -238 -6 -272 -55 -304 -21 -13
-39 -16 -96 -11 l-70 6 3 -52 3 -52 75 -3 c98 -4 154 12 200 58 53 53 60 93
60 359 l0 231 -53 0 c-30 0 -57 -3 -60 -7z"/>
<path d="M8056 2043 c6 -4 14 -15 17 -23 5 -11 6 -9 4 4 -1 11 -9 21 -17 23
-10 3 -11 2 -4 -4z"/>
<path d="M8357 1799 c7 -7 15 -10 18 -7 3 3 -2 9 -12 12 -14 6 -15 5 -6 -5z"/>
<path d="M8370 1761 c0 -25 19 -38 31 -20 12 19 6 33 -14 37 -11 2 -17 -3 -17
-17z"/>
<path d="M8303 1755 c0 -8 4 -15 9 -15 4 0 8 4 8 9 0 6 -4 12 -8 15 -5 3 -9
-1 -9 -9z"/>
<path d="M8380 1581 c0 -5 7 -12 16 -15 14 -5 15 -4 4 9 -14 17 -20 19 -20 6z"/>
<path d="M1070 1500 c-35 -35 -20 -86 30 -102 17 -6 70 18 70 31 0 5 3 16 6
25 8 20 -38 66 -66 66 -11 0 -29 -9 -40 -20z"/>
<path d="M1222 1497 c-41 -44 -16 -97 45 -97 55 0 78 56 39 95 -31 31 -56 32
-84 2z"/>
<path d="M8495 1443 c11 -3 24 -10 28 -17 6 -7 7 -6 4 4 -2 8 -14 16 -28 17
-19 1 -20 1 -4 -4z"/>
<path d="M3147 1363 c-4 -3 -7 -45 -7 -93 l0 -87 -75 5 c-136 9 -219 -46 -251
-164 -15 -55 -15 -72 -5 -119 16 -70 47 -114 101 -145 40 -22 59 -24 192 -28
l148 -4 0 321 0 321 -48 0 c-27 0 -52 -3 -55 -7z m-62 -273 c39 -15 55 -65 55
-168 l0 -89 -32 -7 c-59 -12 -148 16 -166 52 -32 61 -19 153 28 195 32 29 69
34 115 17z"/>
<path d="M3352 1344 c-45 -31 -17 -104 41 -104 53 0 76 61 37 100 -24 24 -48
25 -78 4z"/>
<path d="M1453 1181 c-69 -32 -97 -98 -70 -163 19 -46 51 -66 151 -99 88 -28
111 -48 84 -75 -31 -31 -150 -30 -232 2 -13 5 -16 -2 -16 -45 0 -68 16 -76
145 -76 82 0 107 4 140 21 72 38 103 112 72 174 -17 34 -67 65 -145 91 -37 12
-76 30 -87 41 -20 19 -20 19 5 40 21 17 34 20 90 15 36 -3 72 -8 80 -12 12 -4
20 7 32 44 15 48 15 49 -6 55 -11 3 -61 6 -111 6 -67 0 -101 -5 -132 -19z"/>
<path d="M5230 1194 c-14 -2 -49 -9 -77 -15 l-53 -10 0 -92 c-1 -51 -3 -149
-6 -219 l-5 -128 61 0 60 0 0 179 c0 198 -3 191 69 191 20 0 47 -7 59 -16 21
-15 22 -21 22 -185 l0 -169 60 0 60 0 2 183 3 182 53 0 c82 -1 84 -5 90 -199
l5 -166 54 0 55 0 -4 188 c-3 208 -8 226 -71 259 -31 16 -57 17 -242 10 -27
-1 -77 1 -110 5 -33 3 -71 4 -85 2z"/>
<path d="M5986 1188 c-112 -16 -178 -104 -180 -238 -1 -69 2 -82 29 -125 57
-92 174 -128 288 -89 65 22 71 33 38 72 -24 30 -29 32 -54 23 -40 -15 -93 -14
-127 4 -45 23 -63 67 -58 138 4 54 8 63 42 95 35 32 42 34 85 29 25 -4 57 -9
71 -12 22 -6 28 -1 43 30 21 44 21 42 -4 56 -32 17 -118 26 -173 17z"/>
<path d="M1914 1171 c-84 -38 -131 -131 -121 -240 9 -109 58 -168 157 -190 25
-6 102 -11 173 -11 l127 0 0 143 c0 198 -20 256 -100 297 -53 27 -178 27 -236
1z m155 -82 c40 -14 57 -47 66 -131 9 -95 1 -125 -37 -133 -55 -13 -119 4
-155 40 -30 30 -33 39 -33 92 0 112 64 165 159 132z"/>
<path d="M2322 1008 c4 -204 12 -233 71 -265 49 -27 229 -26 275 2 59 36 72
81 72 251 0 198 1 194 -66 194 l-54 0 0 -162 c0 -90 -4 -168 -8 -174 -25 -38
-120 -46 -152 -14 -18 18 -20 33 -20 185 l0 165 -61 0 -61 0 4 -182z"/>
<path d="M3845 1178 c-48 -17 -93 -56 -117 -101 -18 -33 -23 -59 -23 -122 0
-69 4 -86 27 -127 45 -76 90 -92 276 -96 l154 -4 -4 163 c-3 153 -5 167 -28
209 -37 66 -86 90 -180 89 -41 0 -88 -5 -105 -11z m139 -92 c44 -18 56 -55 56
-167 l0 -88 -43 -6 c-46 -7 -111 6 -140 27 -27 20 -45 83 -37 133 15 97 78
137 164 101z"/>
<path d="M4353 1174 c-57 -21 -98 -70 -112 -134 -6 -28 -11 -109 -11 -180 l0
-130 59 0 59 0 4 150 3 150 33 32 c30 31 37 33 92 31 l59 -2 6 32 c4 18 9 40
11 50 5 15 -3 17 -78 16 -46 0 -102 -7 -125 -15z"/>
<path d="M4701 1177 c-54 -17 -107 -74 -125 -136 -31 -105 -16 -184 48 -247
52 -52 102 -64 271 -64 l125 0 0 148 c0 81 -5 164 -10 184 -14 48 -55 97 -97
114 -38 16 -163 17 -212 1z m171 -104 c25 -23 38 -76 38 -161 0 -70 -1 -73
-27 -83 -29 -11 -115 -3 -146 13 -77 41 -74 208 5 243 39 18 104 12 130 -12z"/>
<path d="M6345 1171 c-184 -85 -179 -351 7 -431 163 -70 346 65 325 241 -7 55
-35 114 -69 146 -64 60 -185 80 -263 44z m174 -108 c64 -47 75 -133 25 -192
-84 -101 -251 -21 -229 109 16 94 127 139 204 83z"/>
<path d="M3336 1171 c-7 -11 -5 -409 2 -428 2 -8 23 -13 53 -13 42 0 49 3 54
23 3 12 4 112 3 222 l-3 200 -52 3 c-28 2 -54 -1 -57 -7z"/>
<path d="M8650 1168 c0 -9 -6 -19 -12 -21 -10 -4 -10 -6 0 -6 14 -1 28 26 18
36 -3 4 -6 -1 -6 -9z"/>
<path d="M8797 896 c-4 -10 -1 -13 9 -9 15 6 19 23 5 23 -5 0 -11 -7 -14 -14z"/>
<path d="M8826 864 c-4 -9 -4 -19 -2 -21 8 -8 26 8 26 23 0 19 -16 18 -24 -2z"/>
<path d="M8738 833 c7 -3 16 -2 19 1 4 3 -2 6 -13 5 -11 0 -14 -3 -6 -6z"/>
<path d="M8764 806 c-10 -8 -16 -18 -11 -22 4 -4 7 -2 7 5 0 7 4 10 9 7 5 -3
11 1 15 9 7 19 5 19 -20 1z"/>
</g>
</svg>
