<?xml version="1.0" encoding="UTF-8"?>
<svg version="1.1" xmlns="http://www.w3.org/2000/svg" width="743" height="207">
<path d="M0 0 C67.65 0 135.3 0 205 0 C205 67.65 205 135.3 205 205 C137.35 205 69.7 205 0 205 C0 137.35 0 69.7 0 0 Z " fill="#45AB4A" transform="translate(538,1)"/>
<path d="M0 0 C67.65 0 135.3 0 205 0 C205 67.65 205 135.3 205 205 C194.44 205 183.88 205 173 205 C172.67 201.7 172.34 198.4 172 195 C172.66 195.33 173.32 195.66 174 196 C174 196.66 174 197.32 174 198 C174.66 198 175.32 198 176 198 C175.67 195.69 175.34 193.38 175 191 C174.01 191 173.02 191 172 191 C171.67 191.99 171.34 192.98 171 194 C170.67 191.69 170.34 189.38 170 187 C170.66 187 171.32 187 172 187 C171.02865926 181.79383542 171.02865926 181.79383542 167.4375 178.1875 C166.2309375 177.5996875 166.2309375 177.5996875 165 177 C163.27064277 173.54128554 163.80371672 169.95960716 164.5625 166.25 C165.24197896 163.97586562 165.24197896 163.97586562 164 162 C163.38125 161.938125 162.7625 161.87625 162.125 161.8125 C160 161 160 161 158.3125 157.875 C157.29570178 155.24423635 156.92753232 153.31155704 156.625 150.4375 C155.95576779 146.75672283 154.82718739 145.40906149 152.328125 142.73046875 C150.16975468 139.91823919 149.19087129 136.68176211 147.96484375 133.3828125 C146.70952014 130.28262059 144.90586414 127.73967971 143 125 C141.93121895 122.89754384 140.91697378 120.77855883 139.9296875 118.63671875 C139.09653465 116.81625064 139.09653465 116.81625064 137 116 C133.88721805 110.81203008 133.88721805 110.81203008 134.3125 107.75 C134.6528125 106.88375 134.6528125 106.88375 135 106 C135 105.34 135 104.68 135 104 C135 102.33333333 135 100.66666667 135 99 C135.66 98.67 136.32 98.34 137 98 C136.01 97.34 135.02 96.68 134 96 C134.04125 96.94875 134.0825 97.8975 134.125 98.875 C134 102 134 102 132 104 C132.3185177 106.10820797 132.3185177 106.10820797 133 108 C130.625 108.625 130.625 108.625 128 109 C126 107 126 107 125.875 104.5625 C125.91625 103.716875 125.9575 102.87125 126 102 C126 100.1665483 125.98332198 98.33287902 125.9375 96.5 C126 94 126 94 127 91 C125.515 91.495 125.515 91.495 124 92 C124.33 93.32 124.66 94.64 125 96 C122.625 96.625 122.625 96.625 120 97 C119.34 96.34 118.68 95.68 118 95 C118 93.68 118 92.36 118 91 C118.66 90.67 119.32 90.34 120 90 C118.02 89.01 118.02 89.01 116 88 C116.33 89.65 116.66 91.3 117 93 C116.01 93.66 115.02 94.32 114 95 C114.33 96.65 114.66 98.3 115 100 C112.625 100.125 112.625 100.125 110 100 C108 98 108 98 107.875 95.5625 C107.91625 94.716875 107.9575 93.87125 108 93 C108 92.01 108 91.02 108 90 C108.375 87.875 108.375 87.875 109 86 C109.66 85.67 110.32 85.34 111 85 C109.02 84.505 109.02 84.505 107 84 C107 85.32 107 86.64 107 88 C104.625 88.125 104.625 88.125 102 88 C101.34 87.34 100.68 86.68 100 86 C100.375 84.0625 100.375 84.0625 101 82 C101 81.01 101 80.02 101 79 C100.67 79 100.34 79 100 79 C99.731875 79.969375 99.46375 80.93875 99.1875 81.9375 C98.795625 82.948125 98.40375 83.95875 98 85 C96.515 85.495 96.515 85.495 95 86 C95.33 87.65 95.66 89.3 96 91 C93.625 91.125 93.625 91.125 91 91 C90.34 90.34 89.68 89.68 89 89 C89 88.01 89 87.02 89 86 C86.36 86.33 83.72 86.66 81 87 C79 84 79 84 79.25 81.875 C80 80 80 80 82 79 C81.690625 77.824375 81.690625 77.824375 81.375 76.625 C81.25125 75.75875 81.1275 74.8925 81 74 C81.66 73.34 82.32 72.68 83 72 C83 71.175 83 70.35 83 69.5 C83 67 83 67 85 65 C82.36 63.68 79.72 62.36 77 61 C77.33 59.35 77.66 57.7 78 56 C78.66 56 79.32 56 80 56 C79.505 54.02 79.505 54.02 79 52 C79.99 51.34 80.98 50.68 82 50 C81.34 49.67 80.68 49.34 80 49 C80 48.34 80 47.68 80 47 C78.906875 46.896875 77.81375 46.79375 76.6875 46.6875 C73.14440371 46.02692273 72.06756277 45.7972908 70 43 C70.33 42.01 70.66 41.02 71 40 C69.741875 39.896875 68.48375 39.79375 67.1875 39.6875 C63.67430688 39.25065812 62.31572545 38.73676644 60 36 C58.02379014 34.95377125 56.0262871 33.94560065 54 33 C54.66 31.35 55.32 29.7 56 28 C55.071875 28 54.14375 28 53.1875 28 C51.125 28 49.0625 28 47 28 C46.34 27.01 45.68 26.02 45 25 C43.14387185 24.53755893 41.2851983 24.08351575 39.41650391 23.67480469 C34.57792024 22.32363826 30.16660597 19.86308057 25.6875 17.625 C13.39451401 10.88568565 13.39451401 10.88568565 0 8 C0 5.36 0 2.72 0 0 Z " fill="#1D88C8" transform="translate(538,1)"/>
<path d="M0 0 C3.63 0 7.26 0 11 0 C11.09901273 7.01086321 11.17153827 14.02131773 11.21972656 21.03271484 C11.23981893 23.41690157 11.26709781 25.80103915 11.30175781 28.18505859 C11.35037859 31.61568338 11.37299312 35.04565555 11.390625 38.4765625 C11.41127014 39.53928375 11.43191528 40.602005 11.45318604 41.69692993 C11.454962 47.57861961 11.25871398 51.52407889 7 56 C3.49633909 57.98309052 0.56711766 58.23315736 -3.4140625 58.16015625 C-4.42210937 58.14919922 -5.43015625 58.13824219 -6.46875 58.12695312 C-8.03109375 58.09504883 -8.03109375 58.09504883 -9.625 58.0625 C-11.70045147 58.02807912 -13.77597956 57.99793579 -15.8515625 57.97265625 C-16.76760254 57.95468994 -17.68364258 57.93672363 -18.62744141 57.91821289 C-21.15137613 57.89303852 -21.15137613 57.89303852 -24 59 C-29.37189541 59.36675591 -34.64313956 58.90511056 -39.95703125 58.12109375 C-41.95975504 57.88580492 -41.95975504 57.88580492 -43.65179443 58.49107361 C-46.97129964 59.21050969 -50.23768736 59.08286777 -53.61425781 59.02172852 C-54.37562042 59.01212097 -55.13698303 59.00251343 -55.92141724 58.99261475 C-58.43208267 58.95969571 -60.94257022 58.9193365 -63.453125 58.87890625 C-65.196181 58.85459819 -66.93924354 58.83075498 -68.68231201 58.80735779 C-73.26578227 58.74458508 -77.84913646 58.67549916 -82.43249512 58.60510254 C-87.11119307 58.53435753 -91.78997318 58.46957748 -96.46875 58.40429688 C-105.64592363 58.27537237 -114.82298572 58.13977886 -124 58 C-124.05188477 58.61053223 -124.10376953 59.22106445 -124.15722656 59.85009766 C-124.23424805 60.65495605 -124.31126953 61.45981445 -124.390625 62.2890625 C-124.46313477 63.08521973 -124.53564453 63.88137695 -124.61035156 64.70166016 C-125.39105227 69.30662035 -127.80911559 72.13660881 -131.5 74.8125 C-135.0345652 76.49141847 -138.10349742 77.12626741 -142.00390625 77.1328125 C-142.74447266 77.13410156 -143.48503906 77.13539063 -144.24804688 77.13671875 C-145.01181641 77.13285156 -145.77558594 77.12898438 -146.5625 77.125 C-147.33013672 77.12886719 -148.09777344 77.13273437 -148.88867188 77.13671875 C-152.17927139 77.130981 -154.85758907 77.04747031 -158 76 C-158 72.37 -158 68.74 -158 65 C-156.35 65.33 -154.7 65.66 -153 66 C-150.98295338 66.16168179 -148.96043276 66.26390869 -146.9375 66.3125 C-145.91527344 66.34988281 -144.89304687 66.38726562 -143.83984375 66.42578125 C-140.2583364 65.88880147 -139.16461274 64.85448932 -137 62 C-136.2127322 59.8618034 -136.2127322 59.8618034 -136 58 C-137.01320312 58.03480469 -138.02640625 58.06960937 -139.0703125 58.10546875 C-140.4218583 58.13362595 -141.77342219 58.16092403 -143.125 58.1875 C-143.79015625 58.21263672 -144.4553125 58.23777344 -145.140625 58.26367188 C-151.42907473 58.35614908 -155.24425708 56.67593642 -159.75 52.375 C-163.8579964 46.9641439 -164.38447196 41.03154169 -163.5625 34.4375 C-162.31983234 28.6921794 -159.58269089 24.66431596 -155 21 C-151.00421475 18.92056074 -147.53417086 18.7020657 -143.0625 18.6875 C-141.28552734 18.66236328 -141.28552734 18.66236328 -139.47265625 18.63671875 C-134.53612533 19.15313874 -131.24824748 20.75175252 -127.75 24.25 C-124.18034481 29.85945816 -123.75945096 35.40897897 -123.875 41.9375 C-123.88402344 42.62134766 -123.89304688 43.30519531 -123.90234375 44.00976562 C-123.92561042 45.67333287 -123.96146833 47.33671631 -124 49 C-118.06 48.505 -118.06 48.505 -112 48 C-113.4540625 45.834375 -113.4540625 45.834375 -114.9375 43.625 C-118.31491805 38.59480291 -119.78526619 35.18974529 -119 29 C-116.72233387 23.85049397 -113.69364277 21.74461104 -108.62109375 19.75390625 C-99.20051865 17.04426244 -89.25231647 17.13510011 -80.5625 21.875 C-77.19609179 24.66665559 -75.45677373 26.56442541 -74.125 30.75 C-73.86729027 37.45045305 -77.1730853 42.72149696 -81 48 C-74.07 48.495 -74.07 48.495 -67 49 C-67 40.09 -67 31.18 -67 22 C-63.37 22 -59.74 22 -56 22 C-55.67 30.58 -55.34 39.16 -55 48 C-52.69 48 -50.38 48 -48 48 C-46.25493385 46.25493385 -46.76717216 43.80960857 -46.68359375 41.43359375 C-46.64169922 40.30888672 -46.59980469 39.18417969 -46.55664062 38.02539062 C-46.51732422 36.84138672 -46.47800781 35.65738281 -46.4375 34.4375 C-46.37272461 32.65569336 -46.37272461 32.65569336 -46.30664062 30.83789062 C-46.20016547 27.89207803 -46.09954319 24.94605498 -46 22 C-42.37 22 -38.74 22 -35 22 C-34.67 30.58 -34.34 39.16 -34 48 C-31.69 48 -29.38 48 -27 48 C-24.80835056 44.71252584 -24.71320614 43.51505175 -24.5859375 39.67578125 C-24.52792969 38.13374023 -24.52792969 38.13374023 -24.46875 36.56054688 C-24.4378125 35.48869141 -24.406875 34.41683594 -24.375 33.3125 C-24.31699219 31.68731445 -24.31699219 31.68731445 -24.2578125 30.02929688 C-24.16349884 27.35314666 -24.08065874 24.67659658 -24 22 C-20.37 22 -16.74 22 -13 22 C-12.67 30.58 -12.34 39.16 -12 48 C-9.03 48 -6.06 48 -3 48 C-0.91617138 44.87425707 -0.74110041 44.09547445 -0.68115234 40.52856445 C-0.66128265 39.62785721 -0.64141296 38.72714996 -0.62094116 37.79914856 C-0.60938995 36.83031235 -0.59783875 35.86147614 -0.5859375 34.86328125 C-0.56657135 33.86870407 -0.5472052 32.87412689 -0.5272522 31.84941101 C-0.46743841 28.6705281 -0.42106361 25.49160902 -0.375 22.3125 C-0.3368219 20.15818727 -0.29777027 18.00388983 -0.2578125 15.84960938 C-0.16173528 10.56653034 -0.0777107 5.28337983 0 0 Z M-150 31 C-152.68209911 35.02314866 -152.68843415 38.27219919 -152 43 C-149.88608123 46.49890004 -148.88263941 47.70578686 -145 49 C-143.27204648 49.06802967 -141.54164635 49.08495645 -139.8125 49.0625 C-138.91144531 49.05347656 -138.01039063 49.04445313 -137.08203125 49.03515625 C-136.05142578 49.01775391 -136.05142578 49.01775391 -135 49 C-134.53178432 39.0764522 -134.53178432 39.0764522 -138 30 C-142.81158101 26.79227933 -145.57338286 27.85477203 -150 31 Z M-108 31 C-108.15114765 37.95279171 -104.59414993 41.17991482 -99.93359375 46.05859375 C-98.97646484 47.01958984 -98.97646484 47.01958984 -98 48 C-93.87676634 46.6706126 -91.86172107 45.12549565 -89.25 41.6875 C-88.36054688 40.54861328 -88.36054688 40.54861328 -87.453125 39.38671875 C-85.90547595 36.8447468 -85.28378897 34.95240104 -85 32 C-86.90419609 29.19381629 -88.78200718 28.65292608 -92 28 C-98.14099166 27.40973832 -102.51694814 28.20014373 -108 31 Z " fill="#60636B" transform="translate(270,74)"/>
<path d="M0 0 C-3.09809254 4.98455483 -6.7144851 9.12662278 -10.75 13.375 C-11.35199219 14.01566406 -11.95398438 14.65632813 -12.57421875 15.31640625 C-14.04562603 16.88123622 -15.52227821 18.44113164 -17 20 C-16.20335937 20.20753906 -15.40671875 20.41507813 -14.5859375 20.62890625 C-7.60731884 22.65796934 -2.77320596 24.57212739 1 31 C2.12589491 34.37768474 2.13294275 37.00812072 2.125 40.5625 C2.12886719 42.29693359 2.12886719 42.29693359 2.1328125 44.06640625 C2 47 2 47 1 49 C3.31 49 5.62 49 8 49 C7.96519531 48.02160156 7.93039062 47.04320312 7.89453125 46.03515625 C7.53907386 28.82086246 7.53907386 28.82086246 12.46484375 23.3828125 C18.13897523 18.47170603 23.04761655 18.58190218 30.28515625 18.72265625 C36.52828923 19.18875766 39.74908009 21.41504527 43.875 26.0625 C47.10824468 30.5319853 47.21064756 33.89287808 47.3125 39.3125 C47.36857422 41.25576172 47.36857422 41.25576172 47.42578125 43.23828125 C46.93308258 47.59120623 45.74510547 49.63280229 43 53 C37.57616728 57.09554716 33.95173494 58.1255866 27.23364258 58.11352539 C26.55045456 58.11367142 25.86726654 58.11381744 25.16337585 58.1139679 C22.90706193 58.11327169 20.65083074 58.10549296 18.39453125 58.09765625 C16.82940211 58.09579103 15.26427239 58.09436762 13.69914246 58.09336853 C9.58096707 58.08955152 5.46282698 58.07972818 1.34466553 58.06866455 C-2.85810875 58.05843291 -7.06088873 58.05386715 -11.26367188 58.04882812 C-19.50913078 58.03810519 -27.754561 58.02103854 -36 58 C-35.97550781 59.08925781 -35.95101562 60.17851562 -35.92578125 61.30078125 C-36.009723 65.484615 -36.7468319 67.50370467 -39 71 C-44.78142201 76.47713665 -49.92114078 77.31212303 -57.5625 77.1875 C-58.31724609 77.18685547 -59.07199219 77.18621094 -59.84960938 77.18554688 C-63.45712624 77.15694101 -66.47940302 76.88014925 -70 76 C-70 72.37 -70 68.74 -70 65 C-68.35 65.33 -66.7 65.66 -65 66 C-62.98075149 66.0902161 -60.95875638 66.13011064 -58.9375 66.125 C-57.91527344 66.12757813 -56.89304687 66.13015625 -55.83984375 66.1328125 C-53.38350068 66.01793538 -51.34231684 65.70775041 -49 65 C-48.34 62.69 -47.68 60.38 -47 58 C-47.99 58.04640625 -48.98 58.0928125 -50 58.140625 C-64.51568273 58.62209213 -64.51568273 58.62209213 -70 54 C-75.29821292 47.34327095 -75.75447176 41.26775304 -75 33 C-73.41106828 27.63735545 -70.76291624 24.02038591 -66 21 C-59.55013197 17.88237552 -51.55880282 17.79145831 -44.671875 19.6171875 C-39.80119657 22.01017299 -37.72633387 26.09984361 -36 31 C-35.56437805 34.19411625 -35.61383825 37.28448787 -35.75 40.5 C-35.76804687 41.32242188 -35.78609375 42.14484375 -35.8046875 42.9921875 C-35.8512717 44.99530804 -35.92299301 46.99781821 -36 49 C-32.77016338 48.88957056 -29.54143474 48.75907341 -26.3125 48.625 C-24.94448242 48.57859375 -24.94448242 48.57859375 -23.54882812 48.53125 C-17.03173428 48.30319692 -17.03173428 48.30319692 -11 46 C-9.43528767 42.87057535 -9.30298042 39.38917777 -10 36 C-11.33266399 33.59516538 -11.33266399 33.59516538 -14 32 C-17.24419671 31.37315648 -20.45236919 31.30358041 -23.75 31.25 C-24.63816406 31.22035156 -25.52632813 31.19070312 -26.44140625 31.16015625 C-28.62769449 31.08963082 -30.81292768 31.03685363 -33 31 C-33.89974895 22.33087866 -33.89974895 22.33087866 -31.6875 19.05859375 C-29.85202438 17.29276787 -27.93489225 15.65578498 -26 14 C-24.767155 12.66811036 -23.55847125 11.31344789 -22.375 9.9375 C-21.78589844 9.27621094 -21.19679688 8.61492187 -20.58984375 7.93359375 C-18.98338491 6.08836123 -18.98338491 6.08836123 -17.94140625 4.16015625 C-14.04682641 -2.2802968 -6.5251351 -0.47680284 0 0 Z M-62 31 C-64.32122784 34.69286247 -64.20843115 37.95870824 -63.546875 42.1328125 C-62.72703568 44.93197817 -61.31608123 46.2969991 -59 48 C-56.11788698 48.96070434 -54.30149956 49.10581883 -51.3125 49.0625 C-50.50425781 49.05347656 -49.69601562 49.04445313 -48.86328125 49.03515625 C-48.24839844 49.02355469 -47.63351562 49.01195313 -47 49 C-46.94571027 46.77110504 -46.90707662 44.54182529 -46.875 42.3125 C-46.85179687 41.07113281 -46.82859375 39.82976562 -46.8046875 38.55078125 C-46.99120866 35.15982649 -47.43996221 32.98824141 -49 30 C-53.65038095 26.74473333 -57.6835045 27.70583238 -62 31 Z M22.125 29.625 C18.50539729 33.67043833 18.87983628 38.06510136 18.9375 43.3125 C18.94652344 44.38113281 18.95554687 45.44976562 18.96484375 46.55078125 C18.97644531 47.35902344 18.98804688 48.16726562 19 49 C27.04540326 49.58090094 27.04540326 49.58090094 34 46 C36.69432126 41.95851811 36.65757261 38.74451124 36 34 C34.63057551 30.89152427 34.63057551 30.89152427 32 29 C27.82192906 27.70859626 25.96725738 27.45328931 22.125 29.625 Z " fill="#60636B" transform="translate(391,74)"/>
<path d="M0 0 C0.99 0.33 1.98 0.66 3 1 C2.835 2.0725 2.67 3.145 2.5 4.25 C1.91189085 8.03028752 1.91189085 8.03028752 2 12 C1.4740625 13.7634375 1.4740625 13.7634375 0.9375 15.5625 C-0.32646418 18.94510779 -0.32646418 18.94510779 1 22 C2.65 22.33 4.3 22.66 6 23 C6 25 6 27 6 29 C5.38125 28.835 4.7625 28.67 4.125 28.5 C2.03936614 27.92365356 2.03936614 27.92365356 0 28 C0 28.66 0 29.32 0 30 C-0.99 30.495 -0.99 30.495 -2 31 C-1.34 32.32 -0.68 33.64 0 35 C-0.99 35.495 -0.99 35.495 -2 36 C-1.01 36 -0.02 36 1 36 C1 34.68 1 33.36 1 32 C1 31.34 1 30.68 1 30 C2.65 30.33 4.3 30.66 6 31 C5.79375 31.61875 5.5875 32.2375 5.375 32.875 C5.189375 33.926875 5.189375 33.926875 5 35 C6.86745332 37.17433143 6.86745332 37.17433143 9.5625 37.8125 C10.366875 38.204375 11.17125 38.59625 12 39 C12.6875 41.5625 12.6875 41.5625 13 44 C13.99 44.495 13.99 44.495 15 45 C15 43.68 15 42.36 15 41 C16.65 41.66 18.3 42.32 20 43 C19.7215625 43.86625 19.7215625 43.86625 19.4375 44.75 C18.95392021 47.23698179 19.37699581 48.58585878 20 51 C19.67 51.99 19.34 52.98 19 54 C19.7425 54.103125 20.485 54.20625 21.25 54.3125 C24.1863157 55.04657893 25.66108288 56.14499677 28 58 C28.66 58 29.32 58 30 58 C29.67 57.01 29.34 56.02 29 55 C30.98 55.495 30.98 55.495 33 56 C33 57.32 33 58.64 33 60 C34.32 60.66 35.64 61.32 37 62 C36.505 60.02 36.505 60.02 36 58 C37.32 58.66 38.64 59.32 40 60 C40 61.32 40 62.64 40 64 C40.2981424 65.34164079 40.62243192 66.67851173 41 68 C39.35 67.67 37.7 67.34 36 67 C36 66.34 36 65.68 36 65 C35.34 65 34.68 65 34 65 C34 66.65 34 68.3 34 70 C32.35 69.67 30.7 69.34 29 69 C28.31292445 66.50935112 28 64.62113708 28 62 C27.67 63.65 27.34 65.3 27 67 C26.34 67 25.68 67 25 67 C25.33 68.65 25.66 70.3 26 72 C25.01 72.495 25.01 72.495 24 73 C24.66 73.66 25.32 74.32 26 75 C26 76.32 26 77.64 26 79 C25.01 79.495 25.01 79.495 24 80 C24.66 81.65 25.32 83.3 26 85 C22 85 22 85 20.25 83.5 C19.8375 83.005 19.425 82.51 19 82 C18.34 82.66 17.68 83.32 17 84 C17.66 85.65 18.32 87.3 19 89 C19.33 88.34 19.66 87.68 20 87 C23.875 87.875 23.875 87.875 25 89 C25.07244053 91.01964199 25.08377188 93.04167124 25.0625 95.0625 C25.05347656 96.16722656 25.04445313 97.27195312 25.03515625 98.41015625 C25.02355469 99.26480469 25.01195312 100.11945313 25 101 C22.58203125 100.62890625 22.58203125 100.62890625 20 100 C18.6875 97.9375 18.6875 97.9375 18 96 C15.525 96.495 15.525 96.495 13 97 C11.4375 95.25 11.4375 95.25 10 93 C10.3125 90.875 10.3125 90.875 11 89 C11 88.34 11 87.68 11 87 C11 85.33333333 11 83.66666667 11 82 C11.66 81.67 12.32 81.34 13 81 C12.01 80.34 11.02 79.68 10 79 C10.04125 79.94875 10.0825 80.8975 10.125 81.875 C10 85 10 85 8 87 C8.3185177 89.10820797 8.3185177 89.10820797 9 91 C6.625 91.625 6.625 91.625 4 92 C2 90 2 90 1.875 87.5625 C1.91625 86.716875 1.9575 85.87125 2 85 C2 83.1665483 1.98332198 81.33287902 1.9375 79.5 C2 77 2 77 3 74 C2.01 74.33 1.02 74.66 0 75 C0.33 76.32 0.66 77.64 1 79 C-1.375 79.625 -1.375 79.625 -4 80 C-4.99 79.01 -4.99 79.01 -6 78 C-6 76.68 -6 75.36 -6 74 C-5.34 73.67 -4.68 73.34 -4 73 C-5.32 72.34 -6.64 71.68 -8 71 C-7.67 72.65 -7.34 74.3 -7 76 C-7.99 76.66 -8.98 77.32 -10 78 C-9.67 79.65 -9.34 81.3 -9 83 C-11.375 83.125 -11.375 83.125 -14 83 C-16 81 -16 81 -16.125 78.5625 C-16.08375 77.716875 -16.0425 76.87125 -16 76 C-16 75.01 -16 74.02 -16 73 C-15.625 70.875 -15.625 70.875 -15 69 C-14.34 68.67 -13.68 68.34 -13 68 C-14.32 67.67 -15.64 67.34 -17 67 C-17 68.32 -17 69.64 -17 71 C-19.375 71.125 -19.375 71.125 -22 71 C-22.66 70.34 -23.32 69.68 -24 69 C-23.625 67.0625 -23.625 67.0625 -23 65 C-23 64.01 -23 63.02 -23 62 C-23.33 62 -23.66 62 -24 62 C-24.268125 62.969375 -24.53625 63.93875 -24.8125 64.9375 C-25.204375 65.948125 -25.59625 66.95875 -26 68 C-27.485 68.495 -27.485 68.495 -29 69 C-28.67 70.65 -28.34 72.3 -28 74 C-30.375 74.125 -30.375 74.125 -33 74 C-33.66 73.34 -34.32 72.68 -35 72 C-35 71.01 -35 70.02 -35 69 C-37.64 69.33 -40.28 69.66 -43 70 C-45 67 -45 67 -44.75 64.875 C-44 63 -44 63 -42 62 C-42.20625 61.21625 -42.4125 60.4325 -42.625 59.625 C-42.74875 58.75875 -42.8725 57.8925 -43 57 C-42.34 56.34 -41.68 55.68 -41 55 C-41 54.175 -41 53.35 -41 52.5 C-41 50 -41 50 -39 48 C-41.64 46.68 -44.28 45.36 -47 44 C-46.67 42.35 -46.34 40.7 -46 39 C-45.34 39 -44.68 39 -44 39 C-44.33 37.68 -44.66 36.36 -45 35 C-44.01 34.34 -43.02 33.68 -42 33 C-42.33 31.68 -42.66 30.36 -43 29 C-42.01 28.67 -41.02 28.34 -40 28 C-40.33 26.68 -40.66 25.36 -41 24 C-38.625 23.875 -38.625 23.875 -36 24 C-35.34 24.66 -34.68 25.32 -34 26 C-33.01 26 -32.02 26 -31 26 C-31 25.01 -31 24.02 -31 23 C-30.34 22.67 -29.68 22.34 -29 22 C-29 21.01 -29 20.02 -29 19 C-24.13782216 19.45582917 -19.58317598 21.7013442 -16 25 C-16 26.32 -16 27.64 -16 29 C-15.34 29 -14.68 29 -14 29 C-14 28.01 -14 27.02 -14 26 C-13.34 25.67 -12.68 25.34 -12 25 C-12.495 23.515 -12.495 23.515 -13 22 C-12.34 21.67 -11.68 21.34 -11 21 C-11 20.34 -11 19.68 -11 19 C-10.34 19 -9.68 19 -9 19 C-9.495 17.02 -9.495 17.02 -10 15 C-9.34 14.67 -8.68 14.34 -8 14 C-8.495 13.01 -8.495 13.01 -9 12 C-6.83125748 12.50603992 -5.00032373 12.99983813 -3 14 C-3.495 11.525 -3.495 11.525 -4 9 C-4.33 9.66 -4.66 10.32 -5 11 C-5.99 10.67 -6.98 10.34 -8 10 C-7.34 9.67 -6.68 9.34 -6 9 C-6.495 7.515 -6.495 7.515 -7 6 C-6.67 5.01 -6.34 4.02 -6 3 C-3.525 3.495 -3.525 3.495 -1 4 C-0.67 2.68 -0.34 1.36 0 0 Z " fill="#F5F8FA" transform="translate(662,18)"/>
<path d="M0 0 C3.74823699 1.99905973 5.90458688 4.44942917 7.62890625 8.28125 C8.45236609 11.05343413 8.74843355 13.50364636 8.7265625 16.390625 C8.72333984 17.14472656 8.72011719 17.89882812 8.71679688 18.67578125 C8.70422852 19.84173828 8.70422852 19.84173828 8.69140625 21.03125 C8.68689453 21.82402344 8.68238281 22.61679688 8.67773438 23.43359375 C8.6659919 25.38284508 8.64805771 27.33205738 8.62890625 29.28125 C11.92890625 28.62125 15.22890625 27.96125 18.62890625 27.28125 C18.95890625 18.04125 19.28890625 8.80125 19.62890625 -0.71875 C23.58890625 -0.71875 27.54890625 -0.71875 31.62890625 -0.71875 C31.7100174 3.8024458 31.76946952 8.32217842 31.81640625 12.84375 C31.84154297 14.12056641 31.86667969 15.39738281 31.89257812 16.71289062 C31.98945418 29.14531825 31.98945418 29.14531825 28.62890625 34.28125 C23.62179707 38.49178452 19.82802757 38.8743359 13.57421875 38.8125 C12.71384003 38.8163269 11.8534613 38.82015381 10.9670105 38.82409668 C9.15328802 38.82680916 7.33952597 38.81949458 5.52587891 38.80273438 C2.76895575 38.78136664 0.01465383 38.80253033 -2.7421875 38.828125 C-4.51172444 38.82548058 -6.28125976 38.82035324 -8.05078125 38.8125 C-8.86561981 38.82059692 -9.68045837 38.82869385 -10.51998901 38.83703613 C-16.23212014 38.74480161 -20.58975445 37.46781355 -25.37109375 34.28125 C-30.77978879 28.59518599 -30.77739548 23.38517152 -30.71484375 15.80859375 C-30.23672017 10.90239386 -28.779653 7.80520318 -25.37109375 4.28125 C-18.12037597 -1.37430987 -8.89927917 -2.69763981 0 0 Z M-17.37109375 11.28125 C-19.93741892 14.70301689 -19.73544426 18.12765421 -19.37109375 22.28125 C-17.6743972 26.09881724 -16.22728407 27.76728796 -12.37109375 29.28125 C-9.77954456 29.52154959 -9.77954456 29.52154959 -7.12109375 29.40625 C-5.78304688 29.37917969 -5.78304688 29.37917969 -4.41796875 29.3515625 C-3.7425 29.32835938 -3.06703125 29.30515625 -2.37109375 29.28125 C-2.28967155 27.05269426 -2.23171296 24.82327345 -2.18359375 22.59375 C-2.14878906 21.35238281 -2.11398438 20.11101562 -2.078125 18.83203125 C-2.39137187 15.0354792 -3.06351722 13.26657629 -5.37109375 10.28125 C-10.14372384 7.09949661 -13.00527515 8.06433103 -17.37109375 11.28125 Z " fill="#60646B" transform="translate(31.37109375,93.71875)"/>
<path d="M0 0 C1.72283203 0.02320313 1.72283203 0.02320313 3.48046875 0.046875 C6.8125 0.25 6.8125 0.25 9.98828125 0.828125 C12.80927332 1.24951801 14.14027101 1.03224385 16.8125 0.25 C24.22815901 -0.38801862 29.82717074 -0.43417072 35.8125 4.25 C38.32634069 7.86463166 38.04193698 11.34094024 38.0078125 15.640625 C38.0049826 16.34523865 38.00215271 17.04985229 37.99923706 17.77581787 C37.98807801 20.0173876 37.96298193 22.25855186 37.9375 24.5 C37.92746464 26.02343171 37.91833976 27.54686971 37.91015625 29.0703125 C37.88815291 32.79700586 37.85365272 36.52346333 37.8125 40.25 C34.1825 40.25 30.5525 40.25 26.8125 40.25 C26.4825 31.01 26.1525 21.77 25.8125 12.25 C21.09104301 10.00240622 21.09104301 10.00240622 16.8125 10.25 C16.8125 20.15 16.8125 30.05 16.8125 40.25 C13.1825 40.25 9.5525 40.25 5.8125 40.25 C5.78744385 39.44256348 5.7623877 38.63512695 5.73657227 37.80322266 C5.62084513 34.16031083 5.49801365 30.51767274 5.375 26.875 C5.33568359 25.60398438 5.29636719 24.33296875 5.25585938 23.0234375 C5.21396484 21.81171875 5.17207031 20.6 5.12890625 19.3515625 C5.09224854 18.23088379 5.05559082 17.11020508 5.01782227 15.95556641 C4.98653987 13.28287229 4.98653987 13.28287229 3.8125 11.25 C0.8425 10.92 -2.1275 10.59 -5.1875 10.25 C-5.1875 20.15 -5.1875 30.05 -5.1875 40.25 C-8.8175 40.25 -12.4475 40.25 -16.1875 40.25 C-16.1875 28.04 -16.1875 15.83 -16.1875 3.25 C-6.02876984 -0.13624339 -6.02876984 -0.13624339 0 0 Z " fill="#60646B" transform="translate(385.1875,165.75)"/>
<path d="M0 0 C3.63 0 7.26 0 11 0 C11 17.82 11 35.64 11 54 C-12 54 -12 54 -22 50 C-27.19539416 44.80460584 -27.35016591 39.87441537 -27.38500977 32.7722168 C-27.25596432 26.99446852 -26.17329518 23.04809632 -22 19 C-16.21825126 14.61206569 -11.11001623 13.74145396 -4 14 C-3.01 14.33 -2.02 14.66 -1 15 C-0.67 10.05 -0.34 5.1 0 0 Z M-13.375 25.875 C-16.17543907 29.53711263 -16.39527314 32.21422998 -16.3515625 36.73828125 C-16.13289047 39.3123997 -16.13289047 39.3123997 -13.75 42 C-9.07695715 45.39857662 -5.71376833 45.0198855 0 45 C0.05407567 42.41638482 0.093707 39.83390745 0.125 37.25 C0.14175781 36.52039063 0.15851563 35.79078125 0.17578125 35.0390625 C0.24714584 29.69565666 0.24714584 29.69565666 -2 25 C-6.00423591 22.99788204 -9.87623143 23.11281428 -13.375 25.875 Z " fill="#60646B" transform="translate(209,152)"/>
<path d="M0 0 C4.78499147 3.50899374 5.60437414 6.60205196 6.62280273 12.14526367 C7.26101459 16.97543272 7.20941124 21.76161367 7.125 26.625 C7.11597656 27.62917969 7.10695313 28.63335937 7.09765625 29.66796875 C7.07437746 32.11224126 7.04168487 34.55598408 7 37 C3.18764896 37.08809201 -0.62443553 37.1407549 -4.4375 37.1875 C-5.50677734 37.21263672 -6.57605469 37.23777344 -7.67773438 37.26367188 C-14.57802136 37.32697726 -21.95276675 37.26037523 -27.58349609 32.72436523 C-31.66733833 28.27749844 -32.78039614 23.41564244 -33.3125 17.5625 C-32.74700418 11.1158477 -30.63431686 5.63431686 -26 1 C-17.55833387 -3.92430524 -8.71950556 -4.86280118 0 0 Z M-18.875 9.125 C-21.27828762 12.37650678 -22 13.96893988 -22 18 C-20.75926206 22.57522117 -19.89992693 24.45298559 -15.8125 26.9375 C-11.55711124 28.12342801 -8.38521953 28.23080103 -4 28 C-3.45556075 17.56431455 -3.45556075 17.56431455 -7 8 C-11.37314816 5.81342592 -15.02487827 6.27925785 -18.875 9.125 Z " fill="#60636B" transform="translate(358,169)"/>
<path d="M0 0 C4.67003352 4.30134666 5.82239397 9.75527445 6.15869141 15.89916992 C6.19613718 19.10178206 6.17479832 22.29758507 6.125 25.5 C6.11597656 26.60859375 6.10695312 27.7171875 6.09765625 28.859375 C6.07426167 31.57314592 6.04148175 34.28645545 6 37 C2.16681381 37.08789644 -1.66610928 37.14069087 -5.5 37.1875 C-6.57765625 37.21263672 -7.6553125 37.23777344 -8.765625 37.26367188 C-16.5894192 37.33523097 -21.92503486 36.26386952 -28.8125 32.4375 C-32.66221777 28.14781448 -33.88587594 23.0722197 -34.09765625 17.37109375 C-33.66219617 10.41435347 -31.67870047 5.67870047 -26.6875 0.6875 C-18.59738787 -4.39233785 -8.33384084 -4.68660437 0 0 Z M-19.9375 8.875 C-22.45219644 12.68514612 -22.71978831 15.12932483 -22.4921875 19.62109375 C-21.73082567 23.30100927 -20.01122863 24.87845256 -17 27 C-13.33956509 28.64088461 -8.93748164 28.06562469 -5 28 C-4.91834504 25.79229195 -4.86051512 23.58369575 -4.8125 21.375 C-4.77769531 20.14523438 -4.74289063 18.91546875 -4.70703125 17.6484375 C-5.02397224 13.70146571 -5.92487555 11.34632659 -8 8 C-12.29599552 5.85200224 -15.98130362 6.34976827 -19.9375 8.875 Z " fill="#60636B" transform="translate(132,169)"/>
<path d="M0 0 C3.58008518 2.7036671 5.30303801 6.11223903 6.69140625 10.27734375 C6.77456377 12.34233267 6.79876503 14.40992265 6.7890625 16.4765625 C6.78583984 17.68505859 6.78261719 18.89355469 6.77929688 20.13867188 C6.76672852 22.03262695 6.76672852 22.03262695 6.75390625 23.96484375 C6.74939453 25.23908203 6.74488281 26.51332031 6.74023438 27.82617188 C6.72843498 30.97660939 6.71197222 34.12695324 6.69140625 37.27734375 C3.04572912 37.3655128 -0.59966849 37.41812323 -4.24609375 37.46484375 C-5.26767578 37.48998047 -6.28925781 37.51511719 -7.34179688 37.54101562 C-15.20037083 37.61633742 -21.98809209 36.96200467 -28.24609375 31.90234375 C-33.20335432 25.59310303 -32.91361286 19.00597491 -32.30859375 11.27734375 C-30.60505513 5.76589528 -26.95275321 2.50023027 -22.30859375 -0.72265625 C-15.16852204 -4.21335798 -6.87493363 -3.9027401 0 0 Z M-19.30859375 9.15234375 C-22.10678008 13.52450989 -22.35505563 17.21944465 -21.30859375 22.27734375 C-19.21634906 25.12512125 -17.70699514 26.65047416 -14.49609375 28.08984375 C-11.09188862 28.38163276 -7.72488087 28.33428187 -4.30859375 28.27734375 C-4.22693879 26.0696357 -4.16910887 23.8610395 -4.12109375 21.65234375 C-4.08628906 20.42257813 -4.05148437 19.1928125 -4.015625 17.92578125 C-4.3428602 13.85061229 -5.33010372 10.25583378 -8.30859375 7.27734375 C-13.02749199 6.80545393 -15.25193499 6.61693202 -19.30859375 9.15234375 Z " fill="#60646B" transform="translate(287.30859375,168.72265625)"/>
<path d="M0 0 C5.25992597 5.5442463 6.47320089 10.75229627 6.3125 18.21484375 C5.6787298 23.86332062 3.31855263 28.07873131 -0.875 31.875 C-6.17457153 35.47870864 -10.61055867 36.55081391 -17 36 C-22.74546098 34.49784703 -27.97609923 32.2979629 -31.19140625 27.05859375 C-34.35324129 20.72390682 -35.35944037 15.19108574 -33.15234375 8.38671875 C-30.43567048 2.17060195 -27.21754182 -1.28062339 -21 -4 C-13.6513751 -6.63796791 -6.11457807 -4.31617275 0 0 Z M-21 8 C-23.11577936 10.31413367 -23.92508955 11.82484226 -24.125 14.9609375 C-23.89887554 18.76265491 -23.40347011 20.55041902 -20.8125 23.4375 C-17.67367516 25.18129158 -15.5944032 25.9251166 -12 26 C-8.36968476 24.39590722 -5.86247838 22.52890641 -4 19 C-3.48147734 14.92589337 -3.55789208 12.76518679 -5.625 9.1875 C-10.94651639 4.28610333 -14.8369702 4.39520899 -21 8 Z " fill="#60636B" transform="translate(494,171)"/>
<path d="M0 0 C3.63 0 7.26 0 11 0 C11.33 9.57 11.66 19.14 12 29 C20.03103721 29.67082039 20.03103721 29.67082039 23 28 C23.33 18.76 23.66 9.52 24 0 C27.96 0 31.92 0 36 0 C36.08122319 4.50036622 36.14061723 8.99925368 36.1875 13.5 C36.21263672 14.7684375 36.23777344 16.036875 36.26367188 17.34375 C36.31780735 24.2730912 36.17088599 29.77174423 33 36 C27.11786655 40.79858255 19.25204894 40.56799264 12 40 C8.07490851 39.12632988 4.91909151 37.94873963 2.0625 35 C-0.09032563 30.94762235 -0.11674518 27.66860672 -0.09765625 23.14453125 C-0.0962413 22.48289474 -0.09482635 21.82125824 -0.09336853 21.13957214 C-0.08777996 19.03050172 -0.07522965 16.92153823 -0.0625 14.8125 C-0.05748352 13.38086091 -0.05292087 11.94922015 -0.04882812 10.51757812 C-0.0378143 7.01168412 -0.02055755 3.5058525 0 0 Z " fill="#60636B" transform="translate(142,167)"/>
<path d="M0 0 C-0.66 2.97 -1.32 5.94 -2 9 C-7.61 9 -13.22 9 -19 9 C-16.42580079 12.86129881 -14.56871444 12.9774912 -10.1875 14.3125 C-4.5198131 16.19957395 -0.79367035 17.52010816 2 23 C3.06333809 27.57418713 2.4344988 30.25714722 0.0625 34.3125 C-4.32645336 38.84981235 -10.37291986 40.11791971 -16.5 40.375 C-21.3639478 40.22058896 -25.47658955 38.72320398 -30 37 C-30 33.7 -30 30.4 -30 27 C-28.88625 27.33 -27.7725 27.66 -26.625 28 C-21.53140499 29.28249446 -14.84620227 30.42310114 -10 28 C-10 27.34 -10 26.68 -10 26 C-10.95261719 25.69707031 -11.90523437 25.39414063 -12.88671875 25.08203125 C-14.15390649 24.65963534 -15.42081934 24.23641411 -16.6875 23.8125 C-17.92886719 23.40644531 -19.17023438 23.00039062 -20.44921875 22.58203125 C-24.29771814 20.8673533 -26.39901616 19.30012047 -29 16 C-30.14856904 11.43425972 -29.61764127 7.26213651 -27.5625 3.0625 C-20.33475681 -2.75495183 -8.43592824 -4.21796412 0 0 Z " fill="#60636B" transform="translate(94,167)"/>
<path d="M0 0 C18.45124087 -0.80612217 18.45124087 -0.80612217 24 4 C28.79381696 9.2175129 30.13512787 13.59596099 30.09765625 20.640625 C30.09515869 21.60516602 30.09266113 22.56970703 30.09008789 23.56347656 C30.08098389 24.7800293 30.07187988 25.99658203 30.0625 27.25 C30.041875 31.1275 30.02125 35.005 30 39 C17.46 39 4.92 39 -8 39 C-8 36.03 -8 33.06 -8 30 C0.91 30 9.82 30 19 30 C18.60633906 18.0105651 18.60633906 18.0105651 16 11 C10.72 10.34 5.44 9.68 0 9 C0 6.03 0 3.06 0 0 Z " fill="#60636B" transform="translate(73,93)"/>
<path d="M0 0 C3.96 0 7.92 0 12 0 C12.0497158 5.26528574 12.08586827 10.53043254 12.10986328 15.79589844 C12.11987439 17.58433413 12.13348733 19.37275366 12.15087891 21.16113281 C12.17534362 23.74287934 12.18653221 26.32440804 12.1953125 28.90625 C12.20563507 29.69616333 12.21595764 30.48607666 12.22659302 31.29992676 C12.22789027 37.82805419 11.7818719 44.78273534 7.25 49.875 C6.54617188 50.70644531 6.54617188 50.70644531 5.828125 51.5546875 C1.14669165 55.25582071 -4.06192126 55.2495769 -9.8125 55.1875 C-10.49248047 55.18685547 -11.17246094 55.18621094 -11.87304688 55.18554688 C-16.85919423 55.14080577 -16.85919423 55.14080577 -18 54 C-18.07205511 52.31391034 -18.08386068 50.62499341 -18.0625 48.9375 C-18.05347656 48.01839844 -18.04445313 47.09929687 -18.03515625 46.15234375 C-18.02355469 45.44207031 -18.01195312 44.73179687 -18 44 C-17.09636719 44.02320313 -16.19273437 44.04640625 -15.26171875 44.0703125 C-14.08222656 44.08835938 -12.90273438 44.10640625 -11.6875 44.125 C-10.51574219 44.14820313 -9.34398437 44.17140625 -8.13671875 44.1953125 C-4.83606339 44.25320618 -4.83606339 44.25320618 -2 42 C-0.69079497 38.0723849 -0.76537132 34.27429369 -0.68359375 30.17578125 C-0.66281265 29.31438034 -0.64203156 28.45297943 -0.62062073 27.56547546 C-0.55525091 24.81456456 -0.49629868 22.06355844 -0.4375 19.3125 C-0.39430283 17.44725579 -0.35068815 15.5820212 -0.30664062 13.71679688 C-0.19958237 9.14462876 -0.09827946 4.5723649 0 0 Z " fill="#60636B" transform="translate(465,96)"/>
<path d="M0 0 C0.495 0.99 0.495 0.99 1 2 C0.22265625 3.7265625 0.22265625 3.7265625 -0.9375 5.625 C-1.618125 6.73875 -2.29875 7.8525 -3 9 C-3.5671875 8.84273437 -4.134375 8.68546875 -4.71875 8.5234375 C-8.51345154 7.65273544 -12.14241897 7.39835892 -16 8 C-18.84510981 10.15118058 -19.74884291 11.66452047 -20.40625 15.16015625 C-20.6895599 19.40272197 -20.35514432 21.4726645 -17.9375 25.0625 C-13.51739033 27.97789149 -10.11288788 27.35964049 -5.0625 26.5 C-4.0415625 26.2525 -4.0415625 26.2525 -3 26 C-0.9375 28.25 -0.9375 28.25 1 31 C0.87890625 33.0625 0.87890625 33.0625 0 35 C-5.36989386 38.08826514 -12.06853302 39.04134826 -18.03515625 37.4609375 C-23.67733216 35.54154308 -27.65717359 33.22260924 -30.8125 28 C-32.96733196 22.24139736 -33.06566362 15.48345959 -31.2734375 9.625 C-28.83637235 4.39422602 -25.5820731 0.26101244 -20.3125 -2.3125 C-12.91846341 -3.84711137 -6.66380248 -3.68635882 0 0 Z " fill="#60636B" transform="translate(459,169)"/>
<path d="M0 0 C3.63 0 7.26 0 11 0 C11 19.14 11 38.28 11 58 C7.37 58 3.74 58 0 58 C0 38.86 0 19.72 0 0 Z " fill="#60646B" transform="translate(444,74)"/>
<path d="M0 0 C3.63 0 7.26 0 11 0 C11 19.14 11 38.28 11 58 C7.37 58 3.74 58 0 58 C0 38.86 0 19.72 0 0 Z " fill="#60646B" transform="translate(288,74)"/>
<path d="M0 0 C3.63 0 7.26 0 11 0 C11 17.16 11 34.32 11 52 C7.37 52 3.74 52 0 52 C0 34.84 0 17.68 0 0 Z " fill="#60646B" transform="translate(482,80)"/>
<path d="M0 0 C-0.66 3.3 -1.32 6.6 -2 10 C-3.5675 9.9175 -5.135 9.835 -6.75 9.75 C-10.93658495 9.73446597 -10.93658495 9.73446597 -14.5625 11.75 C-16.87267876 15.36593197 -17.13580259 18.75308932 -17.31640625 22.984375 C-17.35830078 23.91894531 -17.40019531 24.85351562 -17.44335938 25.81640625 C-17.50233398 27.26853516 -17.50233398 27.26853516 -17.5625 28.75 C-17.60568359 29.73355469 -17.64886719 30.71710938 -17.69335938 31.73046875 C-17.79921949 34.15348927 -17.90009312 36.57672672 -18 39 C-21.63 39 -25.26 39 -29 39 C-29.0542793 35.33313154 -29.09380978 31.66707828 -29.125 28 C-29.14175781 26.97003906 -29.15851563 25.94007813 -29.17578125 24.87890625 C-29.22484286 17.17623342 -29.24109505 9.26538789 -23.671875 3.25390625 C-17.27988596 -1.54008553 -7.4475922 -2.48253073 0 0 Z " fill="#60636B" transform="translate(327,167)"/>
<path d="M0 0 C0.94875 0.66 1.8975 1.32 2.875 2 C5.66238955 4.17968457 5.66238955 4.17968457 8 4 C8 3.01 8 2.02 8 1 C11.38457255 1.60438796 13.3000178 2.93001365 16 5 C16.66 5 17.32 5 18 5 C17.67 4.01 17.34 3.02 17 2 C18.32 2.33 19.64 2.66 21 3 C21 4.32 21 5.64 21 7 C22.32 7.66 23.64 8.32 25 9 C24.67 7.68 24.34 6.36 24 5 C25.32 5.66 26.64 6.32 28 7 C28 8.32 28 9.64 28 11 C28.2981424 12.34164079 28.62243192 13.67851173 29 15 C26.525 14.505 26.525 14.505 24 14 C24 13.34 24 12.68 24 12 C23.34 12 22.68 12 22 12 C22 13.65 22 15.3 22 17 C20.35 16.67 18.7 16.34 17 16 C16.31292445 13.50935112 16 11.62113708 16 9 C15.67 10.65 15.34 12.3 15 14 C14.34 14 13.68 14 13 14 C13.33 15.65 13.66 17.3 14 19 C13.34 19.33 12.68 19.66 12 20 C12.66 20.66 13.32 21.32 14 22 C14 23.32 14 24.64 14 26 C13.34 26.33 12.68 26.66 12 27 C12.66 28.65 13.32 30.3 14 32 C12.68 32 11.36 32 10 32 C8.21150401 30.07392739 7.14823443 28.40764469 6.25 25.9375 C4.25156294 22.83992256 1.40416742 22.26080275 -2 21 C-1.505 16.545 -1.505 16.545 -1 12 C0.32 12.66 1.64 13.32 3 14 C4.3242287 14.36784131 5.65613912 14.71202981 7 15 C5.8759417 11.74023094 5.07187022 11.03813522 1.9375 9.375 C0.968125 8.92125 -0.00125 8.4675 -1 8 C-1.33 7.34 -1.66 6.68 -2 6 C-1.01 6 -0.02 6 1 6 C0.67 4.02 0.34 2.04 0 0 Z " fill="#9FBFE0" transform="translate(674,71)"/>
<path d="M0 0 C3.63 0 7.26 0 11 0 C11 12.54 11 25.08 11 38 C7.37 38 3.74 38 0 38 C0 25.46 0 12.92 0 0 Z " fill="#60646B" transform="translate(225,168)"/>
<path d="M0 0 C4.99213851 0.46801299 9.12963993 2.91715737 13 6 C13 6.66 13 7.32 13 8 C9.86650268 9.04449911 9.01031744 8.93423645 6 8 C6.04125 8.7425 6.0825 9.485 6.125 10.25 C5.99601866 13.08758952 5.42948778 14.58773938 4 17 C2.68 16.34 1.36 15.68 0 15 C0.99 14.67 1.98 14.34 3 14 C3 12.68 3 11.36 3 10 C0.69 9.67 -1.62 9.34 -4 9 C-3.67 10.32 -3.34 11.64 -3 13 C-3.99 13.495 -3.99 13.495 -5 14 C-5 14.99 -5 15.98 -5 17 C-3.865625 17.268125 -2.73125 17.53625 -1.5625 17.8125 C-0.386875 18.204375 0.78875 18.59625 2 19 C3.39381709 23.18145126 1.70888733 25.03538139 0 29 C-0.25390222 31.79340157 -0.25390222 31.79340157 0 34 C-1.485 34.495 -1.485 34.495 -3 35 C-3.99 33.68 -4.98 32.36 -6 31 C-4.68 31 -3.36 31 -2 31 C-2 29.35 -2 27.7 -2 26 C-4.31 25.67 -6.62 25.34 -9 25 C-9.66 25.99 -10.32 26.98 -11 28 C-13.31 27.01 -15.62 26.02 -18 25 C-17.67 23.35 -17.34 21.7 -17 20 C-16.34 20 -15.68 20 -15 20 C-15.33 18.68 -15.66 17.36 -16 16 C-15.01 15.34 -14.02 14.68 -13 14 C-13.33 12.68 -13.66 11.36 -14 10 C-13.01 9.67 -12.02 9.34 -11 9 C-11.33 7.68 -11.66 6.36 -12 5 C-9.625 4.875 -9.625 4.875 -7 5 C-6.34 5.66 -5.68 6.32 -5 7 C-4.01 7 -3.02 7 -2 7 C-2 6.01 -2 5.02 -2 4 C-1.34 3.67 -0.68 3.34 0 3 C0 2.01 0 1.02 0 0 Z " fill="#DCE3F2" transform="translate(633,37)"/>
<path d="M0 0 C1.52299523 2.93720508 2.80100302 5.9168649 4 9 C3.01 9.495 3.01 9.495 2 10 C2.33 11.98 2.66 13.96 3 16 C6.58327753 17.00217064 6.58327753 17.00217064 10 16 C10 17.65 10 19.3 10 21 C10.99 21.33 11.98 21.66 13 22 C13 23.32 13 24.64 13 26 C12.01 26 11.02 26 10 26 C10.66 27.98 11.32 29.96 12 32 C13.65 32.33 15.3 32.66 17 33 C17.53532823 34.55759343 18.05265378 36.12138045 18.5625 37.6875 C18.85253906 38.55761719 19.14257812 39.42773438 19.44140625 40.32421875 C20 43 20 43 19.46484375 45.64453125 C18.66169028 48.25660987 18.66169028 48.25660987 21 51 C22.485 51.495 22.485 51.495 24 52 C24.9831543 54.56030273 24.9831543 54.56030273 25.82421875 57.93359375 C26.13037109 59.13951172 26.43652344 60.34542969 26.75195312 61.58789062 C27.21504883 63.49344727 27.21504883 63.49344727 27.6875 65.4375 C28.00783203 66.70400391 28.32816406 67.97050781 28.65820312 69.27539062 C31 78.62759861 31 78.62759861 31 81 C28.36 81 25.72 81 23 81 C22.505 76.05 22.505 76.05 22 71 C22.66 71.33 23.32 71.66 24 72 C24 72.66 24 73.32 24 74 C24.66 74 25.32 74 26 74 C25.67 71.69 25.34 69.38 25 67 C24.01 67 23.02 67 22 67 C21.67 67.99 21.34 68.98 21 70 C20.67 67.69 20.34 65.38 20 63 C20.66 63 21.32 63 22 63 C21.02865926 57.79383542 21.02865926 57.79383542 17.4375 54.1875 C16.633125 53.795625 15.82875 53.40375 15 53 C13.27064277 49.54128554 13.80371672 45.95960716 14.5625 42.25 C15.24197896 39.97586562 15.24197896 39.97586562 14 38 C13.071875 37.9071875 13.071875 37.9071875 12.125 37.8125 C10 37 10 37 8.3125 33.875 C7.29570178 31.24423635 6.92753232 29.31155704 6.625 26.4375 C5.95657819 22.76118007 4.83564626 21.41528646 2.3359375 18.7421875 C0.14935847 15.89068386 -0.89406166 12.62538664 -2.10546875 9.26953125 C-2.99482676 6.77922596 -2.99482676 6.77922596 -5 4 C-4.0409375 3.8453125 -4.0409375 3.8453125 -3.0625 3.6875 C-2.381875 3.460625 -1.70125 3.23375 -1 3 C-0.67 2.01 -0.34 1.02 0 0 Z " fill="#14798D" transform="translate(688,125)"/>
<path d="M0 0 C2.31 0 4.62 0 7 0 C7 0.66 7 1.32 7 2 C7.79664063 2.08121094 8.59328125 2.16242188 9.4140625 2.24609375 C14.06738752 3.22440718 18.07318296 5.07625433 22.375 7.0625 C23.20644531 7.43955078 24.03789063 7.81660156 24.89453125 8.20507812 C26.93265588 9.13043356 28.9675867 10.0621837 31 11 C30.360625 11.268125 29.72125 11.53625 29.0625 11.8125 C26.66868314 12.88667752 26.66868314 12.88667752 26 16 C27.423125 15.9690625 27.423125 15.9690625 28.875 15.9375 C32 16 32 16 34 17 C34 17.66 34 18.32 34 19 C35.98 19 37.96 19 40 19 C40 18.34 40 17.68 40 17 C41.32 17.33 42.64 17.66 44 18 C44.495 19.98 44.495 19.98 45 22 C45.9075 21.9175 46.815 21.835 47.75 21.75 C51.81358977 22.06258383 52.23566338 23.15435936 55 26 C57.62296414 27.21020932 60.25215741 28.08405247 63 29 C61.02 29.99 61.02 29.99 59 31 C59.495 32.98 59.495 32.98 60 35 C57.13275314 34.42655063 56.1385485 34.1385485 54 32 C54.66 30.68 55.32 29.36 56 28 C55.071875 28 54.14375 28 53.1875 28 C51.125 28 49.0625 28 47 28 C46.34 27.01 45.68 26.02 45 25 C43.14387185 24.53755893 41.2851983 24.08351575 39.41650391 23.67480469 C34.57792024 22.32363826 30.16660597 19.86308057 25.6875 17.625 C13.39451401 10.88568565 13.39451401 10.88568565 0 8 C0 5.36 0 2.72 0 0 Z " fill="#15857A" transform="translate(538,1)"/>
<path d="M0 0 C0.99 0.33 1.98 0.66 3 1 C2.835 2.0725 2.67 3.145 2.5 4.25 C1.91189085 8.03028752 1.91189085 8.03028752 2 12 C1.649375 13.175625 1.29875 14.35125 0.9375 15.5625 C-0.32646418 18.94510779 -0.32646418 18.94510779 1 22 C2.65 22.33 4.3 22.66 6 23 C6 25 6 27 6 29 C2.7991535 28.65705216 2.04586025 28.05558818 -0.0625 25.5 C-1.0215625 24.2625 -1.0215625 24.2625 -2 23 C-2.99 22.67 -3.98 22.34 -5 22 C-4.34 23.32 -3.68 24.64 -3 26 C-3.99 26 -4.98 26 -6 26 C-6 28.64 -6 31.28 -6 34 C-6.99 34 -7.98 34 -9 34 C-9 33.34 -9 32.68 -9 32 C-10.32 31.67 -11.64 31.34 -13 31 C-13.33 29.35 -13.66 27.7 -14 26 C-13.34 25.67 -12.68 25.34 -12 25 C-12.33 24.01 -12.66 23.02 -13 22 C-12.34 21.67 -11.68 21.34 -11 21 C-11 20.34 -11 19.68 -11 19 C-10.34 19 -9.68 19 -9 19 C-9.33 17.68 -9.66 16.36 -10 15 C-9.34 14.67 -8.68 14.34 -8 14 C-8.33 13.34 -8.66 12.68 -9 12 C-6.83125748 12.50603992 -5.00032373 12.99983813 -3 14 C-3.33 12.35 -3.66 10.7 -4 9 C-4.33 9.66 -4.66 10.32 -5 11 C-5.99 10.67 -6.98 10.34 -8 10 C-7.34 9.67 -6.68 9.34 -6 9 C-6.33 8.01 -6.66 7.02 -7 6 C-6.67 5.01 -6.34 4.02 -6 3 C-4.35 3.33 -2.7 3.66 -1 4 C-0.67 2.68 -0.34 1.36 0 0 Z " fill="#7DB0DA" transform="translate(662,18)"/>
<path d="M0 0 C0.66 1.32 1.32 2.64 2 4 C2.66 4 3.32 4 4 4 C4.66 2.68 5.32 1.36 6 0 C11.4 -0.36 11.4 -0.36 13.875 1.125 C15.50531294 3.84218824 15.33015665 5.89652746 15 9 C13 11 13 11 9.5625 11.3125 C6 11 6 11 4.0625 9.5 C3.711875 9.005 3.36125 8.51 3 8 C2.649375 8.495 2.29875 8.99 1.9375 9.5 C-1.01717332 11.78748902 -3.38658914 11.39419028 -7 11 C-9 8 -9 8 -8.75 4.375 C-8.5025 3.26125 -8.255 2.1475 -8 1 C-5.29120665 -0.35439668 -2.99066732 -0.06501451 0 0 Z " fill="#60636B" transform="translate(47,140)"/>
<path d="M0 0 C3.14737182 0.69941596 6.02588876 1.76078698 9 3 C8.01 3.495 8.01 3.495 7 4 C7.33 5.65 7.66 7.3 8 9 C7.01 9.495 7.01 9.495 6 10 C6.66 10.66 7.32 11.32 8 12 C8 13.32 8 14.64 8 16 C7.34 16.33 6.68 16.66 6 17 C6.66 18.65 7.32 20.3 8 22 C6.68 22 5.36 22 4 22 C2.21150401 20.07392739 1.14823443 18.40764469 0.25 15.9375 C-1.74843706 12.83992256 -4.59583258 12.26080275 -8 11 C-7.67 8.03 -7.34 5.06 -7 2 C-5.68 2.66 -4.36 3.32 -3 4 C-1.6757713 4.36784131 -0.34386088 4.71202981 1 5 C0.67 3.35 0.34 1.7 0 0 Z " fill="#4785C3" transform="translate(680,81)"/>
<path d="M0 0 C1 1 1 1 1.0625 4.0625 C1.041875 5.031875 1.02125 6.00125 1 7 C-1.31 6.67 -3.62 6.34 -6 6 C-6 6.66 -6 7.32 -6 8 C-3.36 8.33 -0.72 8.66 2 9 C2 10.65 2 12.3 2 14 C-3.28 14 -8.56 14 -14 14 C-13.52173913 4.91304348 -13.52173913 4.91304348 -11.5 1.375 C-7.78569916 -0.66786546 -4.15637916 -0.51427815 0 0 Z " fill="#60636B" transform="translate(494,62)"/>
<path d="M0 0 C4.09107168 0.74383122 8.06724871 1.63866302 12 3 C13.39381709 7.18145126 11.70888733 9.03538139 10 13 C9.74609778 15.79340157 9.74609778 15.79340157 10 18 C9.01 18.33 8.02 18.66 7 19 C6.01 17.68 5.02 16.36 4 15 C5.32 15 6.64 15 8 15 C8 13.35 8 11.7 8 10 C5.69 9.67 3.38 9.34 1 9 C0.01 10.485 0.01 10.485 -1 12 C-3.31 11.01 -5.62 10.02 -8 9 C-7.67 7.35 -7.34 5.7 -7 4 C-3.71023192 2.90341064 -2.28696233 3.20046862 1 4 C0.67 2.68 0.34 1.36 0 0 Z " fill="#C7DAE0" transform="translate(623,53)"/>
<path d="M0 0 C2.31 0 4.62 0 7 0 C7 0.66 7 1.32 7 2 C7.79664063 2.08121094 8.59328125 2.16242188 9.4140625 2.24609375 C14.06738752 3.22440718 18.07318296 5.07625433 22.375 7.0625 C23.20644531 7.43955078 24.03789063 7.81660156 24.89453125 8.20507812 C26.93265588 9.13043356 28.9675867 10.0621837 31 11 C30.38125 11.28875 29.7625 11.5775 29.125 11.875 C26.86674235 12.93720042 26.86674235 12.93720042 25 15 C24.38479492 14.7326001 23.76958984 14.4652002 23.13574219 14.18969727 C20.34186173 12.97745245 17.54596387 11.76993132 14.75 10.5625 C13.78191406 10.14162109 12.81382812 9.72074219 11.81640625 9.28710938 C10.88183594 8.88427734 9.94726562 8.48144531 8.984375 8.06640625 C8.12553711 7.69459229 7.26669922 7.32277832 6.38183594 6.93969727 C4.26011736 6.10262318 2.22413847 5.48850005 0 5 C0 3.35 0 1.7 0 0 Z " fill="#0F807E" transform="translate(538,1)"/>
<path d="M0 0 C5 2 5 2 6.21020508 4.67382812 C6.47728271 5.78177734 6.74436035 6.88972656 7.01953125 8.03125 C7.4690918 9.83529297 7.4690918 9.83529297 7.92773438 11.67578125 C8.36569336 13.56876953 8.36569336 13.56876953 8.8125 15.5 C9.12380859 16.76199219 9.43511719 18.02398437 9.75585938 19.32421875 C12 28.5276614 12 28.5276614 12 31 C9.36 31 6.72 31 4 31 C3.67 27.7 3.34 24.4 3 21 C3.66 21.33 4.32 21.66 5 22 C5 22.66 5 23.32 5 24 C5.66 24 6.32 24 7 24 C6.67 21.69 6.34 19.38 6 17 C5.01 17 4.02 17 3 17 C2.67 17.99 2.34 18.98 2 20 C1.67 17.69 1.34 15.38 1 13 C1.66 13 2.32 13 3 13 C2.01 8.71 1.02 4.42 0 0 Z " fill="#18719B" transform="translate(707,175)"/>
<path d="M0 0 C4.75 0.875 4.75 0.875 7 2 C7 3.65 7 5.3 7 7 C6.01 7.33 5.02 7.66 4 8 C4.20625 8.78375 4.4125 9.5675 4.625 10.375 C4.74875 11.24125 4.8725 12.1075 5 13 C4.34 13.66 3.68 14.32 3 15 C2.83312552 17.58354218 2.83312552 17.58354218 3 20 C0.69 19.67 -1.62 19.34 -4 19 C-4.625 16.625 -4.625 16.625 -5 14 C-4.34 13.34 -3.68 12.68 -3 12 C-3 11.175 -3 10.35 -3 9.5 C-3 7 -3 7 -1 5 C-0.35232207 2.42938689 -0.35232207 2.42938689 0 0 Z " fill="#F9FBF8" transform="translate(624,61)"/>
<path d="M0 0 C0.53625 0.28875 1.0725 0.5775 1.625 0.875 C4.08527135 2.10724038 4.08527135 2.10724038 7.1875 3 C10 4 10 4 11 6 C12.66072849 6.68132451 14.327767 7.34742127 16 8 C18 10 18 10 18 13 C17.34 13 16.68 13 16 13 C16.33 14.65 16.66 16.3 17 18 C16.2575 17.54625 15.515 17.0925 14.75 16.625 C12.14471404 15.02755425 12.14471404 15.02755425 9.875 14 C8 13 8 13 6.5 11.4375 C4.72539815 9.73683989 3.38993744 9.41205818 1 9 C0.15818587 5.84319701 0 3.27427197 0 0 Z " fill="#9FC6E6" transform="translate(705,80)"/>
<path d="M0 0 C3.875 0.875 3.875 0.875 5 2 C5.07244053 4.01964199 5.08377188 6.04167124 5.0625 8.0625 C5.05347656 9.16722656 5.04445313 10.27195312 5.03515625 11.41015625 C5.02355469 12.26480469 5.01195312 13.11945313 5 14 C2.58203125 13.62890625 2.58203125 13.62890625 0 13 C-1.3125 10.9375 -1.3125 10.9375 -2 9 C-3.65 9.33 -5.3 9.66 -7 10 C-8.5625 8.25 -8.5625 8.25 -10 6 C-9.6875 3.75 -9.6875 3.75 -9 2 C-6.36 2 -3.72 2 -1 2 C-0.67 1.34 -0.34 0.68 0 0 Z " fill="#447BB7" transform="translate(682,105)"/>
<path d="M0 0 C1.65 0.33 3.3 0.66 5 1 C5 1.66 5 2.32 5 3 C4.01 3.495 4.01 3.495 3 4 C3.36358712 7.27228408 3.691473 8.691473 6.0625 11.0625 C6.701875 11.701875 7.34125 12.34125 8 13 C8 14.32 8 15.64 8 17 C5.625 17.125 5.625 17.125 3 17 C2.34 16.34 1.68 15.68 1 15 C1 14.01 1 13.02 1 12 C-1.64 12.33 -4.28 12.66 -7 13 C-9 10 -9 10 -8.625 7.8125 C-8.41875 7.214375 -8.2125 6.61625 -8 6 C-4.67465243 4.89155081 -2.37817425 5.15545644 1 6 C0.67 4.02 0.34 2.04 0 0 Z " fill="#4AAA63" transform="translate(626,75)"/>
<path d="M0 0 C1.9375 1.0625 1.9375 1.0625 3 3 C2.8125 6.625 2.8125 6.625 2 10 C-0.79870027 11.39935013 -2.90498792 11.25265405 -6 11 C-7.875 9.8125 -7.875 9.8125 -9 8 C-9.42822025 5.14519831 -9.40659584 3.65507108 -7.875 1.1875 C-5.12844028 -0.55198782 -3.18153026 -0.39769128 0 0 Z " fill="#60636B" transform="translate(19,77)"/>
<path d="M0 0 C1.52299523 2.93720508 2.80100302 5.9168649 4 9 C3.01 9.495 3.01 9.495 2 10 C2.33 11.98 2.66 13.96 3 16 C6.58327753 17.00217064 6.58327753 17.00217064 10 16 C10 17.65 10 19.3 10 21 C10.99 21.33 11.98 21.66 13 22 C13 23.32 13 24.64 13 26 C12.01 26 11.02 26 10 26 C9.67 26.99 9.34 27.98 9 29 C7.81085305 27.09736488 6.622409 25.19434232 5.4375 23.2890625 C4.51317008 21.81716758 3.57659045 20.352857 2.625 18.8984375 C0.09736368 15.00166484 -1.64546757 11.48037649 -3 7 C-3.66 6.01 -4.32 5.02 -5 4 C-4.0409375 3.8453125 -4.0409375 3.8453125 -3.0625 3.6875 C-2.381875 3.460625 -1.70125 3.23375 -1 3 C-0.67 2.01 -0.34 1.02 0 0 Z " fill="#149064" transform="translate(688,125)"/>
<path d="M0 0 C3.0625 0.3125 3.0625 0.3125 5 1.375 C6.69431173 4.46462727 5.80201685 6.98467418 5.0625 10.3125 C4.0625 11.3125 4.0625 11.3125 0.6875 11.625 C-2.9375 11.3125 -2.9375 11.3125 -4.9375 9.625 C-6.20076211 6.70370636 -5.95766252 5.29451353 -4.9375 2.3125 C-2.9375 0.3125 -2.9375 0.3125 0 0 Z " fill="#60646B" transform="translate(229.9375,152.6875)"/>
<path d="M0 0 C3.5 0.25 3.5 0.25 5.5 2.25 C5.75 5.75 5.75 5.75 5.5 9.25 C3.5 11.25 3.5 11.25 0 11.5 C-3.5 11.25 -3.5 11.25 -5.5 9.25 C-5.75 5.75 -5.75 5.75 -5.5 2.25 C-3.5 0.25 -3.5 0.25 0 0 Z " fill="#60646B" transform="translate(28.5,76.75)"/>
<path d="M0 0 C1.98 0.495 1.98 0.495 4 1 C4 2.32 4 3.64 4 5 C5.32 5.66 6.64 6.32 8 7 C7.67 5.68 7.34 4.36 7 3 C8.32 3.66 9.64 4.32 11 5 C11 6.32 11 7.64 11 9 C11.2981424 10.34164079 11.62243192 11.67851173 12 13 C10.35 12.67 8.7 12.34 7 12 C7 11.34 7 10.68 7 10 C6.34 10 5.68 10 5 10 C5 11.65 5 13.3 5 15 C3.35 14.67 1.7 14.34 0 14 C-1.03946852 10.2319266 -1 6.92250084 -1 3 C-0.34 3 0.32 3 1 3 C0.67 2.01 0.34 1.02 0 0 Z " fill="#98BCE0" transform="translate(691,73)"/>
<path d="M0 0 C5.59675365 0.59674595 10.22057853 2.62891923 15.3125 4.875 C21.4617626 7.56745981 27.59233137 9.98805546 34 12 C34 12.66 34 13.32 34 14 C34.7425 14.268125 35.485 14.53625 36.25 14.8125 C38.86636554 15.94229421 40.80187111 17.20893202 43 19 C38.82855829 18.45023378 35.52952197 17.51267338 31.76953125 15.63671875 C30.80080078 15.16169922 29.83207031 14.68667969 28.83398438 14.19726562 C27.83689453 13.69904297 26.83980469 13.20082031 25.8125 12.6875 C13.46089443 5.9080919 13.46089443 5.9080919 0 3 C0 2.01 0 1.02 0 0 Z " fill="#078E5E" transform="translate(538,6)"/>
<path d="M0 0 C0.99 0.33 1.98 0.66 3 1 C2.835 2.0725 2.67 3.145 2.5 4.25 C1.91189085 8.03028752 1.91189085 8.03028752 2 12 C1.69169075 14.00401011 1.36270588 16.00511766 1 18 C-0.9375 17.625 -0.9375 17.625 -3 17 C-3.33 16.34 -3.66 15.68 -4 15 C-3.34 14.67 -2.68 14.34 -2 14 C-2.66 12.35 -3.32 10.7 -4 9 C-4.33 9.66 -4.66 10.32 -5 11 C-5.99 10.67 -6.98 10.34 -8 10 C-7.34 9.67 -6.68 9.34 -6 9 C-6.33 8.01 -6.66 7.02 -7 6 C-6.67 5.01 -6.34 4.02 -6 3 C-4.35 3.33 -2.7 3.66 -1 4 C-0.67 2.68 -0.34 1.36 0 0 Z " fill="#78ACDA" transform="translate(662,18)"/>
<path d="M0 0 C2.4375 0.375 2.4375 0.375 5 1 C5.33 1.66 5.66 2.32 6 3 C4.68 3 3.36 3 2 3 C2.66 4.65 3.32 6.3 4 8 C3.01 8.33 2.02 8.66 1 9 C0.01 10.485 0.01 10.485 -1 12 C-3.31 11.01 -5.62 10.02 -8 9 C-7.67 7.35 -7.34 5.7 -7 4 C-3.71023192 2.90341064 -2.28696233 3.20046862 1 4 C0.67 2.68 0.34 1.36 0 0 Z " fill="#3F9E6D" transform="translate(623,53)"/>
<path d="M0 0 C1.45742463 -0.08096803 2.91612807 -0.13917774 4.375 -0.1875 C5.18710937 -0.22230469 5.99921875 -0.25710937 6.8359375 -0.29296875 C7.55007813 -0.19628906 8.26421875 -0.09960938 9 0 C9.66 0.99 10.32 1.98 11 3 C8.94766315 5.2477975 7.99332739 6.0022242 5 7 C5 7.99 5 8.98 5 10 C3.35 10 1.7 10 0 10 C-0.66 8.68 -1.32 7.36 -2 6 C-1.01 5.34 -0.02 4.68 1 4 C0.67 2.68 0.34 1.36 0 0 Z " fill="#6A94B8" transform="translate(619,47)"/>
<path d="M0 0 C2.31 0 4.62 0 7 0 C7 0.66 7 1.32 7 2 C7.79664063 2.08121094 8.59328125 2.16242188 9.4140625 2.24609375 C14.06738752 3.22440718 18.07318296 5.07625433 22.375 7.0625 C23.20644531 7.43955078 24.03789063 7.81660156 24.89453125 8.20507812 C26.93265588 9.13043356 28.9675867 10.0621837 31 11 C31 11.33 31 11.66 31 12 C25.16715226 12.5786185 21.18170172 10.5805175 16.0625 8.125 C10.75934829 5.62159394 5.6949428 3.44079778 0 2 C0 1.34 0 0.68 0 0 Z " fill="#146C9F" transform="translate(538,1)"/>
<path d="M0 0 C2.66666667 1.33333333 5.33333333 2.66666667 8 4 C8 5.98 8 7.96 8 10 C5.21176345 11.0326802 4.1322726 11.04509293 1.25 10.0625 C0.5075 9.711875 -0.235 9.36125 -1 9 C-0.67 6.03 -0.34 3.06 0 0 Z " fill="#C0D2E9" transform="translate(673,83)"/>
<path d="M0 0 C2.475 0.99 2.475 0.99 5 2 C4.814375 2.5775 4.62875 3.155 4.4375 3.75 C3.95976454 6.20692525 4.24270636 7.64397534 5 10 C2.36 10 -0.28 10 -3 10 C-3.33 8.68 -3.66 7.36 -4 6 C-3.34 6 -2.68 6 -2 6 C-2 5.34 -2 4.68 -2 4 C-1.34 4 -0.68 4 0 4 C0 2.68 0 1.36 0 0 Z " fill="#78A5D5" transform="translate(677,59)"/>
<path d="M0 0 C1.5625 1.25 1.5625 1.25 3 3 C2.70630173 4.34262065 2.3721042 5.67696283 2 7 C2.99 8.485 2.99 8.485 4 10 C3.34 10 2.68 10 2 10 C2.495 10.78375 2.99 11.5675 3.5 12.375 C5 15 5 15 5 17 C2.75 17.375 2.75 17.375 0 17 C-2.3125 14 -2.3125 14 -4 11 C-3.01 11 -2.02 11 -1 11 C-1.33 9.35 -1.66 7.7 -2 6 C-1.34 6 -0.68 6 0 6 C0 4.02 0 2.04 0 0 Z " fill="#1E7ABE" transform="translate(689,79)"/>
<path d="M0 0 C2.475 0.495 2.475 0.495 5 1 C4.79375 1.61875 4.5875 2.2375 4.375 2.875 C4.25125 3.57625 4.1275 4.2775 4 5 C6.22189824 7.22189824 8.08482708 7.92598892 11 9 C10.67 10.32 10.34 11.64 10 13 C5.08351995 11.77087999 2.68940779 10.34442797 0 6 C0 4 0 2 0 0 Z " fill="#96BBDF" transform="translate(663,48)"/>
<path d="M0 0 C4.99213851 0.46801299 9.12963993 2.91715737 13 6 C13 6.66 13 7.32 13 8 C9.17211056 9.27596315 7.63343017 8.62344752 4 7 C2.625 4.875 2.625 4.875 2 3 C1.34 3 0.68 3 0 3 C0 2.01 0 1.02 0 0 Z " fill="#88AFD8" transform="translate(633,37)"/>
<path d="M0 0 C1.875 0.25 1.875 0.25 4 1 C6.3941573 4.27621525 6.54485833 8.05543885 7 12 C6.01 12 5.02 12 4 12 C4 11.34 4 10.68 4 10 C2.68 9.67 1.36 9.34 0 9 C-0.33 7.35 -0.66 5.7 -1 4 C-0.34 3.67 0.32 3.34 1 3 C0.67 2.01 0.34 1.02 0 0 Z " fill="#A3C1E2" transform="translate(649,40)"/>
<path d="M0 0 C0 1.65 0 3.3 0 5 C0.99 5.33 1.98 5.66 3 6 C3 7.32 3 8.64 3 10 C2.01 10 1.02 10 0 10 C-0.33 10.99 -0.66 11.98 -1 13 C-1.8638129 11.54735962 -2.71580454 10.0876837 -3.5625 8.625 C-4.27599609 7.40683594 -4.27599609 7.40683594 -5.00390625 6.1640625 C-5.33261719 5.44992188 -5.66132812 4.73578125 -6 4 C-4.82249287 1.64498575 -2.80021952 0 0 0 Z " fill="#238881" transform="translate(698,141)"/>
<path d="M0 0 C2.475 0.495 2.475 0.495 5 1 C5.33 1.99 5.66 2.98 6 4 C7.65 4.33 9.3 4.66 11 5 C11 7 11 9 11 11 C7.82461668 10.65978036 6.97723135 9.97533396 4.75 7.5625 C3 5 3 5 3 3 C2.01 2.67 1.02 2.34 0 2 C0 1.34 0 0.68 0 0 Z " fill="#AFCCE7" transform="translate(657,36)"/>
<path d="M0 0 C0.66 0.598125 1.32 1.19625 2 1.8125 C5.58183997 4.42425831 8.81377726 5.58094144 13 7 C11.02 7.99 11.02 7.99 9 9 C9.33 10.32 9.66 11.64 10 13 C7.13275314 12.42655063 6.1385485 12.1385485 4 10 C4.66 8.68 5.32 7.36 6 6 C4.35 5.67 2.7 5.34 1 5 C1 4.34 1 3.68 1 3 C0.01 3 -0.98 3 -2 3 C-2 2.34 -2 1.68 -2 1 C-1.34 0.67 -0.68 0.34 0 0 Z " fill="#1F749C" transform="translate(588,23)"/>
<path d="M0 0 C2 3.75 2 3.75 2 6 C3.65 6.33 5.3 6.66 7 7 C5 10 5 10 1.875 10.6875 C0.451875 10.8421875 0.451875 10.8421875 -1 11 C-1.28875 10.195625 -1.5775 9.39125 -1.875 8.5625 C-2.73262568 5.8673532 -2.73262568 5.8673532 -5 5 C-5 4.34 -5 3.68 -5 3 C-4.360625 2.87625 -3.72125 2.7525 -3.0625 2.625 C-2.0415625 2.315625 -2.0415625 2.315625 -1 2 C-0.67 1.34 -0.34 0.68 0 0 Z " fill="#237A99" transform="translate(680,112)"/>
<path d="M0 0 C0.33 0.99 0.66 1.98 1 3 C1.99 3.33 2.98 3.66 4 4 C3.01 4.495 3.01 4.495 2 5 C2.33 5.99 2.66 6.98 3 8 C3.66 8.33 4.32 8.66 5 9 C5 9.66 5 10.32 5 11 C4.01 11.495 4.01 11.495 3 12 C3 12.66 3 13.32 3 14 C1.68 14 0.36 14 -1 14 C-1 13.34 -1 12.68 -1 12 C-1.66 11.67 -2.32 11.34 -3 11 C-2.01 11 -1.02 11 0 11 C-0.66 9.35 -1.32 7.7 -2 6 C-1.34 6 -0.68 6 0 6 C-0.66 4.35 -1.32 2.7 -2 1 C-1.34 0.67 -0.68 0.34 0 0 Z " fill="#1F80C2" transform="translate(682,58)"/>
<path d="M0 0 C2.875 -0.125 2.875 -0.125 6 0 C6.66 0.66 7.32 1.32 8 2 C9.485 2.185625 9.485 2.185625 11 2.375 C14 3 14 3 15.375 5.0625 C15.58125 5.701875 15.7875 6.34125 16 7 C15.01 7.33 14.02 7.66 13 8 C12.34 8.66 11.68 9.32 11 10 C10.67 9.34 10.34 8.68 10 8 C10.33 7.01 10.66 6.02 11 5 C9.741875 4.9175 8.48375 4.835 7.1875 4.75 C3.27768014 4.28635764 3.27768014 4.28635764 1 1.9375 C0.67 1.298125 0.34 0.65875 0 0 Z " fill="#308A8A" transform="translate(598,36)"/>
<path d="M0 0 C2.31 0.33 4.62 0.66 7 1 C7 2.65 7 4.3 7 6 C4.6875 6.6875 4.6875 6.6875 2 7 C0.125 5.8125 0.125 5.8125 -1 4 C-0.6875 1.8125 -0.6875 1.8125 0 0 Z " fill="#F4F8F3" transform="translate(605,85)"/>
<path d="M0 0 C2.375 -0.125 2.375 -0.125 5 0 C5.66 0.66 6.32 1.32 7 2 C6.625 4.625 6.625 4.625 6 7 C3.03 6.505 3.03 6.505 0 6 C-1.125 2.25 -1.125 2.25 0 0 Z " fill="#F1F7EF" transform="translate(602,93)"/>
<path d="M0 0 C2.625 0.375 2.625 0.375 5 1 C5.625 2.875 5.625 2.875 6 5 C5.34 5.66 4.68 6.32 4 7 C1.375 6.625 1.375 6.625 -1 6 C-1.625 4.125 -1.625 4.125 -2 2 C-1.34 1.34 -0.68 0.68 0 0 Z " fill="#F1F7EE" transform="translate(575,103)"/>
<path d="M0 0 C4.75 0.875 4.75 0.875 7 2 C6.67 3.65 6.34 5.3 6 7 C3.625 7.1875 3.625 7.1875 1 7 C-1 4 -1 4 -0.625 1.8125 C-0.41875 1.214375 -0.2125 0.61625 0 0 Z " fill="#F5F9F4" transform="translate(618,81)"/>
<path d="M0 0 C2.4375 0.375 2.4375 0.375 5 1 C5.33 1.66 5.66 2.32 6 3 C5.01 3.495 5.01 3.495 4 4 C3.34444881 6.52733235 3.34444881 6.52733235 3 9 C3.66 9.33 4.32 9.66 5 10 C3.35 10.66 1.7 11.32 0 12 C-0.99 10.02 -1.98 8.04 -3 6 C-1.68 6 -0.36 6 1 6 C0.67 4.02 0.34 2.04 0 0 Z " fill="#33A256" transform="translate(618,64)"/>
<path d="M0 0 C4.75 0.75 4.75 0.75 7 3 C7.125 5.625 7.125 5.625 7 8 C4.625 7.6875 4.625 7.6875 2 7 C0 4 0 4 0 0 Z " fill="#F2F6F6" transform="translate(689,135)"/>
<path d="M0 0 C0 2.62113708 -0.31292445 4.50935112 -1 7 C-5.875 6.125 -5.875 6.125 -7 5 C-7.04063832 3.33382885 -7.042721 1.66611905 -7 0 C-4.3333581 -1.33332095 -2.83319697 -0.67102033 0 0 Z " fill="#E4EEE7" transform="translate(671,103)"/>
<path d="M0 0 C0.33 0.66 0.66 1.32 1 2 C1.99 2.33 2.98 2.66 4 3 C3.01 3.66 2.02 4.32 1 5 C1 6.32 1 7.64 1 9 C-0.65 9.33 -2.3 9.66 -4 10 C-4.66 8.35 -5.32 6.7 -6 5 C-4.68 5 -3.36 5 -2 5 C-1.855625 4.360625 -1.71125 3.72125 -1.5625 3.0625 C-1 1 -1 1 0 0 Z " fill="#179753" transform="translate(617,48)"/>
<path d="M0 0 C2.375 -0.125 2.375 -0.125 5 0 C5.66 0.66 6.32 1.32 7 2 C6.625 4.625 6.625 4.625 6 7 C1.125 6.125 1.125 6.125 0 5 C-0.04063832 3.33382885 -0.042721 1.66611905 0 0 Z " fill="#F0F6EF" transform="translate(641,121)"/>
<path d="M0 0 C3.35595828 0.59927826 5.37801226 1.84622436 8 4 C7.01 4.495 7.01 4.495 6 5 C5.01 4.67 4.02 4.34 3 4 C3.66 5.32 4.32 6.64 5 8 C4.34 8 3.68 8 3 8 C3.66 9.32 4.32 10.64 5 12 C2.5625 11.625 2.5625 11.625 0 11 C-0.33 10.34 -0.66 9.68 -1 9 C-0.01 9 0.98 9 2 9 C1.01 7.35 0.02 5.7 -1 4 C-0.01 4 0.98 4 2 4 C1.34 2.68 0.68 1.36 0 0 Z " fill="#3F89C7" transform="translate(660,44)"/>
<path d="M0 0 C4.75 0.75 4.75 0.75 7 3 C6.625 5.125 6.625 5.125 6 7 C4.33388095 7.042721 2.66617115 7.04063832 1 7 C0 6 0 6 -0.0625 2.9375 C-0.041875 1.968125 -0.02125 0.99875 0 0 Z " fill="#F1F6F0" transform="translate(643,111)"/>
<path d="M0 0 C1.65 0.33 3.3 0.66 5 1 C5.33 2.65 5.66 4.3 6 6 C3.625 6.625 3.625 6.625 1 7 C0.34 6.34 -0.32 5.68 -1 5 C-0.625 2.375 -0.625 2.375 0 0 Z " fill="#EAF3E9" transform="translate(616,89)"/>
<path d="M0 0 C2.375 -0.125 2.375 -0.125 5 0 C7 2 7 2 7.125 4.625 C7.08375 5.40875 7.0425 6.1925 7 7 C2.25 6.25 2.25 6.25 0 4 C0 2.68 0 1.36 0 0 Z " fill="#F6FAF6" transform="translate(644,103)"/>
<path d="M0 0 C2.375 -0.125 2.375 -0.125 5 0 C5.66 0.66 6.32 1.32 7 2 C6.625 4.125 6.625 4.125 6 6 C3.625 6.125 3.625 6.125 1 6 C0.34 5.34 -0.32 4.68 -1 4 C-0.625 1.875 -0.625 1.875 0 0 Z " fill="#F3F8F1" transform="translate(588,98)"/>
<path d="M0 0 C1.99954746 -0.04254356 4.00041636 -0.04080783 6 0 C7 1 7 1 7.0625 3.5625 C7.041875 4.366875 7.02125 5.17125 7 6 C5.00045254 6.04254356 2.99958364 6.04080783 1 6 C0 5 0 5 -0.0625 2.4375 C-0.041875 1.633125 -0.02125 0.82875 0 0 Z " fill="#F8FBF7" transform="translate(591,89)"/>
<path d="M0 0 C2.3125 -0.25 2.3125 -0.25 5 0 C6.8125 2 6.8125 2 8 4 C6.68 4 5.36 4 4 4 C4.33 5.32 4.66 6.64 5 8 C3.35 7.67 1.7 7.34 0 7 C-0.33 6.01 -0.66 5.02 -1 4 C-0.34 4 0.32 4 1 4 C0.67 2.68 0.34 1.36 0 0 Z " fill="#2972B9" transform="translate(627,37)"/>
<path d="M0 0 C0.99 0.495 0.99 0.495 2 1 C2 1.66 2 2.32 2 3 C2.99 2.67 3.98 2.34 5 2 C5.33 4.64 5.66 7.28 6 10 C4.35 10 2.7 10 1 10 C0.67 6.7 0.34 3.4 0 0 Z " fill="#0D8870" transform="translate(710,196)"/>
<path d="M0 0 C4.875 0.875 4.875 0.875 6 2 C6.04080783 3.99958364 6.04254356 6.00045254 6 8 C3.13275314 7.42655063 2.1385485 7.1385485 0 5 C-0.125 2.375 -0.125 2.375 0 0 Z " fill="#F1F5F5" transform="translate(681,121)"/>
<path d="M0 0 C2.375 -0.125 2.375 -0.125 5 0 C7 2 7 2 7.125 4.625 C7.08375 5.40875 7.0425 6.1925 7 7 C4.625 6.6875 4.625 6.6875 2 6 C0 3 0 3 0 0 Z " fill="#F1F5F4" transform="translate(672,108)"/>
<path d="M0 0 C2.97 0.495 2.97 0.495 6 1 C6.5625 2.9375 6.5625 2.9375 7 5 C6 6 6 6 3.5625 6.1875 C1 6 1 6 -1 4 C-0.625 1.875 -0.625 1.875 0 0 Z " fill="#EEF5ED" transform="translate(608,77)"/>
<path d="M0 0 C2.375 -0.125 2.375 -0.125 5 0 C7 2 7 2 7 5 C4.6875 5.625 4.6875 5.625 2 6 C1.01 5.34 0.02 4.68 -1 4 C-0.67 2.68 -0.34 1.36 0 0 Z " fill="#F2F7F0" transform="translate(595,81)"/>
<path d="M0 0 C2.375 -0.125 2.375 -0.125 5 0 C7 2 7 2 7 6 C4.625 6.125 4.625 6.125 2 6 C1.34 5.34 0.68 4.68 0 4 C0 2.68 0 1.36 0 0 Z " fill="#FBFCFB" transform="translate(627,86)"/>
<path d="M0 0 C1.98 0.495 1.98 0.495 4 1 C4 2.32 4 3.64 4 5 C4.2981424 6.34164079 4.62243192 7.67851173 5 9 C3.35 8.67 1.7 8.34 0 8 C-0.33 6.35 -0.66 4.7 -1 3 C-0.34 3 0.32 3 1 3 C0.67 2.01 0.34 1.02 0 0 Z " fill="#D9E4F3" transform="translate(691,73)"/>
<path d="M0 0 C2.86724686 0.57344937 3.8614515 0.8614515 6 3 C5.625 5.625 5.625 5.625 5 8 C1.125 6.125 1.125 6.125 0 5 C-0.04063832 3.33382885 -0.042721 1.66611905 0 0 Z " fill="#F2F5F8" transform="translate(698,151)"/>
<path d="M0 0 C2.0625 0.4375 2.0625 0.4375 4 1 C4.33 2.65 4.66 4.3 5 6 C3.35 6.33 1.7 6.66 0 7 C-0.38133299 5.0085944 -0.71325582 3.00720923 -1 1 C-0.67 0.67 -0.34 0.34 0 0 Z " fill="#EEF5EC" transform="translate(638,142)"/>
<path d="M0 0 C2.475 0.495 2.475 0.495 5 1 C5.33 2.98 5.66 4.96 6 7 C4.35 6.67 2.7 6.34 1 6 C0.67 4.02 0.34 2.04 0 0 Z " fill="#E6EEE9" transform="translate(698,162)"/>
<path d="M0 0 C3.69230769 0.69230769 3.69230769 0.69230769 5 2 C5.04063832 3.66617115 5.042721 5.33388095 5 7 C3.35 6.67 1.7 6.34 0 6 C-0.38218767 4.34385343 -0.71395102 2.67542976 -1 1 C-0.67 0.67 -0.34 0.34 0 0 Z " fill="#F5F8F4" transform="translate(681,130)"/>
<path d="M0 0 C1.32 1.32 2.64 2.64 4 4 C3.01 4 2.02 4 1 4 C1.66 6.31 2.32 8.62 3 11 C2.01 11.495 2.01 11.495 1 12 C0.01 13.485 0.01 13.485 -1 15 C-1.66 12.69 -2.32 10.38 -3 8 C-2.34 7.67 -1.68 7.34 -1 7 C-1.020625 6.030625 -1.04125 5.06125 -1.0625 4.0625 C-1 1 -1 1 0 0 Z " fill="#328499" transform="translate(672,96)"/>
<path d="M0 0 C1.65 0.33 3.3 0.66 5 1 C5.33 2.32 5.66 3.64 6 5 C3.625 5.625 3.625 5.625 1 6 C0.34 5.34 -0.32 4.68 -1 4 C-0.625 1.875 -0.625 1.875 0 0 Z " fill="#EAF2E9" transform="translate(611,70)"/>
<path d="M0 0 C1.9375 0.6875 1.9375 0.6875 4 2 C4.75 4.625 4.75 4.625 5 7 C3.68 7 2.36 7 1 7 C-1 4 -1 4 -0.625 1.8125 C-0.41875 1.214375 -0.2125 0.61625 0 0 Z " fill="#F1F6F1" transform="translate(690,145)"/>
<path d="M0 0 C2.475 0.99 2.475 0.99 5 2 C5 3.65 5 5.3 5 7 C3.35 6.67 1.7 6.34 0 6 C-0.38218767 4.34385343 -0.71395102 2.67542976 -1 1 C-0.67 0.67 -0.34 0.34 0 0 Z " fill="#F1F6F1" transform="translate(673,116)"/>
<path d="M0 0 C1.32 0.66 2.64 1.32 4 2 C3.67 4.64 3.34 7.28 3 10 C1.0625 9.625 1.0625 9.625 -1 9 C-1.33 8.34 -1.66 7.68 -2 7 C-1.34 6.67 -0.68 6.34 0 6 C-0.33 5.01 -0.66 4.02 -1 3 C-0.67 2.01 -0.34 1.02 0 0 Z " fill="#D6E3F3" transform="translate(660,26)"/>
<path d="M0 0 C0.4125 0.556875 0.825 1.11375 1.25 1.6875 C2.51049933 3.35315983 3.83129031 4.97379722 5.1875 6.5625 C7 9 7 9 7 12 C5.68 12 4.36 12 3 12 C-0.42857143 4.71428571 -0.42857143 4.71428571 0 0 Z " fill="#198F6D" transform="translate(695,150)"/>
<path d="M0 0 C1.67542976 0.28604898 3.34385343 0.61781233 5 1 C5 2.65 5 4.3 5 6 C3.35 6 1.7 6 0 6 C-0.38218767 4.34385343 -0.71395102 2.67542976 -1 1 C-0.67 0.67 -0.34 0.34 0 0 Z " fill="#F4F9F3" transform="translate(640,131)"/>
<path d="M0 0 C1.875 0.1875 1.875 0.1875 4 1 C5.25 3.5625 5.25 3.5625 6 6 C4.125 6.625 4.125 6.625 2 7 C0 5 0 5 -0.125 2.375 C-0.08375 1.59125 -0.0425 0.8075 0 0 Z " fill="#F3F5FA" transform="translate(690,126)"/>
<path d="M0 0 C2.0625 0.4375 2.0625 0.4375 4 1 C4.33 2.98 4.66 4.96 5 7 C3.35 6.67 1.7 6.34 0 6 C-0.38218767 4.34385343 -0.71395102 2.67542976 -1 1 C-0.67 0.67 -0.34 0.34 0 0 Z " fill="#F1F3F9" transform="translate(682,112)"/>
<path d="M0 0 C2.375 -0.125 2.375 -0.125 5 0 C7 2 7 2 7 5 C4.69 4.67 2.38 4.34 0 4 C0 2.68 0 1.36 0 0 Z " fill="#FAFCF9" transform="translate(615,58)"/>
<path d="M0 0 C1.67542976 0.28604898 3.34385343 0.61781233 5 1 C5.33 2.32 5.66 3.64 6 5 C4.02 5 2.04 5 0 5 C-0.5625 3.0625 -0.5625 3.0625 -1 1 C-0.67 0.67 -0.34 0.34 0 0 Z " fill="#EDF4EC" transform="translate(595,56)"/>
<path d="M0 0 C1.65 1.65 3.3 3.3 5 5 C4.360625 5.103125 3.72125 5.20625 3.0625 5.3125 C2.381875 5.539375 1.70125 5.76625 1 6 C0.67 6.99 0.34 7.98 0 9 C-0.99 6.69 -1.98 4.38 -3 2 C-2.01 1.34 -1.02 0.68 0 0 Z " fill="#3574B9" transform="translate(681,99)"/>
<path d="M0 0 C2.475 0.495 2.475 0.495 5 1 C4.814375 1.598125 4.62875 2.19625 4.4375 2.8125 C3.77906313 5.16408762 3.77906313 5.16408762 5 8 C3.68 7.67 2.36 7.34 1 7 C0 2.25 0 2.25 0 0 Z " fill="#E5ECF6" transform="translate(663,48)"/>
<path d="M0 0 C2.375 -0.125 2.375 -0.125 5 0 C7 2 7 2 7 5 C4.625 5.125 4.625 5.125 2 5 C1.34 4.34 0.68 3.68 0 3 C0 2.01 0 1.02 0 0 Z " fill="#FCFCFD" transform="translate(619,47)"/>
<path d="M0 0 C2.12508244 3.18762365 2.5020163 5.26512223 3 9 C2.01 9 1.02 9 0 9 C-0.33 9.99 -0.66 10.98 -1 12 C-1.33 9.69 -1.66 7.38 -2 5 C-1.34 5 -0.68 5 0 5 C0 3.35 0 1.7 0 0 Z " fill="#0B8476" transform="translate(710,183)"/>
<path d="M0 0 C3.875 0.875 3.875 0.875 5 2 C5.04063832 3.66617115 5.042721 5.33388095 5 7 C3.68 6.67 2.36 6.34 1 6 C0.67 4.02 0.34 2.04 0 0 Z " fill="#EAEFF3" transform="translate(706,169)"/>
<path d="M0 0 C2.375 -0.125 2.375 -0.125 5 0 C7 2 7 2 7 5 C4.03 4.505 4.03 4.505 1 4 C0.67 2.68 0.34 1.36 0 0 Z " fill="#EEF1F8" transform="translate(621,42)"/>
<path d="M0 0 C2.97 0.495 2.97 0.495 6 1 C6.33 2.32 6.66 3.64 7 5 C4.69 4.67 2.38 4.34 0 4 C0 2.68 0 1.36 0 0 Z " fill="#F1F3F9" transform="translate(613,38)"/>
<path d="M0 0 C2.475 0.495 2.475 0.495 5 1 C5.33 2.65 5.66 4.3 6 6 C3.13275314 5.42655063 2.1385485 5.1385485 0 3 C0 2.01 0 1.02 0 0 Z " fill="#F8F9FC" transform="translate(682,91)"/>
<path d="M0 0 C2.4375 0.75 2.4375 0.75 5 2 C5.8125 4.125 5.8125 4.125 6 6 C4.68 6.33 3.36 6.66 2 7 C0 4 0 4 0 0 Z " fill="#FDFEFE" transform="translate(675,80)"/>
<path d="M0 0 C4.75 0.875 4.75 0.875 7 2 C7 2.99 7 3.98 7 5 C4.69 4.67 2.38 4.34 0 4 C0 2.68 0 1.36 0 0 Z " fill="#F3F6F6" transform="translate(611,43)"/>
<path d="M0 0 C1.65 0.33 3.3 0.66 5 1 C5 2.32 5 3.64 5 5 C3.35 4.67 1.7 4.34 0 4 C0 2.68 0 1.36 0 0 Z " fill="#DAE4E7" transform="translate(597,31)"/>
<path d="M0 0 C0.99 0.33 1.98 0.66 3 1 C3.33 2.98 3.66 4.96 4 7 C2.68 6.67 1.36 6.34 0 6 C-0.38218767 4.34385343 -0.71395102 2.67542976 -1 1 C-0.67 0.67 -0.34 0.34 0 0 Z " fill="#E3ECE7" transform="translate(706,180)"/>
<path d="M0 0 C0.66 0 1.32 0 2 0 C2.99 3.3 3.98 6.6 5 10 C1 8 1 8 0 6 C-0.039992 4.00039988 -0.04346799 1.99952758 0 0 Z " fill="#0A915A" transform="translate(702,170)"/>
<path d="M0 0 C1.98 0.495 1.98 0.495 4 1 C3.67 2.65 3.34 4.3 3 6 C1.68 5.67 0.36 5.34 -1 5 C-0.67 3.35 -0.34 1.7 0 0 Z " fill="#E2EFDE" transform="translate(633,168)"/>
<path d="M0 0 C0.33 0 0.66 0 1 0 C1 1.65 1 3.3 1 5 C1.99 5.33 2.98 5.66 4 6 C4 7.32 4 8.64 4 10 C3.01 10 2.02 10 1 10 C-0.625 7.25 -0.625 7.25 -2 4 C-1.1875 1.625 -1.1875 1.625 0 0 Z " fill="#19709E" transform="translate(697,141)"/>
<path d="M0 0 C1.52299523 2.93720508 2.80100302 5.9168649 4 9 C3.01 9.33 2.02 9.66 1 10 C-0.625 8.375 -0.625 8.375 -2 6 C-1.1875 2.75 -1.1875 2.75 0 0 Z " fill="#15788E" transform="translate(688,125)"/>
<path d="M0 0 C1.65 0 3.3 0 5 0 C5.33 1.32 5.66 2.64 6 4 C2.25 5.125 2.25 5.125 0 4 C0 2.68 0 1.36 0 0 Z " fill="#E8F3E4" transform="translate(571,113)"/>
<path d="M0 0 C0.99 0 1.98 0 3 0 C4.1092904 3.32787119 4.01557588 4.6993784 3 8 C2.01 8.66 1.02 9.32 0 10 C-0.99 8.68 -1.98 7.36 -3 6 C-1.68 6 -0.36 6 1 6 C0.67 4.02 0.34 2.04 0 0 Z " fill="#53AB74" transform="translate(630,62)"/>
<path d="M0 0 C2.475 0.495 2.475 0.495 5 1 C5.33 2.32 5.66 3.64 6 5 C4.35 5 2.7 5 1 5 C0.67 3.35 0.34 1.7 0 0 Z " fill="#F2F7F1" transform="translate(613,64)"/>
<path d="M0 0 C1.32 0.66 2.64 1.32 4 2 C3.67 3.32 3.34 4.64 3 6 C1.68 6 0.36 6 -1 6 C-1.042721 4.33388095 -1.04063832 2.66617115 -1 1 C-0.67 0.67 -0.34 0.34 0 0 Z " fill="#F7FAF6" transform="translate(636,155)"/>
<path d="M0 0 C2.475 0.495 2.475 0.495 5 1 C5.33 2.65 5.66 4.3 6 6 C3.13275314 5.42655063 2.1385485 5.1385485 0 3 C0 2.01 0 1.02 0 0 Z " fill="#E9EEF7" transform="translate(698,107)"/>
<path d="M0 0 C1.65 0.33 3.3 0.66 5 1 C5 2.32 5 3.64 5 5 C3.35 4.67 1.7 4.34 0 4 C0 2.68 0 1.36 0 0 Z " fill="#E8ECF5" transform="translate(591,23)"/>
<path d="M0 0 C2.0625 0.4375 2.0625 0.4375 4 1 C4 2.65 4 4.3 4 6 C2.68 5.67 1.36 5.34 0 5 C-0.5625 3.0625 -0.5625 3.0625 -1 1 C-0.67 0.67 -0.34 0.34 0 0 Z " fill="#EAF3E8" transform="translate(635,107)"/>
<path d="M0 0 C1.65 0 3.3 0 5 0 C5 1.65 5 3.3 5 5 C3.35 4.67 1.7 4.34 0 4 C0 2.68 0 1.36 0 0 Z " fill="#EFF6ED" transform="translate(585,107)"/>
<path d="M0 0 C1.32 0.33 2.64 0.66 4 1 C4.33 2.65 4.66 4.3 5 6 C3.68 5.67 2.36 5.34 1 5 C0.67 3.35 0.34 1.7 0 0 Z " fill="#F9FAFC" transform="translate(682,105)"/>
<path d="M0 0 C2.475 0.495 2.475 0.495 5 1 C5.33 2.32 5.66 3.64 6 5 C4.68 5 3.36 5 2 5 C1.34 4.34 0.68 3.68 0 3 C0 2.01 0 1.02 0 0 Z " fill="#ECEFF8" transform="translate(682,98)"/>
<path d="M0 0 C2.97 0.495 2.97 0.495 6 1 C5.67 2.32 5.34 3.64 5 5 C3.68 4.67 2.36 4.34 1 4 C0.67 2.68 0.34 1.36 0 0 Z " fill="#EFF5EE" transform="translate(637,91)"/>
<path d="M0 0 C2.475 0.495 2.475 0.495 5 1 C5.33 2.32 5.66 3.64 6 5 C4.35 4.67 2.7 4.34 1 4 C0.67 2.68 0.34 1.36 0 0 Z " fill="#EAEFF7" transform="translate(690,83)"/>
<path d="M0 0 C2.475 0.495 2.475 0.495 5 1 C5.33 2.32 5.66 3.64 6 5 C4.35 4.67 2.7 4.34 1 4 C0.67 2.68 0.34 1.36 0 0 Z " fill="#FAFBFD" transform="translate(683,79)"/>
<path d="M0 0 C1.65 0 3.3 0 5 0 C5.66 1.32 6.32 2.64 7 4 C5.02 4 3.04 4 1 4 C0.67 2.68 0.34 1.36 0 0 Z " fill="#F2F4F9" transform="translate(605,35)"/>
<path d="M0 0 C1.98 0.495 1.98 0.495 4 1 C4.33 2.32 4.66 3.64 5 5 C3.35 4.67 1.7 4.34 0 4 C0 2.68 0 1.36 0 0 Z " fill="#EAF3E9" transform="translate(655,108)"/>
<path d="M0 0 C2.475 0.495 2.475 0.495 5 1 C5 2.32 5 3.64 5 5 C3.35 4.67 1.7 4.34 0 4 C0 2.68 0 1.36 0 0 Z " fill="#F0F6EF" transform="translate(636,99)"/>
<path d="M0 0 C1.98 0 3.96 0 6 0 C6 1.32 6 2.64 6 4 C4.35 4 2.7 4 1 4 C0.67 2.68 0.34 1.36 0 0 Z " fill="#F3F8F1" transform="translate(578,96)"/>
<path d="M0 0 C2.475 0.495 2.475 0.495 5 1 C5 2.32 5 3.64 5 5 C3.35 4.67 1.7 4.34 0 4 C0 2.68 0 1.36 0 0 Z " fill="#E2EEE1" transform="translate(607,54)"/>
<path d="M0 0 C2.31 0.33 4.62 0.66 7 1 C7 1.99 7 2.98 7 4 C5.35 4 3.7 4 2 4 C1.34 2.68 0.68 1.36 0 0 Z " fill="#ECF3ED" transform="translate(617,53)"/>
<path d="M0 0 C2.00720923 0.28674418 4.0085944 0.61866701 6 1 C6 1.99 6 2.98 6 4 C4.02 4 2.04 4 0 4 C-0.33 3.01 -0.66 2.02 -1 1 C-0.67 0.67 -0.34 0.34 0 0 Z " fill="#F3F8F2" transform="translate(585,53)"/>
<path d="M0 0 C1.32 0.33 2.64 0.66 4 1 C3.42415568 3.38564077 2.77772405 5.66682784 2 8 C0.68 7.34 -0.64 6.68 -2 6 C-1.01 5.67 -0.02 5.34 1 5 C0.67 3.35 0.34 1.7 0 0 Z " fill="#6C97CC" transform="translate(635,46)"/>
<path d="M0 0 C2.31 0.33 4.62 0.66 7 1 C7 1.99 7 2.98 7 4 C5.35 4 3.7 4 2 4 C1.34 2.68 0.68 1.36 0 0 Z " fill="#E8F0EA" transform="translate(602,40)"/>
<path d="M0 0 C5.75 0.75 5.75 0.75 8 3 C6.68 3 5.36 3 4 3 C3.67 3.99 3.34 4.98 3 6 C3 5.34 3 4.68 3 4 C2.01 3.67 1.02 3.34 0 3 C0 2.01 0 1.02 0 0 Z " fill="#177397" transform="translate(569,14)"/>
<path d="M0 0 C1.98 0.495 1.98 0.495 4 1 C3.67 2.32 3.34 3.64 3 5 C1.68 5 0.36 5 -1 5 C-0.67 3.35 -0.34 1.7 0 0 Z " fill="#E9F3E4" transform="translate(561,118)"/>
<path d="M0 0 C2.475 0.495 2.475 0.495 5 1 C4.67 2.32 4.34 3.64 4 5 C2.68 4.67 1.36 4.34 0 4 C0 2.68 0 1.36 0 0 Z " fill="#F0F6EF" transform="translate(633,117)"/>
<path d="M0 0 C2.475 0.495 2.475 0.495 5 1 C5.33 2.32 5.66 3.64 6 5 C4.35 4.67 2.7 4.34 1 4 C0.67 2.68 0.34 1.36 0 0 Z " fill="#EBF0F8" transform="translate(697,81)"/>
<path d="M0 0 C2.475 0.495 2.475 0.495 5 1 C5.33 2.32 5.66 3.64 6 5 C4.35 4.67 2.7 4.34 1 4 C0.67 2.68 0.34 1.36 0 0 Z " fill="#F6F8FC" transform="translate(683,73)"/>
<path d="M0 0 C2.475 0.495 2.475 0.495 5 1 C5.33 2.32 5.66 3.64 6 5 C4.35 4.67 2.7 4.34 1 4 C0.67 2.68 0.34 1.36 0 0 Z " fill="#F3F6FB" transform="translate(676,64)"/>
<path d="M0 0 C1.65 0 3.3 0 5 0 C5.33 1.32 5.66 2.64 6 4 C4.35 4 2.7 4 1 4 C0.67 2.68 0.34 1.36 0 0 Z " fill="#F3F8F2" transform="translate(604,61)"/>
<path d="M0 0 C0.33 0.99 0.66 1.98 1 3 C1.99 3.33 2.98 3.66 4 4 C3.01 4.33 2.02 4.66 1 5 C1 5.99 1 6.98 1 8 C0.34 8 -0.32 8 -1 8 C-1.2165625 6.824375 -1.2165625 6.824375 -1.4375 5.625 C-1.87798925 3.03578982 -1.87798925 3.03578982 -3 1 C-2.01 0.67 -1.02 0.34 0 0 Z " fill="#3285C4" transform="translate(655,39)"/>
<path d="M0 0 C0.99 0.33 1.98 0.66 3 1 C3 2.65 3 4.3 3 6 C0.03 5.505 0.03 5.505 -3 5 C-2.01 3.35 -1.02 1.7 0 0 Z " fill="#6BA9D8" transform="translate(665,29)"/>
<path d="M0 0 C1.98 0.495 1.98 0.495 4 1 C3.67 2.32 3.34 3.64 3 5 C1.68 4.67 0.36 4.34 -1 4 C-0.67 2.68 -0.34 1.36 0 0 Z " fill="#E3EFDF" transform="translate(630,139)"/>
<path d="M0 0 C1.98 0.495 1.98 0.495 4 1 C3.67 2.32 3.34 3.64 3 5 C1.68 4.67 0.36 4.34 -1 4 C-0.67 2.68 -0.34 1.36 0 0 Z " fill="#ECF4EA" transform="translate(632,127)"/>
<path d="M0 0 C1.32 0.33 2.64 0.66 4 1 C4.33 2.32 4.66 3.64 5 5 C3.35 4.67 1.7 4.34 0 4 C0 2.68 0 1.36 0 0 Z " fill="#EFF5ED" transform="translate(651,126)"/>
<path d="M0 0 C1.32 0 2.64 0 4 0 C4.33 1.32 4.66 2.64 5 4 C3.68 4.33 2.36 4.66 1 5 C0.67 3.35 0.34 1.7 0 0 Z " fill="#EFF5EE" transform="translate(653,117)"/>
<path d="M0 0 C1.32 0 2.64 0 4 0 C4.99 1.98 5.98 3.96 7 6 C6.01 6.66 5.02 7.32 4 8 C3.71125 7.195625 3.4225 6.39125 3.125 5.5625 C2.26737432 2.8673532 2.26737432 2.8673532 0 2 C0 1.34 0 0.68 0 0 Z " fill="#128B6C" transform="translate(675,115)"/>
<path d="M0 0 C1.98 0.495 1.98 0.495 4 1 C3.67 2.32 3.34 3.64 3 5 C1.68 4.67 0.36 4.34 -1 4 C-0.67 2.68 -0.34 1.36 0 0 Z " fill="#F6FAF5" transform="translate(564,109)"/>
<path d="M0 0 C1.32 0 2.64 0 4 0 C4.33 1.65 4.66 3.3 5 5 C3.35 4.67 1.7 4.34 0 4 C0 2.68 0 1.36 0 0 Z " fill="#F4F8F3" transform="translate(656,100)"/>
<path d="M0 0 C1.65 0 3.3 0 5 0 C5 1.32 5 2.64 5 4 C3.35 3.67 1.7 3.34 0 3 C0 2.01 0 1.02 0 0 Z " fill="#EAF3E9" transform="translate(575,50)"/>
<path d="M0 0 C2.97 0.495 2.97 0.495 6 1 C6 1.99 6 2.98 6 4 C4.35 4 2.7 4 1 4 C0.67 2.68 0.34 1.36 0 0 Z " fill="#F1F5F5" transform="translate(588,28)"/>
<path d="M0 0 C1.98 0 3.96 0 6 0 C5.01 0.495 5.01 0.495 4 1 C4 1.99 4 2.98 4 4 C2.35 4 0.7 4 -1 4 C-0.67 2.68 -0.34 1.36 0 0 Z " fill="#7DABBC" transform="translate(565,13)"/>
<path d="M0 0 C1.98 0.99 1.98 0.99 4 2 C4 3.32 4 4.64 4 6 C2.68 5.67 1.36 5.34 0 5 C0 3.35 0 1.7 0 0 Z " fill="#EBF3EA" transform="translate(690,156)"/>
<path d="M0 0 C2.475 0.495 2.475 0.495 5 1 C4.67 2.32 4.34 3.64 4 5 C2.68 4.34 1.36 3.68 0 3 C0 2.01 0 1.02 0 0 Z " fill="#E0EDDC" transform="translate(646,147)"/>
<path d="M0 0 C2.475 0.495 2.475 0.495 5 1 C5.33 1.99 5.66 2.98 6 4 C4.35 4 2.7 4 1 4 C0.67 2.68 0.34 1.36 0 0 Z " fill="#E0E6F0" transform="translate(582,20)"/>
<path d="M0 0 C0.99 0.33 1.98 0.66 3 1 C2.67 3.31 2.34 5.62 2 8 C0.68 7.67 -0.64 7.34 -2 7 C-1.34 4.69 -0.68 2.38 0 0 Z " fill="#9CC0E4" transform="translate(662,18)"/>
<path d="M0 0 C1.32 0.33 2.64 0.66 4 1 C4 2.65 4 4.3 4 6 C3.01 5.67 2.02 5.34 1 5 C0.67 3.35 0.34 1.7 0 0 Z " fill="#E1EDE0" transform="translate(698,173)"/>
<path d="M0 0 C1.98 0.99 1.98 0.99 4 2 C4 3.32 4 4.64 4 6 C3.01 6 2.02 6 1 6 C0.67 4.02 0.34 2.04 0 0 Z " fill="#FBFCFD" transform="translate(699,141)"/>
<path d="M0 0 C1.32 0.33 2.64 0.66 4 1 C4.33 2.32 4.66 3.64 5 5 C3.68 4.67 2.36 4.34 1 4 C0.67 2.68 0.34 1.36 0 0 Z " fill="#F1F4FA" transform="translate(706,112)"/>
<path d="M0 0 C1.32 0.33 2.64 0.66 4 1 C4.33 2.32 4.66 3.64 5 5 C3.68 4.67 2.36 4.34 1 4 C0.67 2.68 0.34 1.36 0 0 Z " fill="#F0F4FA" transform="translate(698,87)"/>
<path d="M0 0 C1.32 0.33 2.64 0.66 4 1 C4.33 2.32 4.66 3.64 5 5 C3.68 4.67 2.36 4.34 1 4 C0.67 2.68 0.34 1.36 0 0 Z " fill="#F9FAFD" transform="translate(683,85)"/>
<path d="M0 0 C1.98 0 3.96 0 6 0 C6.33 0.99 6.66 1.98 7 3 C5.68 3.33 4.36 3.66 3 4 C2.01 2.68 1.02 1.36 0 0 Z " fill="#0E896D" transform="translate(598,36)"/>
<path d="M0 0 C2.475 0.495 2.475 0.495 5 1 C5.33 1.99 5.66 2.98 6 4 C3.03 3.505 3.03 3.505 0 3 C0 2.01 0 1.02 0 0 Z " fill="#EDF1F8" transform="translate(633,37)"/>
<path d="M0 0 C2.475 0.495 2.475 0.495 5 1 C5 2.32 5 3.64 5 5 C3.0625 4.1875 3.0625 4.1875 1 3 C0.67 2.01 0.34 1.02 0 0 Z " fill="#F0F2F9" transform="translate(690,103)"/>
<path d="M0 0 C1.98 0.495 1.98 0.495 4 1 C4 1.99 4 2.98 4 4 C2.35 4 0.7 4 -1 4 C-0.67 2.68 -0.34 1.36 0 0 Z " fill="#E6F0E3" transform="translate(601,102)"/>
<path d="M0 0 C1.32 0.33 2.64 0.66 4 1 C4 2.32 4 3.64 4 5 C2.68 4.34 1.36 3.68 0 3 C0 2.01 0 1.02 0 0 Z " fill="#E8EDF7" transform="translate(691,96)"/>
<path d="M0 0 C2.475 0.495 2.475 0.495 5 1 C5 1.99 5 2.98 5 4 C3.35 3.67 1.7 3.34 0 3 C0 2.01 0 1.02 0 0 Z " fill="#F4F8F3" transform="translate(599,74)"/>
<path d="M0 0 C2.475 0.495 2.475 0.495 5 1 C5 1.99 5 2.98 5 4 C3.35 3.67 1.7 3.34 0 3 C0 2.01 0 1.02 0 0 Z " fill="#F0F6EF" transform="translate(598,51)"/>
<path d="M0 0 C1.67542976 0.28604898 3.34385343 0.61781233 5 1 C4.67 1.99 4.34 2.98 4 4 C2.68 4 1.36 4 0 4 C-0.33 3.01 -0.66 2.02 -1 1 C-0.67 0.67 -0.34 0.34 0 0 Z " fill="#4296CF" transform="translate(664,26)"/>
<path d="M0 0 C1.32 0.33 2.64 0.66 4 1 C3.67 2.32 3.34 3.64 3 5 C0.69 4.34 -1.62 3.68 -4 3 C-2.68 2.67 -1.36 2.34 0 2 C0 1.34 0 0.68 0 0 Z " fill="#34819E" transform="translate(578,18)"/>
<path d="M0 0 C0.66 0 1.32 0 2 0 C2.33 2.31 2.66 4.62 3 7 C2.34 7 1.68 7 1 7 C0.67 4.69 0.34 2.38 0 0 Z " fill="#E9EFEF" transform="translate(711,192)"/>
<path d="M0 0 C1.98 0.495 1.98 0.495 4 1 C3.67 1.99 3.34 2.98 3 4 C1.68 4 0.36 4 -1 4 C-0.67 2.68 -0.34 1.36 0 0 Z " fill="#EAF4E4" transform="translate(551,123)"/>
<path d="M0 0 C1.875 0.3125 1.875 0.3125 4 1 C4.66 1.99 5.32 2.98 6 4 C5.01 4 4.02 4 3 4 C3 4.99 3 5.98 3 7 C2.34 6.67 1.68 6.34 1 6 C0.375 2.9375 0.375 2.9375 0 0 Z " fill="#53A86E" transform="translate(653,88)"/>
<path d="M0 0 C1.32 0.33 2.64 0.66 4 1 C4.33 2.32 4.66 3.64 5 5 C3.68 4.67 2.36 4.34 1 4 C0.67 2.68 0.34 1.36 0 0 Z " fill="#F4F7FC" transform="translate(711,83)"/>
<path d="M0 0 C2.475 0.99 2.475 0.99 5 2 C5 2.99 5 3.98 5 5 C2.525 4.01 2.525 4.01 0 3 C0 2.01 0 1.02 0 0 Z " fill="#ECF1F9" transform="translate(677,59)"/>
<path d="M0 0 C0.66 0 1.32 0 2 0 C2.66 1.98 3.32 3.96 4 6 C1.13275314 5.42655063 0.1385485 5.1385485 -2 3 C-1.34 2.01 -0.68 1.02 0 0 Z " fill="#0B896A" transform="translate(594,30)"/>
</svg>
