<?xml version="1.0" standalone="no"?>
<!DOCTYPE svg PUBLIC "-//W3C//DTD SVG 20010904//EN"
 "http://www.w3.org/TR/2001/REC-SVG-20010904/DTD/svg10.dtd">
<svg version="1.0" xmlns="http://www.w3.org/2000/svg"
 width="250.000000pt" height="132.000000pt" viewBox="0 0 250.000000 132.000000"
 preserveAspectRatio="xMidYMid meet">

<g transform="translate(0.000000,132.000000) scale(0.100000,-0.100000)"
fill="#000000" stroke="none">
<path d="M984 1150 c73 -78 101 -147 101 -250 0 -103 -28 -172 -101 -250 -47
-50 -47 -51 -19 -44 57 13 123 53 163 99 129 146 81 387 -93 470 -30 14 -64
25 -76 25 -19 0 -16 -6 25 -50z"/>
<path d="M763 1174 c-32 -16 -44 -34 -23 -34 20 0 167 -150 190 -194 22 -40
22 -46 10 -77 -15 -34 -146 -174 -190 -201 l-25 -15 41 -21 41 -21 58 47 c68
55 129 138 146 200 16 57 -5 126 -58 196 -36 47 -135 136 -151 136 -4 0 -22
-8 -39 -16z"/>
<path d="M605 980 l-80 -80 80 -80 80 -80 82 82 83 83 -77 77 c-43 43 -80 78
-83 78 -3 0 -41 -36 -85 -80z"/>
<path d="M113 370 c-42 -17 -58 -84 -25 -112 9 -9 34 -23 55 -32 43 -17 53
-36 37 -65 -20 -39 -100 -19 -100 25 0 8 -4 14 -10 14 -21 0 -10 -50 15 -66
55 -36 145 9 145 72 0 35 -25 61 -79 84 -34 14 -46 37 -30 56 19 23 58 17 71
-11 12 -27 28 -24 28 5 0 34 -57 50 -107 30z"/>
<path d="M250 361 c0 -5 7 -11 15 -15 22 -8 22 -184 0 -192 -8 -4 -15 -10 -15
-15 0 -12 67 -11 75 1 3 6 -1 10 -9 10 -13 0 -16 14 -16 80 0 44 2 80 4 80 2
0 37 -40 76 -90 39 -50 78 -90 86 -90 11 0 14 22 14 110 0 91 3 110 15 110 8
0 15 5 15 10 0 6 -18 10 -40 10 -43 0 -49 -6 -24 -24 11 -9 14 -26 12 -69 l-3
-58 -59 76 c-57 73 -60 75 -102 75 -24 0 -44 -4 -44 -9z"/>
<path d="M595 355 c-46 -23 -75 -65 -75 -105 1 -72 54 -120 133 -120 59 0 87
14 87 42 0 21 -1 21 -28 -5 -43 -41 -88 -32 -117 23 -30 58 -8 140 41 157 30
11 67 3 79 -16 8 -13 25 -14 25 -2 0 39 -88 54 -145 26z"/>
<path d="M960 360 c0 -5 7 -10 15 -10 12 0 15 -18 15 -100 0 -82 -3 -100 -15
-100 -8 0 -15 -5 -15 -10 0 -7 33 -10 93 -8 l92 3 3 30 4 30 -25 -23 c-15 -15
-34 -22 -49 -20 -22 3 -23 7 -26 101 -2 82 0 97 13 97 8 0 15 5 15 10 0 6 -27
10 -60 10 -33 0 -60 -4 -60 -10z"/>
<path d="M1235 260 c-27 -61 -54 -110 -62 -110 -7 0 -13 -4 -13 -10 0 -5 20
-10 45 -10 25 0 45 5 45 10 0 6 -7 10 -15 10 -16 0 -19 17 -9 44 4 11 19 16
45 16 33 0 41 -4 49 -26 13 -33 13 -34 -6 -34 -8 0 -12 -4 -9 -10 8 -13 112
-13 120 0 3 6 0 10 -8 10 -10 0 -33 42 -63 110 -26 61 -53 110 -60 110 -6 0
-33 -49 -59 -110z m65 -22 c0 -5 -14 -8 -30 -8 l-31 0 17 32 16 32 14 -25 c7
-13 13 -27 14 -31z"/>
<path d="M1360 364 c0 -4 7 -12 15 -18 8 -6 34 -56 58 -111 24 -54 49 -101 54
-102 6 -2 32 46 58 107 27 63 53 110 61 110 8 0 14 5 14 10 0 6 -18 10 -40 10
-22 0 -40 -4 -40 -10 0 -5 7 -10 15 -10 16 0 15 -4 -25 -95 l-22 -50 -28 70
c-22 55 -25 71 -14 73 8 2 14 8 14 13 0 5 -27 9 -60 9 -33 0 -60 -3 -60 -6z"/>
<path d="M1645 316 c-14 -31 -36 -81 -49 -111 -15 -34 -31 -55 -41 -55 -9 0
-13 -4 -10 -10 8 -13 82 -13 90 0 3 6 -3 10 -14 10 -24 0 -24 0 -11 34 8 22
16 26 50 26 35 0 40 -3 46 -27 5 -17 3 -28 -4 -31 -31 -10 -6 -22 48 -22 62 0
71 5 45 24 -8 6 -34 56 -58 110 -23 55 -48 101 -55 104 -7 2 -23 -20 -37 -52z
m32 -56 c11 -29 10 -30 -18 -30 -33 0 -33 0 -17 35 15 32 21 32 35 -5z"/>
<path d="M1826 361 c-3 -5 3 -11 14 -14 18 -5 20 -14 20 -85 0 -90 -5 -112
-27 -112 -8 0 -11 -4 -8 -10 3 -5 44 -10 91 -10 82 0 85 1 95 26 13 35 3 44
-17 16 -10 -14 -26 -22 -45 -22 l-29 0 0 100 c0 84 3 100 16 100 8 0 12 5 9
10 -8 12 -112 13 -119 1z"/>
<path d="M2026 361 c-3 -5 3 -11 14 -14 18 -5 20 -14 20 -97 0 -83 -2 -92 -20
-97 -11 -3 -17 -9 -14 -14 7 -12 111 -11 119 1 3 6 -1 10 -9 10 -13 0 -16 16
-16 100 0 84 3 100 16 100 8 0 12 5 9 10 -8 12 -112 13 -119 1z"/>
<path d="M2170 361 c0 -5 7 -11 15 -15 22 -8 22 -184 0 -192 -8 -4 -15 -10
-15 -15 0 -12 67 -11 75 1 3 6 -1 10 -9 10 -13 0 -16 14 -16 80 0 44 2 80 4
80 2 0 37 -40 76 -90 39 -50 78 -90 86 -90 11 0 14 22 14 110 0 91 3 110 15
110 8 0 15 5 15 10 0 6 -18 10 -40 10 -22 0 -40 -4 -40 -10 0 -5 7 -10 15 -10
12 0 15 -14 15 -67 l0 -66 -62 76 c-60 74 -63 77 -105 77 -24 0 -43 -4 -43 -9z"/>
<path d="M825 270 c-18 -20 -18 -21 3 -43 l22 -21 22 21 c21 22 21 23 3 43
-10 11 -21 20 -25 20 -4 0 -15 -9 -25 -20z"/>
</g>
</svg>
